<svg width="26" height="26" viewBox="0 0 26 26" fill="none" xmlns="http://www.w3.org/2000/svg">
<circle cx="13" cy="13" r="12.6263" fill="white" stroke="black" stroke-width="0.747468"/>
<path d="M19.6516 15.8641H17.7129C17.8487 15.6 17.9458 15.3219 18.0023 15.0442C18.244 13.8567 17.8006 12.3666 16.2655 11.7147C15.5884 11.4271 14.8734 11.2668 14.1368 11.2352V10.6204C14.3698 10.7352 14.628 10.7989 14.8943 10.7989C15.8438 10.7989 16.6162 10.0264 16.6162 9.07698C16.6162 8.12758 15.8438 7.35498 14.8943 7.35498C14.3873 7.35498 13.9065 7.58072 13.5808 7.96555C13.2548 7.58072 12.7741 7.35498 12.2672 7.35498C11.3177 7.35498 10.5453 8.12747 10.5453 9.07687C10.5453 10.0263 11.3178 10.7988 12.2672 10.7988C12.5334 10.7988 12.7916 10.7351 13.0248 10.6203V11.2607C13.0248 11.27 13.027 11.2785 13.0275 11.2878C10.557 11.6334 8.48186 13.4786 7.89474 15.9421C7.86858 15.9385 7.84254 15.9341 7.81525 15.9341C7.49818 15.9341 7.24121 16.1912 7.24121 16.5081C7.24121 16.8252 7.49829 17.0822 7.81525 17.0822C7.90963 17.0822 7.99735 17.0573 8.07583 17.0169C8.08383 17.0275 8.0906 17.0388 8.09905 17.0491C8.32084 17.3241 8.65077 17.4819 9.00403 17.4819H15.039C16.2402 17.4819 17.0971 16.8733 17.5849 16.0894H19.6515C20.1608 16.0894 20.5751 16.5037 20.5751 17.0129C20.5751 17.5221 20.1607 17.9365 19.6515 17.9365H14.6232C13.9896 17.9365 13.4741 18.452 13.4741 19.0857V19.1625C13.4741 19.7962 13.9896 20.3116 14.6232 20.3116H16.1369C16.1914 20.6589 16.4918 20.9258 16.8542 20.9258C17.255 20.9258 17.5811 20.5997 17.5811 20.1988C17.5811 19.798 17.2549 19.4719 16.8542 19.4719C16.4918 19.4719 16.1914 19.7387 16.1369 20.0861H14.6232C14.1139 20.0861 13.6996 19.6717 13.6996 19.1625V19.0857C13.6996 18.5764 14.114 18.162 14.6232 18.162H19.6516C20.2852 18.162 20.8007 17.6465 20.8007 17.0129C20.8007 16.3794 20.2852 15.8641 19.6516 15.8641ZM14.0219 9.07687C14.0219 8.59574 14.4132 8.20437 14.8943 8.20437C15.3753 8.20437 15.7668 8.59574 15.7668 9.07687C15.7668 9.558 15.3753 9.94926 14.8943 9.94926C14.4132 9.94926 14.0219 9.558 14.0219 9.07687ZM13.1396 9.07687C13.1396 9.558 12.7482 9.94926 12.2672 9.94926C11.7862 9.94926 11.3948 9.55788 11.3948 9.07687C11.3948 8.59585 11.7862 8.20437 12.2672 8.20437C12.7482 8.20437 13.1396 8.59585 13.1396 9.07687Z" fill="#E6E7E8"/>
<path d="M13.5608 10.9186C13.6106 10.9186 13.6598 10.9212 13.7093 10.9223C13.7146 10.895 13.7178 10.8668 13.7178 10.838V10.0044C13.5448 9.8923 13.3934 9.74966 13.2744 9.58154C13.1555 9.74966 13.0041 9.8923 12.8311 10.0044V10.838C12.8311 10.881 12.8392 10.9219 12.8506 10.9612C13.0836 10.9339 13.3204 10.9186 13.5608 10.9186Z" fill="#FA759E"/>
<path d="M14.5874 7.04443C14.0444 7.04443 13.5652 7.31414 13.2738 7.72615C12.9824 7.31426 12.5032 7.04443 11.9602 7.04443C11.0715 7.04443 10.3511 7.76483 10.3511 8.65357C10.3511 9.54231 11.0715 10.2627 11.9602 10.2627C12.5032 10.2627 12.9824 9.99299 13.2738 9.58098C13.5652 9.99299 14.0444 10.2627 14.5874 10.2627C15.4761 10.2627 16.1965 9.54219 16.1965 8.65357C16.1967 7.76494 15.4761 7.04443 14.5874 7.04443ZM11.9602 9.63882C11.416 9.63882 10.975 9.19772 10.975 8.65368C10.975 8.10952 11.416 7.66842 11.9602 7.66842C12.5044 7.66842 12.9455 8.10952 12.9455 8.65368C12.9455 9.19772 12.5044 9.63882 11.9602 9.63882ZM14.5874 9.63882C14.0433 9.63882 13.6022 9.19772 13.6022 8.65368C13.6022 8.10952 14.0433 7.66842 14.5874 7.66842C15.1316 7.66842 15.5727 8.10952 15.5727 8.65368C15.5727 9.19772 15.1316 9.63882 14.5874 9.63882Z" fill="#FFD7E5"/>
<path d="M15.9119 11.3945C15.1886 11.0874 14.393 10.9175 13.5576 10.9175C10.6693 10.9175 8.25539 12.9489 7.6668 15.661C7.52372 16.3204 8.01973 16.9455 8.69446 16.9455H14.7296C17.8608 16.9455 18.7941 12.6185 15.9119 11.3945Z" fill="white"/>
<path d="M15.9119 11.7339C15.1886 11.4268 14.393 11.2568 13.5576 11.2568C10.6693 11.2568 8.25539 13.2882 7.6668 16.0003C7.52372 16.6597 8.01973 17.2849 8.69446 17.2849H14.7296C17.8608 17.2849 18.7941 12.9579 15.9119 11.7339Z" fill="#6DC9F7"/>
<path d="M16.9801 20.2102C17.22 19.9703 17.22 19.5814 16.9801 19.3416C16.7403 19.1017 16.3514 19.1017 16.1115 19.3416C15.8717 19.5814 15.8717 19.9703 16.1115 20.2102C16.3514 20.45 16.7403 20.45 16.9801 20.2102Z" fill="#6DC9F7"/>
<path d="M13.0581 8.65405C13.0581 8.04867 12.5656 7.55615 11.9602 7.55615C11.3548 7.55615 10.8623 8.04867 10.8623 8.65405C10.8623 9.25955 11.3548 9.75207 11.9602 9.75207C12.5656 9.75207 13.0581 9.25944 13.0581 8.65405ZM11.9602 9.52644C11.4791 9.52644 11.0878 9.13507 11.0878 8.65394C11.0878 8.17281 11.4792 7.78155 11.9602 7.78155C12.4412 7.78155 12.8326 8.17292 12.8326 8.65394C12.8326 9.13495 12.4413 9.52644 11.9602 9.52644Z" fill="#3A2C60"/>
<path d="M14.5872 9.75207C15.1927 9.75207 15.6852 9.25955 15.6852 8.65405C15.6852 8.04867 15.1927 7.55615 14.5872 7.55615C13.9818 7.55615 13.4893 8.04867 13.4893 8.65405C13.4891 9.25955 13.9818 9.75207 14.5872 9.75207ZM14.5872 7.78166C15.0683 7.78166 15.4597 8.17304 15.4597 8.65405C15.4597 9.13507 15.0682 9.52655 14.5872 9.52655C14.1061 9.52655 13.7148 9.13518 13.7148 8.65405C13.7148 8.17292 14.106 7.78166 14.5872 7.78166Z" fill="#3A2C60"/>
<path d="M15.8098 11.3514C15.7854 11.4087 15.8122 11.4749 15.8695 11.4993C16.1227 11.6067 16.3532 11.7428 16.5545 11.9035C16.5754 11.9201 16.6001 11.9281 16.6248 11.9281C16.6579 11.9281 16.6907 11.9135 16.713 11.8857C16.7519 11.837 16.7439 11.766 16.6953 11.7273C16.4778 11.5537 16.2296 11.4072 15.9576 11.2917C15.9009 11.2674 15.8343 11.294 15.8098 11.3514Z" fill="#3A2C60"/>
<path d="M9.1582 14.7577C9.1582 14.9559 9.31888 15.1165 9.51699 15.1165C9.7151 15.1165 9.87578 14.9558 9.87578 14.7577C9.87578 14.5596 9.7151 14.3989 9.51699 14.3989C9.31888 14.3989 9.1582 14.5596 9.1582 14.7577Z" fill="#3A2C60"/>
<path d="M19.344 15.441H17.4071C17.4339 15.3882 17.4606 15.3352 17.4849 15.2803C17.98 14.1599 17.7993 12.886 17.0243 12.0349C16.9825 11.9889 16.9111 11.9855 16.8651 12.0274C16.819 12.0694 16.8157 12.1406 16.8577 12.1868C17.5725 12.9718 17.7378 14.1504 17.2786 15.1892C16.8236 16.2188 15.8715 16.8335 14.7315 16.8335H8.69653C8.41171 16.8335 8.14583 16.7065 7.96711 16.4847C7.95899 16.4746 7.95234 16.4638 7.94467 16.4534C8.02901 16.3535 8.08178 16.2261 8.08178 16.0852C8.08178 15.8758 7.96846 15.6944 7.80102 15.5941C8.37754 13.1309 10.4978 11.3044 12.9894 11.06C13.0116 11.0577 13.034 11.055 13.0561 11.0531C13.2095 11.0398 13.3643 11.0332 13.5201 11.032C13.564 11.032 13.6079 11.0318 13.6512 11.0333L13.7052 11.0348C13.7069 11.035 13.7085 11.0342 13.7101 11.0342C14.2947 11.0488 14.8697 11.1474 15.4208 11.3299C15.4799 11.3494 15.5438 11.3175 15.5633 11.2583C15.583 11.1992 15.5509 11.1354 15.4917 11.1158C14.9551 10.938 14.397 10.8363 13.8292 10.8118V10.1974C14.0622 10.3122 14.3204 10.3759 14.5866 10.3759C15.5362 10.3759 16.3085 9.60342 16.3085 8.65402C16.3085 7.70462 15.536 6.93213 14.5866 6.93213C14.0797 6.93213 13.5989 7.15787 13.2732 7.5427C12.9472 7.15798 12.4665 6.93213 11.9596 6.93213C11.01 6.93213 10.2377 7.70462 10.2377 8.65402C10.2377 9.60353 11.0102 10.3759 11.9596 10.3759C12.2258 10.3759 12.484 10.3122 12.7172 10.1974V10.8379C12.7172 10.8468 12.7187 10.856 12.7193 10.8649C10.2491 11.2106 8.17424 13.0558 7.58712 15.519C7.56097 15.5154 7.53492 15.511 7.50763 15.511C7.19056 15.511 6.93359 15.7681 6.93359 16.0851C6.93359 16.402 7.19068 16.6591 7.50763 16.6591C7.60201 16.6591 7.68973 16.6342 7.76821 16.5938C7.77622 16.6044 7.78298 16.6157 7.79132 16.6261C8.01311 16.9011 8.34304 17.0588 8.6963 17.0588H14.7313C15.8133 17.0588 16.7386 16.5457 17.2814 15.6663H19.3439C19.8532 15.6663 20.2675 16.0807 20.2675 16.59C20.2675 17.0993 19.8531 17.5136 19.3439 17.5136H14.3156C13.682 17.5136 13.1665 18.0291 13.1665 18.6626V18.7394C13.1665 19.3731 13.682 19.8886 14.3156 19.8886H15.8293C15.8838 20.2359 16.1842 20.5028 16.5466 20.5028C16.9474 20.5028 17.2735 20.1767 17.2735 19.7759C17.2735 19.375 16.9473 19.0489 16.5466 19.0489C16.1842 19.0489 15.8838 19.3158 15.8293 19.6631H14.3156C13.8063 19.6631 13.392 19.2487 13.392 18.7394V18.6626C13.392 18.1533 13.8064 17.7391 14.3156 17.7391H19.344C19.9776 17.7391 20.4931 17.2235 20.4931 16.59C20.4931 15.9564 19.9776 15.441 19.344 15.441ZM10.4631 8.65391C10.4631 7.82876 11.1343 7.15753 11.9594 7.15753C12.4435 7.15753 12.9002 7.39454 13.181 7.79166C13.2233 7.85131 13.3229 7.85131 13.3652 7.79166C13.6459 7.39465 14.1026 7.15753 14.5866 7.15753C15.4118 7.15753 16.083 7.82876 16.083 8.65391C16.083 9.47905 15.4118 10.1503 14.5866 10.1503C14.296 10.1503 14.0159 10.0633 13.7771 9.90899C13.7447 9.88801 13.714 9.86524 13.6837 9.84224C13.6708 9.83243 13.6578 9.82284 13.6453 9.81258C13.6204 9.79251 13.5967 9.77165 13.5733 9.75023C13.5531 9.73151 13.5335 9.71223 13.5143 9.69238C13.498 9.67558 13.4814 9.65901 13.4659 9.64153C13.4306 9.6015 13.3964 9.56012 13.3653 9.51603C13.3441 9.48615 13.3098 9.46845 13.2733 9.46845C13.2367 9.46845 13.2023 9.48627 13.1813 9.51603C13.15 9.56023 13.1159 9.60161 13.0805 9.64164C13.0652 9.65878 13.0489 9.67513 13.0328 9.69171C13.0133 9.71189 12.9932 9.73151 12.9727 9.75056C12.9497 9.77165 12.9262 9.79228 12.9017 9.81202C12.8887 9.82262 12.8751 9.83265 12.8617 9.8428C12.8318 9.86535 12.8017 9.88779 12.7698 9.90854C12.5309 10.0631 12.2507 10.1502 11.9597 10.1502C11.1344 10.1503 10.4631 9.47894 10.4631 8.65391ZM12.9427 10.8374V10.0643C12.9458 10.062 12.9485 10.0593 12.9517 10.057C13.0049 10.0194 13.0561 9.97889 13.1049 9.93526C13.1108 9.93007 13.1172 9.92522 13.123 9.91992C13.1757 9.87144 13.2265 9.82059 13.2732 9.76534C13.32 9.82059 13.3708 9.87155 13.4236 9.92015C13.4291 9.92522 13.4352 9.92985 13.4408 9.93481C13.49 9.97878 13.5415 10.0196 13.5951 10.0575C13.5981 10.0596 13.6006 10.0622 13.6038 10.0644V10.8063C13.5974 10.8062 13.5909 10.8064 13.5845 10.8063C13.5761 10.8063 13.5679 10.8058 13.5596 10.8058C13.554 10.8058 13.5485 10.8062 13.543 10.8062C13.3851 10.8049 13.2232 10.8129 13.0595 10.8272C13.0346 10.8292 13.0096 10.8316 12.9847 10.8339C12.9706 10.8349 12.9568 10.8359 12.9427 10.8374ZM16.5467 19.2747C16.8231 19.2747 17.0481 19.4996 17.0481 19.7761C17.0481 20.0526 16.8231 20.2775 16.5467 20.2775C16.2702 20.2775 16.0454 20.0526 16.0454 19.7761C16.0454 19.4996 16.2701 19.2747 16.5467 19.2747Z" fill="#3A2C60"/>
<path d="M11.8506 13.6283C11.6555 13.7004 11.4584 13.721 11.2121 13.6948C11.1488 13.6888 11.0946 13.7331 11.088 13.7952C11.0814 13.8571 11.1264 13.9126 11.1883 13.9192C11.2628 13.9271 11.3343 13.931 11.4032 13.931C11.5924 13.931 11.763 13.9011 11.9287 13.8398C12.2586 13.7178 12.509 13.4966 12.6162 13.2327C12.7174 12.9834 12.6964 12.7054 12.5535 12.4062C12.4451 12.1788 12.2864 12.027 12.0819 11.9552C11.7543 11.8401 11.4113 11.9646 11.236 12.0491C10.6418 12.3358 10.315 13.052 10.3015 13.0824C10.2759 13.1391 10.3013 13.2058 10.3581 13.2314C10.415 13.2572 10.4816 13.2316 10.5071 13.1749C10.5101 13.1681 10.8148 12.5029 11.334 12.2523C11.4496 12.1965 11.7471 12.0765 12.007 12.168C12.1529 12.2193 12.2683 12.3322 12.35 12.5034C12.4643 12.743 12.4836 12.9599 12.4073 13.1479C12.3241 13.3532 12.1211 13.5283 11.8506 13.6283Z" fill="#3A2C60"/>
</svg>
