<svg width="72" height="72" viewBox="0 0 72 72" fill="none" xmlns="http://www.w3.org/2000/svg">
<g clip-path="url(#clip0_111_202)">
<path d="M16.8178 18.009C16.3138 18.4898 16.0234 19.005 15.8178 19.8003C15.649 20.4419 15.5998 21.0224 15.6476 21.7437C15.9453 26.0656 19.7539 31.2418 23.9547 33.0189C24.5267 33.2617 25.4136 33.5029 25.9586 33.5637C27.7478 33.7681 29.1695 32.9966 29.7848 31.4885C30.4136 29.9395 30.2037 27.7909 29.1879 25.3866C28.9232 24.7694 27.8899 22.9834 27.4735 22.4368C25.7392 20.1492 23.81 18.547 21.7606 17.6849C21.2489 17.4726 20.3474 17.2306 19.8352 17.1694C19.3599 17.1147 18.5473 17.1598 18.1703 17.264C17.8324 17.3547 17.0537 17.7852 16.8178 18.009Z" fill="#C8C7C7"/>
<path d="M30.9905 10.6112C30.0279 11.4658 29.3813 12.9688 29.1863 14.7902C28.9342 17.1307 29.3833 19.7653 30.4733 22.3193C30.8206 23.1329 31.8249 24.8135 32.3339 25.4375C33.5005 26.8574 34.727 27.747 35.9651 28.0641C37.0293 28.3422 38.0527 28.1588 38.8467 27.5543C40.7315 26.1045 41.4295 22.7045 40.6241 18.8891C39.9564 15.7234 38.4118 12.8857 36.4345 11.1939C34.5056 9.54429 32.433 9.32291 30.9905 10.6112Z" fill="#C8C7C7"/>
<path d="M15.1453 35.3336C13.8481 36.4043 13.4506 38.1941 14.0446 40.3144C14.3887 41.5306 15.2058 43.0055 16.1753 44.155C18.4282 46.8346 21.7601 48.5533 24.4194 48.4102C25.7797 48.3347 26.8747 47.8168 27.5485 46.9202C28.5427 45.599 28.5741 43.676 27.6349 41.4339C27.4456 40.9845 26.7178 39.7492 26.3738 39.3013C23.6468 35.713 19.277 33.729 16.3031 34.7222C15.9524 34.8392 15.3851 35.1404 15.1453 35.3336Z" fill="#C8C7C7"/>
<path d="M46.4726 20.6949C45.3716 21.7066 44.6579 23.3197 44.4408 25.2956C44.2063 27.442 44.6037 29.8289 45.5414 31.9164C45.7864 32.4603 46.4443 33.5529 46.798 34.0092C49.1794 37.0751 52.3711 37.3396 54.2129 34.6328C55.1998 33.1792 55.6531 31.1161 55.4931 28.8203C55.1935 24.4712 52.7656 20.5983 49.8648 19.8514C48.6413 19.5351 47.3954 19.8448 46.4726 20.6949Z" fill="#C8C7C7"/>
<path d="M34.9356 35.8786C32.8623 37.6564 31.3732 41.81 30.9443 47.0031C30.6109 51.0698 31.0057 55.0045 32.022 57.7056C32.2669 58.3533 32.8749 59.4093 33.203 59.7581C33.7155 60.3 34.2002 60.5707 34.9269 60.7318C36.1375 60.9944 37.3304 60.8667 38.6066 60.3363C39.2685 60.0595 40.4887 59.2982 41.206 58.7153C42.1624 57.9303 42.9255 57.1931 44.5785 55.4461C46.1774 53.7592 46.6483 53.3262 47.2008 53.0478C47.903 52.6954 48.5073 52.5609 50.3404 52.3437C51.6533 52.1877 52.362 52.0624 52.9311 51.8921C55.0497 51.2473 56.2661 49.7434 56.8456 47.0543C57.0199 46.254 57.0184 45.9154 56.8452 45.2774C56.7436 44.9129 56.7094 44.8388 56.2743 44.1004C55.8806 43.4321 55.7587 43.2493 55.4619 42.9056C53.6738 40.8148 50.7838 38.7179 47.4282 37.0792C43.4378 35.1309 39.6057 34.2915 37.1355 34.8276C36.2367 35.0224 35.5633 35.3438 34.9356 35.8786Z" fill="#C8C7C7"/>
</g>
<defs>
<clipPath id="clip0_111_202">
<rect width="51.9885" height="51.9885" fill="white" transform="translate(0 26.3901) rotate(-30.5052)"/>
</clipPath>
</defs>
</svg>
