<svg width="20" height="13" viewBox="0 0 20 13" fill="none" xmlns="http://www.w3.org/2000/svg">
<path d="M0.175537 6.4912L7.54396 12.807H11.0527V9.6491H18.4212V3.33331H11.0527V0.175415H7.54396L0.175537 6.4912Z" fill="#DB8E11"/>
<path d="M11.0526 12.9825H7.54386C7.50211 12.9825 7.4614 12.9677 7.42982 12.94L0.0614035 6.62421C0.0224561 6.59123 0 6.54246 0 6.49123C0 6.44 0.0224561 6.39123 0.0614035 6.35825L7.42982 0.0424562C7.4614 0.0150878 7.50211 0 7.54386 0H11.0526C11.1495 0 11.2281 0.0785965 11.2281 0.175439V3.15789H18.4211C18.5179 3.15789 18.5965 3.23649 18.5965 3.33333V9.64912C18.5965 9.74597 18.5179 9.82456 18.4211 9.82456H11.2281V12.807C11.2281 12.9039 11.1495 12.9825 11.0526 12.9825ZM7.60877 12.6316H10.8772V9.64912C10.8772 9.55228 10.9558 9.47368 11.0526 9.47368H18.2456V3.50877H11.0526C10.9558 3.50877 10.8772 3.43018 10.8772 3.33333V0.350877H7.60877L0.444912 6.49123L7.60877 12.6316Z" fill="#212A41"/>
<path d="M7.81019 12.2808C7.76984 12.2808 7.72949 12.2668 7.69615 12.2387L1.12317 6.62467C1.08422 6.59133 1.06177 6.54256 1.06177 6.49133C1.06177 6.44011 1.08422 6.39133 1.12317 6.358L7.69054 0.743966C7.76387 0.681159 7.8751 0.68958 7.93791 0.763265C8.00107 0.836949 7.99229 0.947475 7.91861 1.01063L1.50703 6.49133L7.92422 11.972C7.99791 12.0352 8.00668 12.1457 7.94387 12.2194C7.90878 12.2598 7.85966 12.2808 7.81019 12.2808Z" fill="#F9AC2F"/>
<path d="M3.68433 6.4912L11.0527 12.807V9.6491H19.8247V3.33331H11.0527V0.175415L3.68433 6.4912Z" fill="#F9AC2F"/>
<path d="M11.0526 12.9824C11.0116 12.9824 10.9709 12.968 10.9386 12.9399L3.57019 6.62414C3.53125 6.59081 3.50879 6.54238 3.50879 6.49116C3.50879 6.43993 3.53125 6.39116 3.57019 6.35817L10.9386 0.042383C10.9905 -0.00217838 11.0639 -0.012705 11.126 0.016067C11.1881 0.0448389 11.2281 0.106944 11.2281 0.175365V3.15782H19.8246C19.9214 3.15782 20 3.23642 20 3.33326V9.64905C20 9.74589 19.9214 9.82449 19.8246 9.82449H11.2281V12.8069C11.2281 12.8754 11.1881 12.9378 11.126 12.9662C11.1025 12.9771 11.0772 12.9824 11.0526 12.9824ZM3.9537 6.49116L10.8772 12.4255V9.64905C10.8772 9.55221 10.9558 9.47361 11.0526 9.47361H19.6491V3.5087H11.0526C10.9558 3.5087 10.8772 3.4301 10.8772 3.33326V0.556769L3.9537 6.49116Z" fill="#212A41"/>
<path d="M10.3517 11.4564C10.3114 11.4564 10.271 11.4424 10.2377 11.4143L4.63172 6.62451C4.59277 6.59117 4.57031 6.5424 4.57031 6.49117C4.57031 6.43994 4.59277 6.39117 4.63172 6.35784L10.2377 1.56802C10.311 1.50556 10.4219 1.51398 10.485 1.58766C10.5479 1.66135 10.5391 1.77187 10.4654 1.83503L5.01558 6.49117L10.4654 11.1477C10.5391 11.2108 10.5479 11.3213 10.485 11.395C10.4503 11.4357 10.4012 11.4564 10.3517 11.4564Z" fill="#FFCA4D"/>
<path d="M19.1229 9.12278C19.0261 9.12278 18.9475 9.04418 18.9475 8.94734V4.03506C18.9475 3.93822 19.0261 3.85962 19.1229 3.85962C19.2198 3.85962 19.2984 3.93822 19.2984 4.03506V8.94734C19.2984 9.04418 19.2198 9.12278 19.1229 9.12278Z" fill="#DB8E11"/>
</svg>
