<svg width="20" height="19" viewBox="0 0 20 19" fill="none" xmlns="http://www.w3.org/2000/svg">
<path d="M20.0003 10.2514C19.9353 10.1885 19.8669 10.1289 19.7966 10.0714C19.819 10.0465 19.8326 10.03 19.8357 10.0261C19.8867 9.96312 19.8811 9.87161 19.823 9.81539C19.3004 9.30941 18.7444 9.07207 18.1729 9.10976C18.0469 9.11806 17.9268 9.14011 17.8126 9.17093C17.9837 8.59819 17.8326 8.00005 17.4732 7.48369C17.3911 7.32748 17.2907 7.17144 17.1685 7.01556C17.1183 6.95199 17.0281 6.93698 16.9602 6.98106C16.9476 6.98921 16.8286 7.06811 16.6759 7.21089C16.031 5.17084 14.6855 3.79823 13.4313 2.91516C11.56 1.59734 9.59042 1.10573 9.0541 0.98994C8.89997 0.917748 8.66774 0.770969 8.63101 0.616204C8.62446 0.588253 8.60418 0.503124 8.72891 0.367206C8.78721 0.303479 8.78306 0.204615 8.71933 0.146158C8.65576 0.0878619 8.55674 0.0921742 8.49828 0.155741C8.30279 0.369122 8.29704 0.563018 8.32659 0.688076C8.36093 0.833098 8.45676 0.953524 8.56648 1.04872C3.99652 2.44352 2.38163 5.17419 1.83667 7.24092C1.4048 8.87833 1.55254 10.3332 1.67903 11.0548C1.64166 11.1774 1.61131 11.3071 1.58544 11.4418H0.81481C0.728403 11.4418 0.658447 11.5117 0.658447 11.5981C0.658447 11.6845 0.728403 11.7545 0.81481 11.7545H1.53689C1.51101 11.9716 1.49648 12.2014 1.49648 12.4482C1.49648 12.5095 1.49951 12.5695 1.50127 12.6301H0.81481C0.728403 12.6301 0.658447 12.7 0.658447 12.7864C0.658447 12.8728 0.728403 12.9428 0.81481 12.9428H1.5174C1.5404 13.2443 1.58336 13.5368 1.64773 13.8184H0.81481C0.728403 13.8184 0.658447 13.8883 0.658447 13.9747C0.658447 14.0611 0.728403 14.1311 0.81481 14.1311H1.72887C2.52393 16.8686 5.31498 18.5586 9.28664 18.5586C13.2583 18.5586 16.0495 16.8686 16.8446 14.1311H17.7598C17.8462 14.1311 17.9161 14.0611 17.9161 13.9747C17.9161 13.8883 17.8462 13.8184 17.7598 13.8184H16.9257C16.9901 13.5366 17.033 13.2443 17.056 12.9428H17.7598C17.8289 12.9428 17.8858 12.8971 17.9064 12.8347C17.995 12.8599 18.0867 12.8826 18.1828 12.9014C18.1929 12.9033 18.203 12.9043 18.213 12.9043C18.2132 12.9043 18.2134 12.9043 18.2135 12.9043C18.3165 12.9366 18.4253 12.9656 18.5441 12.9888C18.5441 12.9888 18.8367 11.9684 18.2435 11.1886C18.2193 11.137 18.1926 11.0858 18.1627 11.0348C18.1581 11.0268 18.1522 11.0198 18.1474 11.0118C19.236 11.1897 20.0003 10.2514 20.0003 10.2514ZM17.0722 12.6301C17.0738 12.5694 17.077 12.5095 17.077 12.4482C17.077 12.4398 17.0765 12.432 17.0765 12.4237C17.1728 12.5009 17.2804 12.5687 17.3956 12.6302H17.0722V12.6301Z" fill="#E6E7E8"/>
<path d="M15.9394 11.2735C15.9028 11.2475 15.8603 11.2179 15.8129 11.1855C15.49 12.3393 14.191 12.5559 14.191 12.5559C13.9225 11.5175 14.2675 10.8938 14.707 10.5238C12.3038 9.25132 7.10262 7.45403 1.27617 11.3885C1.27617 11.3885 1.23321 11.2344 1.18465 10.9624C1.06247 11.3468 0.996826 11.8026 0.996826 12.346C0.996826 16.309 4.4146 18.3004 8.63063 18.3004C12.8467 18.3004 16.2644 16.309 16.2644 12.346C16.2644 12.1981 16.2577 12.0591 16.2481 11.924C16.0884 11.7188 15.9928 11.4941 15.9394 11.2735Z" fill="#6DC9F7"/>
<path d="M3.625 17.0675C4.96534 17.8879 6.71487 18.3005 8.63051 18.3005C10.4783 18.3005 12.1725 17.9178 13.4931 17.1545C13.2546 14.7139 11.1349 12.8043 8.55417 12.8043C6.00445 12.8043 3.90482 14.6687 3.625 17.0675Z" fill="#FFD7E5"/>
<path d="M15.1394 10.2424C13.6801 10.4727 13.0554 9.01642 13.0554 9.01642C14.4379 8.27374 15.2715 9.01674 15.6559 9.54987C15.1763 8.57768 15.5801 7.83084 15.9522 7.406C14.4929 2.14941 8.23215 1.01367 8.23215 1.01367C-0.892602 3.62088 1.27746 11.3887 1.27746 11.3887C7.10392 7.45423 12.3051 9.25152 14.7083 10.524C14.8481 10.4063 14.9971 10.3138 15.1394 10.2424Z" fill="#D4FBFF"/>
<path d="M19.059 9.82577C19.0901 9.78728 18.514 9.40651 18.4521 9.37361C18.0924 9.18307 17.6838 9.11184 17.2841 9.19841C17.1199 9.23402 16.9614 9.29344 16.8123 9.3701C16.6904 9.43255 16.5201 9.60233 16.385 9.59754C16.4628 9.52327 16.5324 9.40971 16.5935 9.31915C17.1017 8.56353 16.9327 7.7009 16.3905 7.01013C16.3905 7.01013 14.8866 7.99031 15.6559 9.54994C15.2715 9.01681 14.4378 8.27381 13.0554 9.01649C13.0554 9.01649 13.6801 10.4726 15.1394 10.2425C14.5496 10.5383 13.8385 11.1877 14.1923 12.556C14.1923 12.556 15.7676 12.2935 15.88 10.8061C15.8957 11.4649 16.1796 12.3764 17.558 12.646C17.558 12.646 17.9442 11.3092 16.9442 10.5266C18.171 10.9229 19.059 9.82577 19.059 9.82577Z" fill="white"/>
<path d="M19.345 10.1495C19.1205 9.9321 18.8641 9.74108 18.5744 9.61969C18.2137 9.46844 17.8172 9.444 17.442 9.55485C17.2853 9.60117 17.1353 9.66857 16.9941 9.75066C16.9084 9.80049 16.603 9.99375 16.603 9.99375C16.603 9.99375 16.7079 9.83739 16.761 9.77526C16.8197 9.70626 16.875 9.63423 16.9255 9.559C17.433 8.80354 17.2633 7.94139 16.7215 7.2511C16.7215 7.2511 15.2176 8.23128 15.987 9.79091C15.6025 9.25778 14.7688 8.51477 13.3865 9.25746C13.3865 9.25746 13.9541 10.5812 15.2713 10.5053C14.7913 10.8647 14.3799 11.5012 14.6663 12.6086C14.6663 12.6086 15.8584 12.4107 16.2432 11.3809C16.3468 11.9825 16.7324 12.6607 17.8889 12.8868C17.8889 12.8868 18.2334 11.6925 17.4265 10.9006C18.5504 11.1292 19.345 10.1495 19.345 10.1495Z" fill="#FA759E"/>
<path d="M11.1159 14.9242C11.0277 14.9242 10.9562 14.9957 10.9562 15.0839C10.9562 15.6809 10.4705 16.1665 9.8736 16.1665C9.33248 16.1665 8.88416 15.7672 8.80478 15.2479C9.11702 15.222 9.34925 15.1294 9.34925 15.0179C9.34925 14.8866 9.02774 14.7803 8.63132 14.7803C8.23475 14.7803 7.9134 14.8866 7.9134 15.0179C7.9134 15.1293 8.14563 15.222 8.45787 15.2479C8.37849 15.7672 7.93017 16.1665 7.38905 16.1665C6.79219 16.1665 6.30649 15.6808 6.30649 15.0839C6.30649 14.9957 6.23494 14.9242 6.14678 14.9242C6.05861 14.9242 5.98706 14.9957 5.98706 15.0839C5.98706 15.8569 6.61602 16.4859 7.38905 16.4859C7.92857 16.4859 8.39702 16.1792 8.63132 15.7314C8.86563 16.1792 9.33424 16.4859 9.8736 16.4859C10.6466 16.4859 11.2756 15.8569 11.2756 15.0839C11.2756 14.9956 11.2042 14.9242 11.1159 14.9242Z" fill="#3A2C60"/>
<path d="M5.80898 11.8521C5.72082 11.8521 5.64926 11.9236 5.64926 12.0118C5.64926 12.2708 5.4386 12.4815 5.17954 12.4815C4.92048 12.4815 4.70981 12.2708 4.70981 12.0118C4.70981 11.9236 4.63826 11.8521 4.5501 11.8521C4.46193 11.8521 4.39038 11.9236 4.39038 12.0118C4.39038 12.447 4.74447 12.8009 5.17954 12.8009C5.61461 12.8009 5.9687 12.4468 5.9687 12.0118C5.9687 11.9236 5.89714 11.8521 5.80898 11.8521Z" fill="#3A2C60"/>
<path d="M12.8908 11.8521C12.8026 11.8521 12.7311 11.9236 12.7311 12.0118C12.7311 12.2708 12.5204 12.4815 12.2613 12.4815C12.0023 12.4815 11.7916 12.2708 11.7916 12.0118C11.7916 11.9236 11.72 11.8521 11.6319 11.8521C11.5437 11.8521 11.4722 11.9236 11.4722 12.0118C11.4722 12.447 11.8263 12.8009 12.2613 12.8009C12.6964 12.8009 13.0505 12.4468 13.0505 12.0118C13.0505 11.9236 12.9789 11.8521 12.8908 11.8521Z" fill="#3A2C60"/>
<path d="M11.5765 2.4369C12.1611 2.75937 12.7004 3.12273 13.1798 3.51707C13.2095 3.5415 13.2454 3.55348 13.2812 3.55348C13.3273 3.55348 13.373 3.53352 13.4045 3.49518C13.4605 3.42715 13.4508 3.32636 13.3826 3.27046C12.8883 2.86367 12.3325 2.48897 11.7308 2.15724C11.6537 2.1146 11.5564 2.14271 11.5139 2.22001C11.4711 2.29715 11.4992 2.39442 11.5765 2.4369Z" fill="#3A2C60"/>
<path d="M19.1701 9.71105C18.6469 9.20443 18.0896 8.96645 17.5177 9.00447C17.2788 9.02028 17.0603 9.08273 16.8662 9.16754C16.9478 9.00574 17.0139 8.82638 17.0478 8.62833C17.1446 8.06214 16.9657 7.48445 16.5159 6.91154C16.4648 6.84638 16.3727 6.83121 16.3032 6.87625C16.2907 6.88439 16.1751 6.96122 16.0258 7.09985C15.6211 5.81461 14.9019 4.6728 13.8579 3.68911C13.7937 3.62857 13.6926 3.63161 13.6321 3.69581C13.5716 3.76002 13.5746 3.86112 13.6388 3.92165C14.6862 4.90886 15.396 6.06217 15.7736 7.36785C15.5749 7.61014 15.3792 7.93724 15.3056 8.33941C15.269 8.53921 15.2673 8.74109 15.2965 8.94425C15.1432 8.82526 14.9664 8.71969 14.7621 8.64686C14.221 8.45392 13.6212 8.53123 12.9795 8.87605C12.9065 8.91518 12.8757 9.00351 12.9083 9.07953C12.9175 9.10109 13.0523 9.40695 13.3344 9.72207C13.0586 9.61506 12.7636 9.51284 12.4544 9.41653C12.224 9.34482 11.988 9.27566 11.7398 9.21338C11.6628 9.19405 11.5845 9.1752 11.5048 9.15684C11.4053 9.13384 11.3033 9.11211 11.2001 9.09087C10.0901 8.86328 8.76028 8.74668 7.28354 8.91678C5.23566 8.46782 3.90299 7.6662 3.3229 6.53381C2.69074 5.29953 3.20439 4.08504 3.20966 4.07291C3.21381 4.06348 3.21365 4.05374 3.21589 4.044C4.39012 2.76499 6.06603 1.80397 8.23913 1.17789C8.25478 1.18108 8.27666 1.18571 8.30174 1.19098C8.32633 1.20168 8.34486 1.20903 8.35332 1.21223C8.37201 1.21925 8.39118 1.22261 8.41002 1.22261C8.41673 1.22261 8.42296 1.22053 8.42951 1.21973C8.85691 1.31956 9.8438 1.58452 10.9645 2.12213C11.0441 2.16014 11.1396 2.12676 11.1776 2.04722C11.2156 1.96768 11.1821 1.87233 11.1027 1.83416C9.84699 1.23187 8.77721 0.967061 8.40236 0.885606C8.26069 0.819324 8.01712 0.675579 7.97895 0.513307C7.9724 0.485836 7.95276 0.402145 8.07606 0.267664C8.13563 0.202659 8.13132 0.101559 8.06615 0.0419844C8.00115 -0.0177495 7.90005 -0.0131178 7.84048 0.0518868C7.64402 0.266386 7.63827 0.4614 7.66798 0.587416C7.702 0.73116 7.79623 0.850788 7.90452 0.945659C3.33759 2.3411 1.72334 5.07145 1.17839 7.13818C0.745237 8.78006 0.894891 10.2388 1.02155 10.9589C0.984971 11.0795 0.954944 11.206 0.929549 11.3365H0.159716C0.0715529 11.3365 0 11.408 0 11.4962C0 11.5844 0.0715529 11.6559 0.159716 11.6559H0.878919C0.852885 11.872 0.838032 12.0998 0.838032 12.3462C0.838032 12.4064 0.841066 12.4654 0.842663 12.5249H0.159716C0.0715529 12.5249 0 12.5965 0 12.6846C0 12.7728 0.0715529 12.8444 0.159716 12.8444H0.859274C0.882273 13.1435 0.924758 13.4337 0.988325 13.7132H0.159716C0.0715529 13.7132 0 13.7848 0 13.8729C0 13.9611 0.0715529 14.0327 0.159716 14.0327H1.07122C1.86756 16.7704 4.6594 18.4603 8.63155 18.4603C12.6037 18.4603 15.3955 16.7704 16.1919 14.0327H17.1047C17.1928 14.0327 17.2644 13.9611 17.2644 13.8729C17.2644 13.7848 17.1928 13.7132 17.1047 13.7132H16.2748C16.3385 13.4336 16.381 13.1434 16.4038 12.8444H17.1045C17.1741 12.8444 17.2316 12.7993 17.2537 12.7372C17.3414 12.7621 17.4321 12.7843 17.527 12.8028C17.5372 12.8049 17.5476 12.8059 17.5578 12.8059C17.6276 12.8059 17.691 12.7599 17.7109 12.6906C17.7221 12.6517 17.9804 11.7323 17.5102 10.9313C17.477 10.8747 17.4402 10.8209 17.4016 10.7685C17.4276 10.7697 17.4536 10.7727 17.4798 10.7727C17.5281 10.7727 17.5763 10.7708 17.6249 10.7671C18.5507 10.6951 19.1577 9.95765 19.1831 9.92619C19.2351 9.86182 19.2295 9.76839 19.1701 9.71105ZM15.7194 10.8107C15.6947 11.1049 15.6072 11.3667 15.4554 11.5924C15.1258 12.0825 14.5728 12.2895 14.3112 12.3635C14.1986 11.8172 14.2633 11.355 14.5042 10.9877C14.6883 10.7069 14.951 10.5205 15.1953 10.3958C15.3586 10.3675 15.5255 10.3215 15.696 10.256C15.7119 10.3606 15.7217 10.4624 15.7249 10.5607C15.7198 10.6385 15.7174 10.7222 15.7194 10.8107ZM15.6193 8.39946C15.7249 7.81825 16.1483 7.40682 16.3583 7.23433C16.6805 7.68952 16.8066 8.13896 16.7332 8.57195C16.6346 9.1538 16.1987 9.57242 15.9739 9.75417C15.9311 9.67575 15.8709 9.57593 15.7939 9.46812C15.6166 9.10349 15.5567 8.74541 15.6193 8.39946ZM14.6527 8.94681C15.0525 9.08832 15.3376 9.38683 15.5196 9.6379C15.5605 9.71936 15.6072 9.80081 15.6584 9.88243C15.5295 9.91341 15.3203 9.97522 15.0898 10.0881C14.807 10.129 14.5398 10.1057 14.2914 10.0145C13.7369 9.81087 13.4044 9.32294 13.2705 9.0864C13.7743 8.84715 14.2387 8.80003 14.6527 8.94681ZM1.48728 7.21964C1.74123 6.25639 2.15873 5.39264 2.73131 4.62632C2.64698 5.14492 2.64059 5.89878 3.03621 6.67452C3.58435 7.7491 4.73511 8.54257 6.46196 9.03896C4.88381 9.32917 3.16334 9.96005 1.38075 11.1281C1.26431 10.5662 1.02091 8.9877 1.48728 7.21964ZM15.9435 13.7132H15.426C15.3379 13.7132 15.2663 13.7848 15.2663 13.8729C15.2663 13.9611 15.3379 14.0327 15.426 14.0327H15.8541C15.056 16.575 12.3973 18.1409 8.63155 18.1409C4.86576 18.1409 2.20712 16.575 1.40902 14.0327H1.83834C1.9265 14.0327 1.99805 13.9611 1.99805 13.8729C1.99805 13.7848 1.9265 13.7132 1.83834 13.7132H1.31974C1.25122 13.4342 1.20458 13.1443 1.17982 12.8444H1.83834C1.9265 12.8444 1.99805 12.7728 1.99805 12.6846C1.99805 12.5965 1.9265 12.5249 1.83834 12.5249H1.16226C1.1605 12.4655 1.15762 12.4064 1.15762 12.3462C1.15762 12.1006 1.17487 11.8722 1.20298 11.6559H1.83849C1.92666 11.6559 1.99821 11.5844 1.99821 11.4962C1.99821 11.408 1.92666 11.3365 1.83849 11.3365H1.64859C3.16654 10.3571 4.63625 9.77382 6.00613 9.46062C6.15307 10.3654 6.41868 10.9722 6.7231 10.9722C7.05419 10.9722 7.33928 10.2552 7.47584 9.21721C7.60984 9.20347 7.74225 9.19277 7.87354 9.18383C7.91091 10.7835 8.26899 12.0408 8.70789 12.0408C9.14664 12.0408 9.50472 10.7842 9.54225 9.18479C9.67721 9.19421 9.80978 9.20603 9.94042 9.2196C10.0771 10.2563 10.3619 10.9722 10.6927 10.9722C10.9969 10.9722 11.2624 10.3662 11.4093 9.46253C11.4905 9.48106 11.5705 9.50023 11.6491 9.51987C12.7645 9.79873 13.7088 10.1963 14.4336 10.5647C14.3639 10.6392 14.298 10.7201 14.2386 10.8102C13.9226 11.29 13.8551 11.891 14.0373 12.5962C14.0558 12.6676 14.1202 12.716 14.1918 12.716C14.2004 12.716 14.2092 12.7153 14.2181 12.7137C14.2579 12.7072 15.1989 12.5433 15.7185 11.7735C15.7696 11.6976 15.8127 11.6177 15.852 11.536C15.8913 11.642 15.9406 11.7478 16.0028 11.8509C16.0304 11.8966 16.0617 11.9394 16.093 11.9822C16.1008 12.0999 16.1055 12.221 16.1055 12.3464C16.1055 12.4066 16.1024 12.4655 16.1008 12.5251H15.4259C15.3377 12.5251 15.2662 12.5966 15.2662 12.6848C15.2662 12.773 15.3377 12.8445 15.4259 12.8445H16.0831C16.0587 13.1442 16.0119 13.434 15.9435 13.7132ZM16.4204 12.5248C16.422 12.4652 16.4251 12.4063 16.4251 12.3461C16.4251 12.3403 16.4247 12.3349 16.4246 12.329C16.5164 12.402 16.6188 12.466 16.7276 12.5246H16.4204V12.5248ZM17.2336 11.0907C17.5335 11.5995 17.4818 12.1876 17.4354 12.4555C16.8942 12.3213 16.5049 12.0635 16.2775 11.6877C16.0978 11.3909 16.0449 11.0616 16.0411 10.7815C16.0445 10.7252 16.0449 10.6676 16.0443 10.6095C16.0517 10.4785 16.067 10.3635 16.0825 10.2808C16.1304 10.2943 16.1756 10.3101 16.221 10.3256C16.431 10.4775 16.6444 10.592 16.8606 10.6662C17.0123 10.7879 17.138 10.9286 17.2336 11.0907ZM17.5974 10.4488C17.4003 10.4635 17.2035 10.4378 17.0079 10.3766C16.8263 10.2405 16.6147 10.1287 16.3733 10.0418C16.3404 10.0172 16.3075 9.99375 16.2748 9.96708C16.4723 9.76551 16.9382 9.36287 17.5386 9.32326C17.9766 9.29515 18.4123 9.46621 18.8328 9.83435C18.6394 10.0252 18.1864 10.4039 17.5974 10.4488Z" fill="#3A2C60"/>
</svg>
