<svg width="28" height="25" viewBox="0 0 28 25" fill="none" xmlns="http://www.w3.org/2000/svg">
<path d="M27.3423 10.398C27.2869 8.61289 26.7704 6.87426 25.8291 5.35189C24.8317 3.73966 23.408 2.43993 21.7118 1.59325C21.5948 1.53523 21.4535 1.58264 21.3955 1.69891L19.7932 4.90968C19.776 4.90567 19.7597 4.8993 19.7415 4.8993C19.7408 4.8993 19.7404 4.8993 19.7396 4.8993L19.1892 4.90378C19.1239 4.61582 19.0262 4.36111 18.8949 4.13564C18.5486 3.3234 18.0788 2.42955 17.4303 1.19515L17.3791 1.09821C17.2333 0.821098 16.9454 0.680299 16.6256 0.733128C16.2834 0.788787 16.0084 1.0468 15.9572 1.36047L15.7164 2.84015C15.1636 2.82459 14.5648 2.84015 13.9346 2.85619C13.5396 2.86633 13.1316 2.87671 12.7136 2.88025C12.2952 2.88402 11.8877 2.88001 11.4922 2.876C10.8616 2.86987 10.2623 2.86445 9.7097 2.88874L9.44555 1.41684C9.38966 1.10387 9.11066 0.850578 8.76727 0.800344C8.44628 0.753175 8.16091 0.898218 8.01964 1.17746L7.97483 1.26613C7.34773 2.50738 6.89349 3.40641 6.56025 4.22149C6.42864 4.45191 6.33313 4.71299 6.2711 5.00755L5.72182 5.01204C5.5914 5.01298 5.48692 5.11958 5.48786 5.24977C5.48904 5.37948 5.59423 5.48372 5.72371 5.48372C5.72442 5.48372 5.72489 5.48372 5.72559 5.48372L6.20412 5.47995C6.19186 5.62853 6.18549 5.78372 6.18667 5.94763C6.18667 5.96248 6.18785 5.97687 6.18808 5.99173L5.7296 5.9955C5.59918 5.99645 5.49447 6.10305 5.49565 6.23323C5.49683 6.36295 5.60201 6.46719 5.73149 6.46719C5.7322 6.46719 5.73267 6.46719 5.73338 6.46719L6.21591 6.46342C6.23384 6.6377 6.26049 6.80798 6.29492 6.97425L5.73739 6.97873C5.60697 6.97968 5.50225 7.08628 5.50343 7.21646C5.50461 7.34618 5.6098 7.45042 5.73927 7.45042C5.73998 7.45042 5.74045 7.45042 5.74116 7.45042L6.41803 7.445C6.66637 8.22847 7.10929 8.90605 7.72059 9.45556C7.42815 9.65721 7.24183 9.95673 7.24183 10.2909C7.24183 10.2994 7.24325 10.3074 7.24348 10.3159H5.50579V8.54473C5.50579 7.66858 4.83175 6.94784 3.97493 6.87143C3.91951 6.14974 3.31598 5.57924 2.58039 5.57924C1.80871 5.57924 1.18042 6.20729 1.18042 6.97921V7.13982C1.18042 7.91173 1.80847 8.54002 2.58039 8.54002C3.28084 8.54002 3.86125 8.02234 3.9629 7.34972C4.56407 7.41929 5.0341 7.92565 5.0341 8.54497V10.3343C4.44897 10.4218 3.99733 10.923 3.99733 11.5322V13.6557C3.99733 15.7064 5.66569 17.375 7.71659 17.375H14.1973L15.1926 18.4183L13.3488 20.3515C12.9143 19.8367 12.2653 19.5084 11.5406 19.5084C10.2356 19.5084 9.1741 20.5699 9.1741 21.8748C9.1741 23.1798 10.2356 24.2413 11.5406 24.2413C12.8455 24.2413 13.907 23.1798 13.907 21.8748C13.907 21.4675 13.8035 21.0841 13.6216 20.7492L15.5188 18.7603L17.4465 20.7815C17.2751 21.1088 17.1767 21.4805 17.1767 21.8751C17.1767 23.18 18.2383 24.2415 19.5432 24.2415C20.8481 24.2415 21.9096 23.18 21.9096 21.8751C21.9096 20.5702 20.8481 19.5086 19.5432 19.5086C18.8062 19.5086 18.1472 19.8475 17.7128 20.3772L15.8447 18.4188L16.84 17.3754H23.6837C25.7343 17.3754 27.4029 15.7071 27.4029 13.6562V10.5525C27.4022 10.4921 27.3784 10.4395 27.3423 10.398ZM15.5183 18.0759L14.849 17.3742H16.1874L15.5183 18.0759Z" fill="#E6E7E8"/>
<path d="M16.6948 9.56799C16.6948 9.6595 16.6713 9.74605 16.6368 9.82883H25.9199C25.8746 8.06756 25.368 6.34708 24.4397 4.84617C23.4664 3.27262 22.0733 2.00096 20.4179 1.17456L16.4802 9.06423C16.6137 9.20621 16.6948 9.37932 16.6948 9.56799Z" fill="#FFD7E5"/>
<path d="M16.6369 9.82861C16.4923 10.177 16.0725 10.431 15.5708 10.431C15.0692 10.431 14.6494 10.177 14.5048 9.82861H13.8223C13.131 10.001 12.3815 10.0916 11.5971 10.0979C10.7559 10.1048 9.95305 10.0145 9.21769 9.82861H8.48776C8.34318 10.177 7.92315 10.431 7.42174 10.431C6.92034 10.431 6.5003 10.177 6.35573 9.82861H4.03314C3.49188 9.82861 3.05298 10.2675 3.05298 10.8088V12.9323C3.05298 14.8561 4.61261 16.4157 6.53639 16.4157H22.5035C24.4272 16.4157 25.9869 14.8561 25.9869 12.9323V9.82861H16.6369Z" fill="white"/>
<path d="M16.2262 10.2665C16.0413 10.3691 15.8161 10.4311 15.5706 10.4311C15.3251 10.4311 15.0998 10.3691 14.9149 10.2665H8.07712C7.89222 10.3691 7.66699 10.4311 7.42147 10.4311C7.17596 10.4311 6.95073 10.3691 6.76583 10.2665H4.71918C4.17792 10.2665 3.73901 10.7054 3.73901 11.2466V13.3702C3.73901 15.294 5.29865 16.8536 7.22219 16.8536H23.1893C25.113 16.8536 26.6727 15.294 26.6727 13.3702V10.2665H16.2262Z" fill="#FA759E"/>
<path d="M10.3596 23.2823C11.5363 23.2823 12.4902 22.3284 12.4902 21.1517C12.4902 19.975 11.5363 19.0211 10.3596 19.0211C9.18291 19.0211 8.229 19.975 8.229 21.1517C8.229 22.3284 9.18291 23.2823 10.3596 23.2823Z" fill="#0089EF"/>
<path d="M10.3594 20.5474C10.0256 20.5474 9.75513 20.8179 9.75513 21.1516C9.75513 21.4853 10.0256 21.7558 10.3594 21.7558C10.6931 21.7558 10.9636 21.4853 10.9636 21.1516C10.9636 20.8179 10.6931 20.5474 10.3594 20.5474Z" fill="#6DC9F7"/>
<path d="M18.8518 23.2231C19.997 22.9527 20.7061 21.8051 20.4357 20.66C20.1653 19.5148 19.0177 18.8057 17.8726 19.0761C16.7274 19.3465 16.0183 20.494 16.2887 21.6392C16.5591 22.7843 17.7066 23.4935 18.8518 23.2231Z" fill="#0089EF"/>
<path d="M18.3401 20.5474C18.0064 20.5474 17.7358 20.8179 17.7358 21.1516C17.7358 21.4853 18.0064 21.7558 18.3401 21.7558C18.6738 21.7558 18.9443 21.4853 18.9443 21.1516C18.9443 20.8179 18.6738 20.5474 18.3401 20.5474Z" fill="#6DC9F7"/>
<path d="M1.39947 7.58077C0.756566 7.58077 0.235352 7.05956 0.235352 6.41665V6.25604C0.235352 5.61313 0.756566 5.09192 1.39947 5.09192C2.04238 5.09192 2.5636 5.61313 2.5636 6.25604V6.41665C2.5636 7.05956 2.04238 7.58077 1.39947 7.58077Z" fill="#0089EF"/>
<path d="M14.4459 9.56786C14.4459 9.09122 14.9492 8.70467 15.5699 8.70467C15.756 8.70467 15.9286 8.74264 16.0831 8.8042C17.2003 7.97356 17.8847 6.74505 17.8715 5.12127C17.8661 4.43213 17.7354 3.91257 17.5024 3.51942C17.1505 2.69161 16.6713 1.78361 15.989 0.485291C15.7534 0.0371883 15.0782 0.248976 15.0086 0.675617L14.7343 2.36072C13.7952 2.31968 12.7023 2.38407 11.5339 2.39326C10.3653 2.4027 9.27124 2.35577 8.33282 2.41213L8.03212 0.735756C7.95571 0.310295 7.27719 0.109356 7.04889 0.561232C6.39183 1.86167 5.92911 2.77368 5.59114 3.60267C5.36002 4.00101 5.23549 4.52647 5.24115 5.22268C5.25365 6.78443 5.90599 7.97002 6.96139 8.78132C7.10172 8.73297 7.25643 8.70444 7.42035 8.70444C8.04109 8.70444 8.54437 9.09075 8.54437 9.56762C8.54437 9.58673 8.53871 9.60441 8.53706 9.62304C9.44506 9.9478 10.4875 10.1065 11.5957 10.0976C12.6268 10.0893 13.598 9.93624 14.4553 9.64191C14.4527 9.61715 14.4459 9.59333 14.4459 9.56786Z" fill="#6DC9F7"/>
<path d="M14.4455 9.56807C14.4455 9.09827 14.9349 8.71809 15.5432 8.707C15.15 6.89195 13.4835 5.53562 11.4961 5.55165C9.53057 5.56746 7.90042 6.92049 7.5127 8.71219C8.08957 8.74875 8.54427 9.11572 8.54427 9.56807C8.54427 9.58528 8.53885 9.60132 8.53767 9.61854C9.4459 9.94447 10.4862 10.1072 11.5956 10.0982C12.6272 10.09 13.597 9.93433 14.4547 9.63953C14.4524 9.61547 14.4455 9.59236 14.4455 9.56807Z" fill="#FFD7E5"/>
<path d="M7.42164 10.4315C8.04242 10.4315 8.54567 10.045 8.54567 9.56826C8.54567 9.09154 8.04242 8.70508 7.42164 8.70508C6.80085 8.70508 6.29761 9.09154 6.29761 9.56826C6.29761 10.045 6.80085 10.4315 7.42164 10.4315Z" fill="#6DC9F7"/>
<path d="M15.5706 10.4315C16.1913 10.4315 16.6946 10.045 16.6946 9.56826C16.6946 9.09154 16.1913 8.70508 15.5706 8.70508C14.9498 8.70508 14.4465 9.09154 14.4465 9.56826C14.4465 10.045 14.9498 10.4315 15.5706 10.4315Z" fill="#6DC9F7"/>
<path d="M26.1496 9.65995C26.077 7.91306 25.5626 6.21381 24.64 4.7221C23.6426 3.10987 22.2188 1.81014 20.5226 0.963695C20.4059 0.905206 20.2644 0.952846 20.2064 1.06935L18.6467 4.19428C18.6198 4.18367 18.5911 4.17706 18.5606 4.17706C18.5602 4.17706 18.5595 4.17706 18.5588 4.17706L18.0083 4.18154C17.943 3.89381 17.8453 3.63887 17.714 3.4134C17.3673 2.60021 16.897 1.70519 16.2473 0.469367L16.1982 0.375973C16.0524 0.0988571 15.7638 -0.0417057 15.4444 0.0108874C15.102 0.0665465 14.8272 0.324559 14.7763 0.638231L14.5355 2.11815C13.9827 2.10329 13.3848 2.11815 12.7551 2.13419C12.3596 2.14409 11.9509 2.1547 11.5325 2.15801C11.1144 2.16107 10.7054 2.15753 10.3099 2.15376C9.68019 2.14786 9.08162 2.1422 8.52881 2.1665L8.2649 0.694598C8.20877 0.381633 7.93 0.128337 7.58661 0.0781028C7.26657 0.0316416 6.98026 0.175978 6.83899 0.455216L6.79394 0.544601C6.16683 1.78561 5.7126 2.68441 5.37935 3.49925C5.24799 3.7299 5.15224 3.99075 5.09044 4.28531L4.54093 4.2898C4.41051 4.29074 4.30579 4.39734 4.30697 4.52753C4.30792 4.65724 4.41334 4.76148 4.54282 4.76148C4.54329 4.76148 4.544 4.76148 4.5447 4.76148L5.02323 4.75771C5.01097 4.90629 5.0046 5.06148 5.00601 5.22515C5.00601 5.24001 5.00719 5.2544 5.00743 5.26925L4.54895 5.27303C4.41853 5.27397 4.31381 5.38057 4.31499 5.51076C4.31594 5.64047 4.42136 5.74471 4.55084 5.74471C4.55131 5.74471 4.55201 5.74471 4.55272 5.74471L5.03455 5.74094C5.052 5.91523 5.07818 6.08527 5.11214 6.25178L4.55673 6.25626C4.42631 6.2572 4.3216 6.3638 4.32277 6.49399C4.32372 6.6237 4.42914 6.72795 4.55862 6.72795C4.55909 6.72795 4.5598 6.72795 4.5605 6.72795L5.23384 6.72252C5.47794 7.50198 5.91566 8.18121 6.53664 8.73568C6.24631 8.93733 6.06141 9.23567 6.06141 9.56868C6.06141 9.57717 6.06283 9.58519 6.06306 9.59344H4.32537V7.82226C4.32537 6.9461 3.65109 6.22513 2.79451 6.14871C2.73909 5.42703 2.13556 4.85653 1.39997 4.85653C0.628051 4.85653 0 5.48458 0 6.25673V6.41734C0 7.18926 0.628051 7.81731 1.39997 7.81731C2.10042 7.81731 2.68083 7.29963 2.78248 6.627C3.38365 6.69658 3.85368 7.20293 3.85368 7.82249V9.61184C3.26832 9.69934 2.81668 10.2005 2.81668 10.8097V12.9332C2.81668 14.9839 4.48503 16.6525 6.53593 16.6525H13.0167L14.0119 17.6958L12.1681 19.6288C11.7337 19.114 11.0846 18.7857 10.3599 18.7857C9.05497 18.7857 7.99344 19.8472 7.99344 21.1521C7.99344 22.4571 9.05497 23.5186 10.3599 23.5186C11.6648 23.5186 12.7263 22.4571 12.7263 21.1521C12.7263 20.7448 12.6228 20.3613 12.441 20.0265L14.3379 18.0378L16.2656 20.059C16.0942 20.3863 15.9958 20.7578 15.9958 21.1524C15.9958 22.4573 17.0574 23.5188 18.3623 23.5188C19.6672 23.5188 20.7288 22.4573 20.7288 21.1524C20.7288 19.8474 19.667 18.7852 18.3623 18.7852C17.6253 18.7852 16.9663 19.1241 16.5319 19.6538L14.6638 17.6954L15.6591 16.652H18.8422C18.9724 16.652 19.0781 16.5463 19.0781 16.4162C19.0781 16.286 18.9724 16.1803 18.8422 16.1803H6.53569C4.74493 16.1803 3.28813 14.7235 3.28813 12.9328V10.8092C3.28813 10.3988 3.62208 10.0649 4.03245 10.0649H6.20976C6.43475 10.4217 6.89252 10.6672 7.42129 10.6672C7.95005 10.6672 8.40805 10.4217 8.63281 10.0649H9.17973C9.89175 10.2427 10.6722 10.3345 11.5056 10.3345C11.5365 10.3345 11.5674 10.3345 11.5985 10.3342C12.3948 10.3279 13.1495 10.2356 13.8435 10.0649H14.3589C14.5838 10.4217 15.0419 10.6672 15.5704 10.6672C16.0989 10.6672 16.5572 10.4217 16.7819 10.0649H25.7501V12.933C25.7501 14.7237 24.2933 16.1806 22.5025 16.1806H22.2542C22.124 16.1806 22.0183 16.2862 22.0183 16.4164C22.0183 16.5466 22.124 16.6522 22.2542 16.6522H22.5025C24.5532 16.6522 26.2218 14.9839 26.2218 12.933V9.82881C26.2218 9.76231 26.1937 9.70287 26.1496 9.65995ZM2.32801 6.41687C2.32801 6.92865 1.91151 7.34515 1.39973 7.34515C0.88795 7.34515 0.471451 6.92865 0.471451 6.41687V6.25626C0.471451 5.74448 0.88795 5.32774 1.39973 5.32774C1.91151 5.32774 2.32801 5.74424 2.32801 6.25626V6.41687ZM10.3597 23.0464C9.31487 23.0464 8.46489 22.1964 8.46489 21.1517C8.46489 20.1069 9.31487 19.2569 10.3597 19.2569C11.4044 19.2569 12.2544 20.1069 12.2544 21.1517C12.2544 22.1964 11.4044 23.0464 10.3597 23.0464ZM18.3623 19.2569C19.4071 19.2569 20.2571 20.1069 20.2571 21.1517C20.2571 22.1964 19.4071 23.0464 18.3623 23.0464C17.3175 23.0464 16.4675 22.1964 16.4675 21.1517C16.4673 20.1069 17.3173 19.2569 18.3623 19.2569ZM14.3376 17.3536L13.6683 16.652H15.007L14.3376 17.3536ZM25.6746 9.59297H17.3588L25.1709 6.95813C25.4591 7.80669 25.6291 8.69229 25.6746 9.59297ZM25.0088 6.51498L17.6741 8.98898L23.3575 3.77047C23.6792 4.14687 23.9761 4.54569 24.2388 4.9702C24.5435 5.46312 24.798 5.98103 25.0088 6.51498ZM20.5217 1.49364C21.4667 1.9941 22.3174 2.64502 23.045 3.41694L16.8189 9.13355C16.8008 9.09959 16.7805 9.06657 16.7583 9.03449L17.9635 6.61969L18.5786 6.61474C18.709 6.6138 18.8137 6.5072 18.8125 6.37701C18.8113 6.24682 18.7012 6.14753 18.5748 6.14305L18.1998 6.14612L18.4562 5.63269L18.5705 5.63174C18.701 5.6308 18.8057 5.5242 18.8045 5.39401C18.8038 5.30369 18.7524 5.22822 18.6774 5.1893L20.5217 1.49364ZM18.4194 4.64969L18.163 5.16312L18.1062 5.1636C18.1062 5.14874 18.1078 5.13459 18.1076 5.11949C18.1062 4.95582 18.0977 4.80063 18.0828 4.65229L18.4194 4.64969ZM7.42105 10.1956C6.93969 10.1956 6.53286 9.90829 6.53286 9.56821C6.53286 9.22812 6.93969 8.94086 7.42105 8.94086C7.90264 8.94086 8.30924 9.22812 8.30924 9.56821C8.30924 9.90829 7.90264 10.1956 7.42105 10.1956ZM11.5948 9.8623C10.549 9.86867 9.60119 9.72693 8.77338 9.45194C8.70121 8.90054 8.12245 8.46941 7.42129 8.46941C7.2786 8.46941 7.1411 8.48757 7.01163 8.52059C6.41046 8.03192 5.97934 7.42368 5.73029 6.71828L5.94915 6.71663C6.07957 6.71568 6.18429 6.60908 6.18311 6.4789C6.18216 6.34918 6.07674 6.24494 5.94726 6.24494C5.94679 6.24494 5.94608 6.24494 5.94538 6.24494L5.59397 6.24777C5.55624 6.08197 5.5277 5.91169 5.50836 5.73693L5.94113 5.73339C6.07155 5.73245 6.17627 5.62585 6.17509 5.49566C6.17391 5.36548 6.06354 5.26359 5.93736 5.26171L5.47911 5.26548C5.47888 5.25062 5.4777 5.23624 5.4777 5.22138C5.47628 5.05558 5.4836 4.90087 5.49727 4.75394L5.93335 4.7504C6.06377 4.74945 6.16849 4.64285 6.16731 4.51267C6.16636 4.38248 6.06377 4.27564 5.92958 4.27871L5.57958 4.28154C5.63171 4.07376 5.70081 3.88485 5.79562 3.72165C5.80104 3.71221 5.80576 3.70254 5.81 3.6924C6.13641 2.89124 6.58876 1.99622 7.21469 0.757568L7.25973 0.668183C7.31044 0.56795 7.39393 0.5413 7.46798 0.5413C7.48543 0.5413 7.50218 0.542715 7.51798 0.545073C7.65878 0.565591 7.78 0.665825 7.80029 0.778086L8.10099 2.45446C8.12221 2.57215 8.23117 2.65658 8.34721 2.64809C8.65899 2.62946 8.99106 2.62262 9.33704 2.62097C9.45779 3.46835 9.69694 4.05065 9.96887 4.04829C10.2389 4.04617 10.4677 3.46788 10.5757 2.62757C10.687 2.62851 10.7969 2.62969 10.9101 2.6304C10.9599 3.92094 11.2611 4.92233 11.6179 4.9195C11.9749 4.91667 12.2601 3.90938 12.2889 2.61719C12.4011 2.6146 12.5124 2.61201 12.623 2.60918C12.7445 3.44878 12.9825 4.02424 13.2527 4.02211C13.5247 4.01999 13.7544 3.43416 13.8615 2.58488C14.1612 2.58276 14.4508 2.58488 14.7244 2.59691C14.8473 2.60351 14.9485 2.5172 14.9676 2.39927L15.2419 0.714173C15.2602 0.60144 15.3798 0.499319 15.5204 0.476678C15.6036 0.463235 15.7161 0.472669 15.7808 0.595779L15.8298 0.689173C16.4781 1.9224 16.9463 2.81318 17.2859 3.61245C17.2902 3.62212 17.2949 3.63156 17.3001 3.64052C17.3944 3.79971 17.4642 3.98391 17.5187 4.18579L17.1703 4.18862C17.0399 4.18956 16.9352 4.29616 16.9364 4.42635C16.9373 4.55606 17.0428 4.66031 17.1722 4.66031C17.1727 4.66031 17.1734 4.66031 17.1741 4.66031L17.609 4.65677C17.6253 4.80346 17.6352 4.95818 17.6364 5.12397C17.6364 5.13883 17.635 5.15322 17.635 5.16808L17.1784 5.17185C17.0479 5.17279 16.9432 5.2794 16.9444 5.40958C16.9454 5.53929 17.0508 5.64354 17.1803 5.64354C17.1807 5.64354 17.1814 5.64354 17.1821 5.64354L17.6095 5.64C17.5918 5.81405 17.563 5.98457 17.5253 6.15225L17.1866 6.15508C17.0562 6.15602 16.9515 6.26263 16.9527 6.39281C16.9536 6.52253 17.059 6.62677 17.1885 6.62677C17.189 6.62677 17.1897 6.62677 17.1904 6.62677L17.3909 6.62512C17.2069 7.1461 16.9206 7.63712 16.5232 8.1048C16.3739 8.2805 16.2166 8.42507 16.0661 8.54653C15.9124 8.49771 15.7456 8.46988 15.5709 8.46988C14.8612 8.46988 14.278 8.91138 14.2171 9.47222C13.4322 9.72009 12.5457 9.85476 11.5948 9.8623ZM15.5704 10.1956C15.0888 10.1956 14.6822 9.90829 14.6822 9.56821C14.6822 9.22812 15.089 8.94086 15.5704 8.94086C16.0517 8.94086 16.4586 9.22812 16.4586 9.56821C16.4586 9.90829 16.0517 10.1956 15.5704 10.1956Z" fill="#3A2C60"/>
<path d="M21.1504 16.1804H19.8943C19.7641 16.1804 19.6584 16.2861 19.6584 16.4163C19.6584 16.5464 19.7641 16.6521 19.8943 16.6521H21.1504C21.2806 16.6521 21.3862 16.5464 21.3862 16.4163C21.3862 16.2861 21.2808 16.1804 21.1504 16.1804Z" fill="#3A2C60"/>
<path d="M13.7622 6.83529C13.7617 6.83529 13.761 6.83529 13.7603 6.83529C13.6301 6.83623 13.5254 6.94283 13.5263 7.07302C13.5282 7.31358 13.4365 7.54046 13.2676 7.71192C13.0987 7.88361 12.8733 7.97889 12.6327 7.98101C12.391 7.9796 12.1653 7.89092 11.9938 7.72229C11.8221 7.55343 11.7268 7.32796 11.7247 7.0874C11.7247 7.08457 11.7233 7.08198 11.7231 7.07915C12.133 7.04802 12.437 6.94731 12.436 6.82939C12.4348 6.68977 12.0099 6.5801 11.4868 6.58435C10.9636 6.58859 10.5403 6.7051 10.5415 6.84448C10.5424 6.96217 10.8462 7.05769 11.2547 7.08245C11.2547 7.08552 11.253 7.08811 11.253 7.09118C11.257 7.58786 10.8561 7.99516 10.3592 7.99941C10.1134 7.99116 9.89151 7.90955 9.72028 7.74069C9.54859 7.57183 9.45331 7.34636 9.45119 7.1058C9.45024 6.97632 9.34482 6.87184 9.21534 6.87184C9.21487 6.87184 9.21416 6.87184 9.21346 6.87184C9.08327 6.87278 8.97856 6.97939 8.9795 7.10957C8.98256 7.47607 9.12808 7.8197 9.3894 8.077C9.64812 8.33148 9.98938 8.4711 10.3519 8.4711C10.3556 8.4711 10.3594 8.4711 10.3632 8.4711C10.8356 8.46732 11.2509 8.22393 11.495 7.85767C11.5443 7.92889 11.5997 7.99658 11.6629 8.05861C11.9216 8.31308 12.2629 8.4527 12.6254 8.4527C12.6292 8.4527 12.633 8.4527 12.6367 8.4527C13.0032 8.44964 13.3468 8.30412 13.6042 8.0428C13.8612 7.78149 14.0013 7.43574 13.9982 7.06901C13.9968 6.93976 13.8914 6.83529 13.7622 6.83529Z" fill="#3A2C60"/>
<path d="M9.17713 5.69623C9.17713 5.35426 8.89977 5.0769 8.5578 5.0769C8.21583 5.0769 7.93848 5.35426 7.93848 5.69623C7.93848 6.0382 8.21583 6.31555 8.5578 6.31555C8.89977 6.31555 9.17713 6.0382 9.17713 5.69623Z" fill="#3A2C60"/>
<path d="M14.4958 6.31555C14.8378 6.31555 15.1151 6.0382 15.1151 5.69623C15.1151 5.35426 14.8378 5.0769 14.4958 5.0769C14.1538 5.0769 13.8765 5.35426 13.8765 5.69623C13.8765 6.0382 14.1538 6.31555 14.4958 6.31555Z" fill="#3A2C60"/>
</svg>
