<svg width="20" height="21" viewBox="0 0 20 21" fill="none" xmlns="http://www.w3.org/2000/svg">
<path d="M12.618 17.9306V14.0634L12.7994 13.9329C14.0519 13.0315 14.7996 11.5745 14.7996 10.0355C14.7996 8.74085 14.2919 7.52716 13.3699 6.61794C12.4482 5.70899 11.2283 5.21725 9.93158 5.23636C7.39312 5.2717 5.27161 7.36423 5.20224 9.90104C5.15878 11.4938 5.90577 13.0011 7.20061 13.9329L7.38204 14.0634V17.9306L6.77589 17.6744C5.93972 17.321 5.17449 16.8378 4.49705 16.2356L2.61805 17.3205L8.73007e-05 12.7861L1.87813 11.7018C1.76625 11.155 1.70979 10.5958 1.70979 10.0355C1.70979 9.47518 1.76625 8.91607 1.87804 8.36918L0 7.285L2.61796 2.7506L4.49713 3.83549C5.33602 3.09111 6.32272 2.52066 7.38204 2.16767V0H12.618V2.16767C13.6773 2.52057 14.664 3.09111 15.5029 3.8354L17.382 2.75052L20 7.28491L18.122 8.3691C18.2337 8.91599 18.2902 9.47501 18.2902 10.0354C18.2902 10.5958 18.2337 11.1549 18.122 11.7018L20 12.786L17.382 17.3204L15.503 16.2355C14.8255 16.8377 14.0604 17.3209 13.2242 17.6743L12.618 17.9306ZM13.4906 14.505V16.5816C14.0918 16.2609 14.6447 15.8593 15.1404 15.3826L15.3769 15.1552L17.0626 16.1285L18.8079 13.1055L17.1238 12.1332L17.2022 11.8149C17.345 11.2348 17.4175 10.6362 17.4175 10.0356C17.4175 9.43504 17.345 8.8364 17.2022 8.25626L17.1238 7.93792L18.8079 6.96569L17.0626 3.94274L15.3769 4.91592L15.1404 4.6885C14.2739 3.85521 13.2089 3.23964 12.0606 2.9082L11.7453 2.81719V0.872653H8.25469V2.81719L7.9394 2.90812C6.79108 3.23955 5.72609 3.85512 4.85963 4.68842L4.62315 4.91583L2.93735 3.94265L1.19204 6.96561L2.87609 7.93783L2.79773 8.25617C2.65487 8.83631 2.58244 9.43495 2.58244 10.0355C2.58244 10.6361 2.65487 11.2347 2.79773 11.8149L2.87609 12.1331L1.19204 13.1054L2.93735 16.1284L4.62306 15.1551L4.85955 15.3825C5.3553 15.8593 5.90821 16.2608 6.5093 16.5815V14.505C5.0915 13.3967 4.28045 11.6836 4.32976 9.87713C4.36973 8.41596 4.97081 7.04022 6.02236 6.00316C7.07373 4.96627 8.45767 4.38404 9.91937 4.3637C11.4478 4.34337 12.8933 4.92229 13.9826 5.99653C15.072 7.07094 15.6721 8.5054 15.6721 10.0354C15.6722 11.7789 14.8608 13.4329 13.4906 14.505Z" fill="black"/>
<path d="M12.6178 10.0356C12.6178 8.58966 11.4457 7.4176 9.9998 7.4176C8.5539 7.4176 7.38184 8.58966 7.38184 10.0356C7.38184 11.0044 7.90857 11.8497 8.69082 12.3025V19.6348H11.3088V12.3025C12.091 11.8497 12.6178 11.0044 12.6178 10.0356Z" fill="#FFC44D"/>
<path d="M11.7452 20.071H8.25454V12.5413C7.44131 11.9734 6.94556 11.0353 6.94556 10.0355C6.94556 8.35135 8.31571 6.9812 9.99984 6.9812C11.684 6.9812 13.0541 8.35135 13.0541 10.0355C13.0541 11.0353 12.5584 11.9734 11.7452 12.5413V20.071ZM9.12719 19.1983H10.8725V12.0507L11.0903 11.9247C11.7634 11.5351 12.1815 10.8113 12.1815 10.0355C12.1815 8.83254 11.2028 7.85385 9.99984 7.85385C8.79689 7.85385 7.81821 8.83254 7.81821 10.0355C7.81821 10.8113 8.2363 11.5352 8.90938 11.9247L9.12719 12.0507V19.1983Z" fill="black"/>
<path d="M10.4361 7.4176H9.56348V10.0356H10.4361V7.4176Z" fill="black"/>
</svg>
