<svg width="20" height="22" viewBox="0 0 20 22" fill="none" xmlns="http://www.w3.org/2000/svg">
<path d="M8.9954 2.71645V6.96331C8.9954 7.64931 8.43944 8.20611 7.75344 8.20611H2.60553C1.98621 8.20611 1.42608 7.95521 1.02015 7.54928C-0.104206 6.42493 0.2648 4.50155 1.75366 3.8884C2.01622 3.78087 2.30379 3.72086 2.60553 3.72086H3.03647C3.174 3.72086 3.2982 3.66501 3.38822 3.57416C3.47741 3.48497 3.53325 3.36077 3.53325 3.22407V2.71645C3.53325 1.41947 4.58517 0.367554 5.88215 0.367554H6.64734C7.94432 0.367554 8.9954 1.41947 8.9954 2.71645Z" fill="#B76C6C"/>
<path d="M6.88988 0.380057C5.7071 0.501753 4.78354 1.50116 4.78354 2.71645V3.22407C4.78354 3.36077 4.7277 3.48497 4.63851 3.57416C4.54849 3.66501 4.42429 3.72086 4.28676 3.72086H3.85582C3.55408 3.72086 3.26651 3.78087 3.00395 3.8884C1.51526 4.50188 1.146 6.42484 2.27044 7.54928C2.67637 7.95521 3.2365 8.20611 3.85582 8.20611H2.60552C1.9862 8.20611 1.42607 7.95521 1.02014 7.54928C-0.1043 6.42484 0.264956 4.50188 1.75365 3.8884C2.01621 3.78087 2.30378 3.72086 2.60552 3.72086H3.03646C3.17399 3.72086 3.29819 3.66501 3.38821 3.57416C3.4774 3.48497 3.53324 3.36077 3.53324 3.22407V2.71645C3.53324 1.41947 4.58516 0.367554 5.88214 0.367554H6.64732C6.72901 0.367554 6.80986 0.371721 6.88988 0.380057Z" fill="#C98585"/>
<path d="M8.21874 0.603375C7.83581 0.299968 7.28318 0.641967 7.38387 1.12008L9.37819 7.86537C9.39202 7.8953 9.40686 7.92497 9.42578 7.95189C9.68684 8.32348 10.2574 8.27955 10.4578 7.87079C10.4709 7.84412 10.4802 7.81578 10.4887 7.78735L11.3784 4.78496C11.4958 4.38895 11.3933 3.96043 11.1095 3.66036L8.21874 0.603375Z" fill="#B76C6C"/>
<path d="M19.5902 12.8073C19.1326 12.2447 18.6858 11.9646 18.224 11.9646C18.1048 11.9646 17.9839 11.9829 17.8622 12.0204C17.2779 12.2005 16.8945 12.7631 16.8945 13.3749V13.4516C16.8945 13.9192 16.7536 14.3702 16.4978 14.7486C16.4319 14.8461 16.316 14.9303 16.186 15.0003C15.8834 15.1645 15.5392 15.2387 15.1949 15.2387H14.248L14.7248 17.1233H16.0526C16.7612 17.1233 17.403 16.8358 17.8681 16.3715C18.3324 15.9064 18.6199 15.2646 18.6199 14.5552V13.9401C18.6199 13.4866 18.9875 13.1199 19.441 13.1199C19.5552 13.1199 19.6335 13.0265 19.6335 12.9273C19.6335 12.8857 19.6202 12.844 19.5902 12.8073Z" fill="#965959"/>
<path d="M3.98834 11.2352L2.52798 18.8396H1.196C0.701711 18.8396 0.300781 19.2405 0.300781 19.7348V19.824C0.300781 20.3191 0.701711 20.72 1.196 20.72H2.16706H3.06978C3.56407 20.72 3.965 20.3191 3.965 19.824L5.11902 14.4104L3.98834 11.2352Z" fill="#B76C6C"/>
<path d="M12.9792 13.7072L8.64257 10.3722H3.98804V12.5855L7.46979 18.2027C7.64192 18.4803 7.4422 18.839 7.11554 18.839H6.53257C6.03795 18.839 5.63693 19.24 5.63693 19.7346V19.8242C5.63693 20.3188 6.03795 20.7198 6.53257 20.7198H7.50305H8.40593H12.9315C13.049 20.7198 13.1617 20.6738 13.2454 20.5915L13.3878 20.4515C15.3276 18.5457 15.135 15.365 12.9792 13.7072Z" fill="#B76C6C"/>
<path d="M8.64266 10.3722H3.98804V8.55939C3.98804 8.36426 4.14624 8.20605 4.34137 8.20605H8.28932C8.48445 8.20605 8.64266 8.36426 8.64266 8.55939V10.3722Z" fill="#FF4A73"/>
<path d="M4.2147 8.20617H2.60598C1.98666 8.20617 1.42653 7.95527 1.02059 7.54934C0.614663 7.14341 0.36377 6.58244 0.36377 5.96313C0.36377 5.77058 0.387942 5.58304 0.433786 5.40383C0.610496 4.71533 1.10645 4.15519 1.7541 3.88846C2.01667 3.78094 2.30424 3.72092 2.60598 3.72092H3.03691C3.17445 3.72092 3.29864 3.66507 3.38866 3.57422V3.57505C3.38866 3.57505 5.95845 5.73641 4.2147 8.20617Z" fill="#FFBB98"/>
<path d="M8.36649 18.8396H7.78302C7.28873 18.8396 6.8878 19.2405 6.8878 19.7348V19.824C6.8878 20.3191 7.28873 20.72 7.78302 20.72H6.53271C6.03843 20.72 5.6375 20.3191 5.6375 19.824V19.7348C5.6375 19.2405 6.03843 18.8396 6.53271 18.8396H7.11619C7.44293 18.8396 7.64215 18.4803 7.47044 18.2028L3.98877 12.5856V10.3726H5.23907V12.5856L8.72074 18.2028C8.89245 18.4803 8.69323 18.8396 8.36649 18.8396Z" fill="#C98585"/>
<path d="M13.2457 20.5917C13.0727 20.7612 13.0089 20.72 11.6811 20.72C11.7986 20.72 11.9112 20.6742 11.9954 20.5917C14.2532 18.3736 13.7459 15.2585 11.7295 13.7075L7.39258 10.3726H8.64288L12.9798 13.7075C15.0048 15.2652 15.4966 18.3804 13.2457 20.5917Z" fill="#965959"/>
<path d="M5.59249 8.20618C5.39661 8.20618 5.23907 8.36455 5.23907 8.5596V10.3725H3.98877V8.5596C3.98877 8.36455 4.14631 8.20618 4.34219 8.20618H5.59249Z" fill="#F973A3"/>
<path d="M8.64278 8.5596V10.3725H7.39248V8.5596C7.39248 8.36455 7.23411 8.20618 7.03906 8.20618H8.28936C8.48441 8.20618 8.64278 8.36455 8.64278 8.5596Z" fill="#EA2A6A"/>
<path d="M10.5479 7.59105C10.5097 7.71975 10.4841 7.8171 10.4587 7.87112C10.2412 8.31347 9.59484 8.32356 9.37846 7.86528L7.38464 1.12032C7.28378 0.641876 7.83642 0.300127 8.21901 0.603533L8.62411 1.03197C8.62494 1.06114 8.62828 1.09032 8.63494 1.12032L10.5479 7.59105Z" fill="#C98585"/>
<path d="M3.85565 8.20617C2.64753 8.20617 1.81441 8.34378 1.01997 7.54934C0.658134 7.18751 0.464004 6.71764 0.464004 6.62995C0.0113114 5.31739 1.00813 3.72092 2.60535 3.72092H3.03629C3.17382 3.72092 3.29802 3.66507 3.38804 3.57422V3.57505C3.38804 3.57505 3.45722 3.6334 3.56475 3.74093C3.36887 3.7651 3.18049 3.81594 3.00378 3.88846C1.51509 4.50194 1.14583 6.4249 2.27027 7.54934C2.6762 7.95527 3.23634 8.20617 3.85565 8.20617Z" fill="#FFCAA6"/>
<path d="M3.85564 8.20617C2.64752 8.20617 1.8144 8.34378 1.01996 7.54934C0.658123 7.18751 0.463993 6.71764 0.463993 6.62995C0.0120512 5.31964 1.00446 3.72092 2.60534 3.72092H3.03628C3.17381 3.72092 3.29801 3.66507 3.38803 3.57422V3.57505C3.38803 3.57505 3.45721 3.6334 3.56474 3.74093C3.36886 3.7651 3.18048 3.81594 3.00377 3.88846C1.51508 4.50194 1.14582 6.4249 2.27026 7.54934C2.67619 7.95527 3.23633 8.20617 3.85564 8.20617Z" fill="#FFCAA6"/>
<path d="M2.09794 4.36138V4.52884C2.09794 5.07797 1.65266 5.52274 1.10403 5.52274H0.903231C0.732773 5.52274 0.572734 5.47998 0.432617 5.40396C0.609576 4.71513 1.10553 4.15458 1.75352 3.88818C1.95332 3.95287 2.09794 4.13974 2.09794 4.36138Z" fill="#B76C6C"/>
<path d="M5.4905 2.40315C5.55126 2.45017 5.62319 2.473 5.69446 2.473C5.79399 2.473 5.89259 2.42858 5.95828 2.34381C6.07105 2.19819 6.04446 1.9888 5.89893 1.87603C5.20751 1.34031 4.55177 1.65764 4.30171 1.90028C4.16951 2.02848 4.16634 2.23953 4.29454 2.37173C4.42282 2.50393 4.63379 2.5071 4.76599 2.3789C4.79758 2.34831 5.0854 2.08916 5.4905 2.40315Z" fill="#5F266D"/>
<path d="M5.56539 3.4387C5.56539 3.17339 5.35025 2.95825 5.08494 2.95825C4.81963 2.95825 4.60449 3.17339 4.60449 3.4387C4.60449 3.70401 4.81963 3.91915 5.08494 3.91915C5.35025 3.91915 5.56539 3.70401 5.56539 3.4387Z" fill="#5F266D"/>
<path d="M19.8815 12.5622C18.3207 10.6421 16.594 11.9563 16.594 13.3399C16.594 13.7663 16.5146 14.1422 16.2539 14.5268C16.2439 14.5418 16.2006 14.5968 16.0597 14.6727C15.6134 14.9146 15.2382 14.8702 14.4243 14.8702C14.0992 14.2734 13.65 13.7425 13.0982 13.3182L9.00884 10.1733V8.52455C9.00884 8.35951 8.94965 8.20781 8.85213 8.08861C8.93215 8.01443 9.00383 7.93274 9.06718 7.84439C9.338 8.75044 10.5901 8.69551 10.8409 7.84772L11.7303 4.8445C11.8812 4.33688 11.7487 3.78174 11.3844 3.39665C11.3513 3.36164 8.49546 0.337665 8.45787 0.307574C8.21781 0.117528 7.90774 0.0708504 7.631 0.175042C7.3351 0.0616815 7.01502 0 6.67994 0H5.91476C4.43607 0 3.23244 1.20279 3.23244 2.68148V3.1891C3.23244 3.4084 2.95538 3.35247 2.63814 3.35247C1.21638 3.35247 0.0616815 4.50975 0.0616815 5.92809C0.0616815 6.61659 0.330079 7.26341 0.816863 7.7502C1.30365 8.23698 1.95047 8.50455 2.63814 8.50455H3.68839C3.68755 8.51122 3.68755 8.51788 3.68755 8.52455C3.68755 10.3584 3.72706 10.9583 3.53335 11.9729L2.28555 18.4711H1.22863C0.607896 18.4711 0 18.9361 0 19.7889C0 20.4674 0.551799 21.0184 1.22946 21.0184H3.10241C3.76757 21.0184 4.3102 20.4874 4.33021 19.8273L5.30461 15.2562L7.21924 18.3436C7.25333 18.3994 7.21357 18.4711 7.14839 18.4711H6.56491C5.88725 18.4711 5.33629 19.0221 5.33629 19.6997C5.33629 20.5584 5.94968 21.0184 6.56491 21.0184H12.9114C13.1515 21.0184 13.3782 20.9259 13.5491 20.7583C14.4518 19.8698 14.9761 18.6753 15.0228 17.4217C16.0977 17.4217 17.1446 17.5616 18.1369 16.5723C19.0445 15.6633 18.9862 14.7065 18.9862 13.905C18.9862 13.6366 19.2046 13.4182 19.4739 13.4182C19.918 13.4182 20.1594 12.8999 19.8815 12.5622ZM8.0286 0.819364C9.66783 2.55211 8.99942 1.84553 10.9001 3.85509C11.101 4.06765 11.1744 4.37439 11.091 4.65529C11.0889 4.66221 10.1948 7.68327 10.1908 7.68935C10.1017 7.87139 9.8457 7.88973 9.73151 7.72519C9.72351 7.72119 7.74361 1.01466 7.74103 1.00608C7.71177 0.850121 7.89382 0.728259 8.0286 0.819364ZM3.89927 3.1891V2.68148C3.89927 1.57038 4.80366 0.666827 5.91476 0.666827C6.7327 0.666827 6.8464 0.654741 7.11171 0.713505C6.99118 1.0911 6.95551 0.702752 8.69459 6.58325V6.92917C8.69459 7.43012 8.28699 7.83772 7.78604 7.83772H4.83533C5.84641 5.81557 4.40689 4.06098 3.84426 3.48501C3.8801 3.39332 3.89927 3.29329 3.89927 3.1891ZM8.34201 8.52455V10.0041H4.35438V8.52455C4.35438 8.51372 4.36272 8.50455 4.37355 8.50455C5.1855 8.50455 7.53715 8.50455 8.322 8.50455C8.33284 8.50455 8.34201 8.51372 8.34201 8.52455ZM1.76626 4.23018C1.81044 4.2897 1.7971 4.3523 1.7971 4.49442C1.7971 4.85867 1.50119 5.15457 1.13694 5.15457C1.11368 5.15457 0.916721 5.15507 0.893548 5.15374C0.924306 5.06147 1.19187 4.51784 1.76626 4.23018ZM1.28781 7.27842C1.09676 7.08654 0.953813 6.86699 0.856206 6.61534C1.7921 7.45063 3.28212 6.78538 3.28212 5.52916C3.28212 5.34504 3.13284 5.19575 2.94871 5.19575C2.76458 5.19575 2.6153 5.34504 2.6153 5.52916C2.6153 6.39454 1.41334 6.62885 1.09068 5.8214C1.93021 5.8214 2.46401 5.18091 2.46401 4.49442C2.46401 4.31537 2.47335 4.19768 2.41066 4.03347C2.76925 3.98563 3.09408 4.07406 3.3784 3.95929C3.72423 4.31187 3.99896 4.69863 4.18943 5.07872C4.65545 6.01078 4.64178 6.94084 4.06856 7.83772C2.64672 7.83772 1.97481 7.96542 1.28781 7.27842ZM13.0815 20.2824C13.0356 20.3274 12.9756 20.3516 12.9114 20.3516H6.56491C5.81273 20.3516 5.81515 19.1379 6.56491 19.1379H7.14839C7.73486 19.1379 8.09553 18.491 7.78604 17.9927L5.43464 14.2001C5.27652 13.9445 4.88751 14.015 4.82533 14.3059C4.81433 14.3576 3.66422 19.7361 3.66422 19.7889C3.66422 20.0998 3.41249 20.3516 3.10241 20.3516H1.22946C0.479115 20.3516 0.476198 19.1379 1.22863 19.1379H2.56062C2.72065 19.1379 2.85819 19.0246 2.8882 18.8679L4.18767 12.0987C4.27853 11.6286 4.33188 11.1502 4.34855 10.6709H8.56206L12.6922 13.8467C14.7515 15.4314 14.9278 18.4692 13.0815 20.2824ZM18.3194 13.905C18.3194 14.5698 18.4058 15.3599 17.6651 16.1005C16.8894 16.8762 16.0975 16.7549 15.0028 16.7549C14.9628 16.3348 14.8686 15.9263 14.726 15.5371C15.2902 15.5371 15.7956 15.575 16.3773 15.2595C16.5757 15.152 16.7165 15.0353 16.8065 14.9003C17.148 14.3962 17.2608 13.8893 17.2608 13.3399C17.2608 12.7379 17.7318 12.263 18.2569 12.263C18.557 12.263 18.8645 12.4347 19.193 12.7864C18.692 12.9114 18.3194 13.3657 18.3194 13.905Z" fill="#5F266D"/>
<path d="M11.2701 13.7016L10.9675 13.4891C10.8175 13.3832 10.6091 13.419 10.5032 13.5691C10.3974 13.7199 10.4332 13.9283 10.5832 14.0342C10.8973 14.2547 10.9419 14.3076 11.0775 14.3076C11.4011 14.3076 11.535 13.8901 11.2701 13.7016Z" fill="#5F266D"/>
<path d="M9.94575 12.7689L8.58375 11.8079C8.43289 11.702 8.22533 11.7378 8.11864 11.8887C8.01278 12.0387 8.04863 12.2471 8.1995 12.353C9.68094 13.3983 9.60925 13.3749 9.7532 13.3749C10.0774 13.3749 10.2121 12.9559 9.94575 12.7689Z" fill="#5F266D"/>
</svg>
