<svg width="13" height="22" viewBox="0 0 13 22" fill="none" xmlns="http://www.w3.org/2000/svg">
<path d="M12.1105 19.9198H0.341309V1.19366C0.341309 0.722637 0.723126 0.34082 1.19415 0.34082H11.2577C11.7287 0.34082 12.1105 0.722637 12.1105 1.19366V19.9198Z" fill="#FFE2E2"/>
<path d="M12.1105 2.42676H0.341309V3.95641H12.1105V2.42676Z" fill="#44C7B6"/>
<path d="M12.1105 14.4517H0.341309V15.9813H12.1105V14.4517Z" fill="#44C7B6"/>
<path d="M6.22609 12.6836C8.14777 12.6836 9.70559 11.1258 9.70559 9.20411C9.70559 7.28244 8.14777 5.72461 6.22609 5.72461C4.30441 5.72461 2.74658 7.28244 2.74658 9.20411C2.74658 11.1258 4.30441 12.6836 6.22609 12.6836Z" fill="#44C7B6"/>
<path d="M5.45773 9.44714C5.80049 8.85356 6.65725 8.85356 7.00001 9.44714C7.003 9.45234 7.30976 9.98357 7.3072 9.97914C7.64996 10.5727 7.22149 11.3148 6.53607 11.3148C6.5301 11.3148 5.91656 11.3148 5.92176 11.3148C5.23634 11.3148 4.80795 10.5727 5.15063 9.97914C5.15361 9.97394 5.46029 9.4427 5.45773 9.44714Z" fill="#B76C6C"/>
<path d="M12.1106 1.19415V19.92H10.8314V1.19415C10.8314 0.723381 10.4493 0.341309 9.97852 0.341309H11.2578C11.7285 0.341309 12.1106 0.723381 12.1106 1.19415Z" fill="#FFCFCF"/>
<path d="M12.1108 2.42627H10.8315V3.95627H12.1108V2.42627Z" fill="#3BB2A0"/>
<path d="M12.1108 14.4512H10.8315V15.9812H12.1108V14.4512Z" fill="#3BB2A0"/>
<path d="M6.86789 11.2515C6.7664 11.2924 6.65468 11.3146 6.53528 11.3146H5.92124C5.23555 11.3146 4.80743 10.5726 5.15027 9.97906L5.45729 9.44689C5.76261 8.91813 6.47558 8.86013 6.86789 9.27291C6.81843 9.32408 6.77408 9.38207 6.73655 9.44689L6.42953 9.97906C6.14639 10.4694 6.38945 11.0605 6.86789 11.2515Z" fill="#C98585"/>
<path d="M11.2575 0H1.19398C0.535584 0 0 0.535584 0 1.19398C0 1.80359 0 19.3245 0 19.9744C0 20.7846 0.659246 21.4438 1.46945 21.4438H10.982C11.7922 21.4438 12.4515 20.7846 12.4515 19.9744C12.4515 19.019 12.4515 1.99548 12.4515 1.19398C12.4515 0.535584 11.9159 0 11.2575 0ZM10.982 20.7616H1.46945C1.13684 20.7616 0.851135 20.5535 0.736855 20.2609C0.650462 20.0418 0.665216 19.7904 0.789731 19.5787C0.926186 19.345 1.17948 19.1872 1.46945 19.1872H10.982C12.029 19.1872 12.0128 20.7616 10.982 20.7616ZM0.682273 1.19398C0.682273 0.911687 0.911687 0.682273 1.19398 0.682273H11.2575C11.5398 0.682273 11.7692 0.911687 11.7692 1.19398V2.0852H0.682273V1.19398ZM11.7692 14.7925V15.6403H0.682273V14.7925H11.7692ZM11.7692 14.1103H0.682273V4.29747H11.7692V14.1103ZM0.682273 3.61519V2.76747H11.7692V3.61519H0.682273ZM11.7692 18.7344C11.5415 18.5885 11.2711 18.5049 10.982 18.5049H1.46945C1.18033 18.5049 0.909981 18.5885 0.682273 18.7344V16.3225H11.7692V18.7344Z" fill="#5F266D"/>
<path d="M6.226 13.0248C8.33252 13.0248 10.0467 11.3105 10.0467 9.20403C10.0467 7.09751 8.33252 5.3833 6.226 5.3833C4.11948 5.3833 2.40527 7.09751 2.40527 9.20403C2.40527 11.3105 4.11948 13.0248 6.226 13.0248ZM6.226 6.06557C7.95642 6.06557 9.36446 7.47361 9.36446 9.20403C9.36446 10.9344 7.95642 12.3425 6.226 12.3425C4.49559 12.3425 3.08755 10.9344 3.08755 9.20403C3.08755 7.47361 4.49559 6.06557 6.226 6.06557Z" fill="#5F266D"/>
<path d="M4.85498 9.8087C4.37944 10.6291 4.97344 11.656 5.92103 11.656H6.53508C7.48335 11.656 8.07642 10.6303 7.60198 9.8087C7.28643 9.26177 7.19228 9.02417 6.84466 8.82367C6.47589 8.61003 5.9948 8.60261 5.61145 8.82367C5.26511 9.02434 5.16849 9.26527 4.85498 9.8087ZM6.70394 9.61766L7.01096 10.1498C7.22307 10.516 6.9586 10.9737 6.53508 10.9737H5.92103C5.49871 10.9737 5.23381 10.5178 5.44515 10.1498L5.75302 9.61766C5.96521 9.25 6.49337 9.25282 6.70394 9.61766Z" fill="#5F266D"/>
<path d="M5.78934 8.45079C6.03837 8.35954 6.13133 7.98684 5.99658 7.61756C5.86269 7.24828 5.5514 7.02228 5.30322 7.11268C5.05419 7.20394 4.96123 7.57663 5.09598 7.94591C5.22988 8.31519 5.54117 8.54119 5.78934 8.45079Z" fill="#5F266D"/>
<path d="M6.661 8.45079C6.91003 8.54119 7.22132 8.31519 7.35521 7.94591C7.48996 7.57663 7.397 7.20394 7.14797 7.11268C6.89894 7.02228 6.58851 7.24828 6.45376 7.61756C6.31986 7.98684 6.41197 8.35954 6.661 8.45079Z" fill="#5F266D"/>
<path d="M4.82169 9.44407C5.07072 9.35367 5.16282 8.98098 5.02893 8.6117C4.89418 8.24242 4.58375 8.01642 4.33472 8.10682C4.08569 8.19722 3.99273 8.56991 4.12748 8.94005C4.26223 9.30933 4.57266 9.53533 4.82169 9.44407Z" fill="#5F266D"/>
<path d="M7.63073 9.44407C7.87976 9.53533 8.19019 9.30933 8.32494 8.94005C8.45969 8.56991 8.36673 8.19722 8.1177 8.10682C7.86867 8.01642 7.55823 8.24242 7.42349 8.6117C7.28959 8.98098 7.3817 9.35367 7.63073 9.44407Z" fill="#5F266D"/>
</svg>
