<svg width="27" height="27" viewBox="0 0 27 27" fill="none" xmlns="http://www.w3.org/2000/svg">
<circle cx="13.9194" cy="13.3335" r="12.6263" fill="white" stroke="black" stroke-width="0.747468"/>
<path d="M18.6952 10.6415C18.6952 10.9082 18.6182 11.1568 18.484 11.3657H10.7962C10.662 11.1568 10.585 10.9082 10.585 10.6415C10.585 9.95586 11.0967 9.3904 11.7591 9.30403C11.6908 9.14297 11.6529 8.96557 11.6529 8.77883C11.6529 8.03422 12.2568 7.43024 13.002 7.43024C13.1013 7.43024 13.1987 7.44132 13.2921 7.46175C13.2915 7.45124 13.2909 7.44074 13.2909 7.43024C13.2909 6.68503 13.8949 6.08105 14.6401 6.08105C15.3853 6.08105 15.9893 6.68503 15.9893 7.43024C15.9893 7.44074 15.9887 7.45124 15.9881 7.46175C16.0815 7.44132 16.1789 7.43024 16.2781 7.43024C17.0233 7.43024 17.6273 8.03422 17.6273 8.77883C17.6273 8.96557 17.5894 9.14297 17.5211 9.30403C18.1834 9.3904 18.6952 9.95586 18.6952 10.6415Z" fill="#B76C6C"/>
<path d="M18.6949 10.6415C18.6949 10.9082 18.6179 11.1568 18.4837 11.3657H17.6084C17.7426 11.1568 17.8196 10.9082 17.8196 10.6415C17.8196 9.95586 17.3078 9.3904 16.6455 9.30403C16.7138 9.14297 16.7517 8.96557 16.7517 8.77883C16.7517 8.03422 16.1477 7.43024 15.4025 7.43024C15.3033 7.43024 15.2059 7.44132 15.1125 7.46175C15.1131 7.45124 15.1137 7.44074 15.1137 7.43024C15.1137 6.83851 14.7326 6.33548 14.2021 6.154C14.3393 6.10673 14.4863 6.08105 14.6398 6.08105C15.385 6.08105 15.989 6.68503 15.989 7.43024C15.989 7.44074 15.9884 7.45124 15.9878 7.46175C16.0812 7.44132 16.1787 7.43024 16.2779 7.43024C17.0231 7.43024 17.627 8.03422 17.627 8.77883C17.627 8.96557 17.5891 9.14297 17.5208 9.30403C18.1832 9.3904 18.6949 9.95586 18.6949 10.6415Z" fill="#965959"/>
<path d="M14.1662 7.43024C14.1662 7.44074 14.1668 7.45124 14.1674 7.46175C14.074 7.44132 13.9766 7.43024 13.8774 7.43024C13.1322 7.43024 12.5282 8.03422 12.5282 8.77883C12.5282 8.96557 12.5661 9.14297 12.6344 9.30403C11.9721 9.3904 11.4603 9.95586 11.4603 10.6415C11.4603 10.9082 11.5373 11.1568 11.6715 11.3657H10.7962C10.662 11.1568 10.585 10.9082 10.585 10.6415C10.585 9.95586 11.0967 9.3904 11.7591 9.30403C11.6908 9.14297 11.6529 8.96557 11.6529 8.77883C11.6529 8.03422 12.2568 7.43024 13.002 7.43024C13.1013 7.43024 13.1987 7.44132 13.2921 7.46175C13.2915 7.45124 13.2909 7.44074 13.2909 7.43024C13.2909 6.68503 13.8949 6.08105 14.6401 6.08105C14.7936 6.08105 14.9406 6.10673 15.0778 6.154C14.5473 6.33548 14.1662 6.83851 14.1662 7.43024Z" fill="#C98585"/>
<path d="M20.8446 16.9947H8.43018L10.0806 11.3719C10.1536 11.1234 10.3816 10.9526 10.6406 10.9526H18.6343C18.8933 10.9526 19.1213 11.1233 19.1942 11.3719L20.8446 16.9947Z" fill="#FF4A73"/>
<path d="M13.8344 13.798C14.1928 13.1774 15.0887 13.1774 15.447 13.798L15.6076 14.0761L15.7682 14.3543C16.1265 14.9749 15.6786 15.7508 14.9619 15.7508H14.6407H14.3196C13.6029 15.7508 13.155 14.9749 13.5133 14.3543L13.6739 14.0761L13.8344 13.798Z" fill="#FFBB98"/>
<path d="M11.516 10.9536C11.2569 10.9536 11.0288 11.124 10.9558 11.3726L9.30551 16.9952H8.43018L10.0805 11.3726C10.1534 11.124 10.3816 10.9536 10.6407 10.9536H11.516Z" fill="#F973A3"/>
<path d="M20.8446 16.9952H19.9693L18.319 11.3726C18.2461 11.124 18.0179 10.9536 17.7588 10.9536H18.6341C18.8932 10.9536 19.1214 11.124 19.1943 11.3726L20.8446 16.9952Z" fill="#EA2A6A"/>
<path d="M15.0784 15.7429C15.0404 15.7481 15.0013 15.7505 14.9617 15.7505H14.3197C13.6031 15.7505 13.155 14.9749 13.5133 14.354L13.6737 14.0762L13.8342 13.7979C14.0997 13.338 14.66 13.219 15.0784 13.4407C14.9313 13.5178 14.8023 13.6368 14.7096 13.7979L14.5491 14.0762L14.3886 14.354C14.0501 14.9405 14.4312 15.6647 15.0784 15.7429Z" fill="#FFCAA6"/>
<path d="M21.234 18.8102H8.03961C7.71731 18.8102 7.45605 18.549 7.45605 18.2267V17.1524C7.45605 16.8301 7.71731 16.5688 8.03961 16.5688H21.234C21.5563 16.5688 21.8175 16.8301 21.8175 17.1524V18.2267C21.8176 18.5489 21.5563 18.8102 21.234 18.8102Z" fill="#44C7B6"/>
<path d="M8.91494 18.8103H8.03961C7.71749 18.8103 7.45605 18.5489 7.45605 18.2267V17.1524C7.45605 16.8303 7.71749 16.5688 8.03961 16.5688H8.91494C8.59282 16.5688 8.33139 16.8303 8.33139 17.1524V18.2267C8.33139 18.5489 8.59282 18.8103 8.91494 18.8103Z" fill="#4BDBC3"/>
<path d="M21.8173 17.1524V18.2267C21.8173 18.5489 21.5559 18.8103 21.2337 18.8103H20.3584C20.6805 18.8103 20.942 18.5489 20.942 18.2267V17.1524C20.942 16.8303 20.6805 16.5688 20.3584 16.5688H21.2337C21.5559 16.5688 21.8173 16.8303 21.8173 17.1524Z" fill="#3BB2A0"/>
<path d="M21.2346 16.3345H20.894L19.4183 11.3066C19.3452 11.0574 19.1569 10.8631 18.9226 10.7738C18.9857 10.0212 18.5104 9.34879 17.8213 9.13206C18.0549 8.11113 17.2465 7.15013 16.2059 7.19804C16.0934 6.43487 15.4342 5.84717 14.6403 5.84717C13.8463 5.84717 13.1871 6.43487 13.0746 7.19804C12.0357 7.15019 11.2252 8.10938 11.4592 9.13206C10.7738 9.34768 10.2952 10.0169 10.3578 10.7716C10.1208 10.86 9.93008 11.0555 9.85638 11.3066L8.38069 16.3345H8.04012C7.58962 16.3345 7.22314 16.701 7.22314 17.1515V18.2257C7.22314 18.6762 7.58962 19.0427 8.04012 19.0427H21.2346C21.6851 19.0427 22.0515 18.6762 22.0515 18.2257V17.1515C22.0515 16.701 21.685 16.3345 21.2346 16.3345ZM11.7892 9.53565C11.8616 9.52625 11.9254 9.4836 11.9617 9.42034C12.064 9.24206 11.8865 9.17659 11.8865 8.77895C11.8865 8.07279 12.5406 7.53563 13.2423 7.68934C13.3644 7.71601 13.5245 7.6461 13.5245 7.42977C13.5245 6.81453 14.025 6.31401 14.6403 6.31401C15.3067 6.31401 15.7863 6.89383 15.7552 7.44804C15.7464 7.60227 15.8874 7.72231 16.0382 7.68934C16.9225 7.4956 17.6574 8.38202 17.3062 9.21335C17.2464 9.35527 17.3381 9.51581 17.4913 9.53565C18.0689 9.61046 18.5007 10.126 18.4589 10.7199H10.8216C10.7797 10.1265 11.2112 9.61052 11.7892 9.53565ZM10.3044 11.438C10.3478 11.2901 10.486 11.1868 10.6406 11.1868H18.6341C18.7886 11.1868 18.9269 11.2901 18.9704 11.4381L20.4075 16.3345H8.8672L10.3044 11.438ZM21.5847 18.2258C21.5847 18.4189 21.4276 18.5759 21.2346 18.5759H8.04012C7.84702 18.5759 7.68999 18.4189 7.68999 18.2258V17.1515C7.68999 16.9584 7.84702 16.8014 8.04012 16.8014H21.2346C21.4276 16.8014 21.5847 16.9584 21.5847 17.1515V18.2258Z" fill="#5F266D"/>
<path d="M15.6482 13.6808C15.4377 13.3162 15.0607 13.0986 14.6398 13.0986C14.2188 13.0986 13.8418 13.3162 13.6313 13.6808L13.3102 14.2371C12.862 15.0132 13.4214 15.9837 14.3186 15.9837H14.9609C15.8571 15.9837 16.4179 15.014 15.9693 14.2371L15.6482 13.6808ZM14.9609 15.5169H14.3186C13.7817 15.5169 13.4457 14.936 13.7145 14.4705L14.0357 13.9143C14.3041 13.4492 14.9751 13.4488 15.2439 13.9143L15.565 14.4705C15.8335 14.9355 15.4984 15.5169 14.9609 15.5169Z" fill="#5F266D"/>
<path d="M14.2082 12.9916C14.4684 12.8969 14.5655 12.507 14.4249 12.1209C14.2844 11.7347 13.9595 11.4984 13.6992 11.5932C13.439 11.6879 13.342 12.0777 13.4825 12.4639C13.6231 12.85 13.948 13.0863 14.2082 12.9916Z" fill="#5F266D"/>
<path d="M15.8463 12.4636C15.9869 12.0774 15.8898 11.6876 15.6296 11.5929C15.3693 11.4982 15.0444 11.7344 14.9039 12.1206C14.7633 12.5068 14.8604 12.8966 15.1206 12.9913C15.3809 13.086 15.7058 12.8498 15.8463 12.4636Z" fill="#5F266D"/>
<path d="M13.1955 14.0312C13.4557 13.9364 13.5528 13.5466 13.4122 13.1604C13.2717 12.7743 12.9468 12.538 12.6865 12.6327C12.4263 12.7274 12.3293 13.1173 12.4698 13.5034C12.6104 13.8896 12.9353 14.1259 13.1955 14.0312Z" fill="#5F266D"/>
<path d="M16.6422 12.6327C16.3819 12.538 16.0571 12.7743 15.9165 13.1604C15.7759 13.5466 15.873 13.9364 16.1332 14.0311C16.3935 14.1258 16.7184 13.8896 16.8589 13.5034C16.9995 13.1173 16.9025 12.7274 16.6422 12.6327Z" fill="#5F266D"/>
<path d="M19.472 15.2907L19.3992 15.0216C19.3655 14.8972 19.2375 14.8236 19.1129 14.8573C18.9885 14.8909 18.9149 15.0191 18.9486 15.1436L19.0214 15.4126C19.0495 15.5167 19.1438 15.5851 19.2466 15.5851C19.2668 15.5851 19.2873 15.5825 19.3077 15.577C19.4321 15.5433 19.5057 15.4151 19.472 15.2907Z" fill="#5F266D"/>
<path d="M19.007 14.4627C19.1315 14.429 19.2051 14.3009 19.1714 14.1764L18.7142 12.4865C18.6805 12.362 18.5523 12.2885 18.4279 12.3221C18.3034 12.3558 18.2299 12.4839 18.2635 12.6084L18.7207 14.2983C18.7489 14.4024 18.8431 14.4709 18.9459 14.4709C18.9661 14.4709 18.9867 14.4682 19.007 14.4627Z" fill="#5F266D"/>
</svg>
