<svg width="28" height="28" viewBox="0 0 28 28" fill="none" xmlns="http://www.w3.org/2000/svg">
<circle cx="14" cy="14" r="13.6263" fill="white" stroke="black" stroke-width="0.747468"/>
<path d="M9.25022 16.9198H20.6135C21.4634 16.9198 22.1523 16.2309 22.1523 15.381V12.9189H8.01918C7.84924 12.9189 7.71143 13.0568 7.71143 13.2267V15.381C7.71143 16.2309 8.40038 16.9198 9.25022 16.9198Z" fill="#5FCDFF"/>
<path d="M18.1452 21.016C18.8683 21.016 19.4545 20.4298 19.4545 19.7067C19.4545 18.9836 18.8683 18.3975 18.1452 18.3975C17.4221 18.3975 16.8359 18.9836 16.8359 19.7067C16.8359 20.4298 17.4221 21.016 18.1452 21.016Z" fill="#87828E"/>
<path d="M12.6218 21.016C13.3449 21.016 13.931 20.4298 13.931 19.7067C13.931 18.9836 13.3449 18.3975 12.6218 18.3975C11.8987 18.3975 11.3125 18.9836 11.3125 19.7067C11.3125 20.4298 11.8987 21.016 12.6218 21.016Z" fill="#87828E"/>
<path d="M19.3055 15.0866C19.5236 14.7088 20.069 14.7088 20.2872 15.0866C20.2917 15.0945 20.4863 15.4316 20.4826 15.4253C20.7008 15.8031 20.4281 16.2754 19.9918 16.2754C19.9828 16.2754 19.5935 16.2754 19.6008 16.2754C19.1645 16.2754 18.8918 15.8031 19.11 15.4253C19.1145 15.4174 19.3092 15.0802 19.3055 15.0866Z" fill="#B76C6C"/>
<path d="M9.42949 15.0866C9.64763 14.7088 10.193 14.7088 10.4112 15.0866L10.5089 15.256L10.6067 15.4253C10.8248 15.8031 10.5521 16.2754 10.1159 16.2754C10.1068 16.2754 9.71749 16.2754 9.72482 16.2754C9.28854 16.2754 9.01586 15.8031 9.234 15.4253C9.23856 15.4174 9.43318 15.0802 9.42949 15.0866Z" fill="#B76C6C"/>
<path d="M15.4364 12.918V9.72966C15.4364 9.72781 15.4364 9.72658 15.4358 9.72473C15.4358 9.67734 15.4241 9.63118 15.4026 9.58994C15.3847 9.55485 15.3601 9.52346 15.33 9.49699L12.5952 7.12848C13.1578 7.21896 13.6348 7.17957 14.0294 7.07739C14.8437 6.8675 15.306 6.3917 15.4364 6.23906C15.4444 6.22982 15.4512 6.22182 15.4568 6.21505V6.19043C15.4568 6.19043 15.4605 6.19474 15.4666 6.20274C15.4728 6.19474 15.4765 6.19043 15.4765 6.19043L15.4986 6.2409C15.6156 6.37509 15.9787 6.74809 16.6016 6.98075C17.0799 7.15987 17.7114 7.25589 18.5023 7.0977L18.623 7.04169L18.6267 7.03984C18.6267 7.03984 18.6267 7.03984 18.6267 7.04046C18.6273 7.04354 18.6285 7.054 18.631 7.07185C18.6538 7.20911 18.7726 7.76923 19.2496 8.3312C19.5881 8.73006 20.107 9.13014 20.901 9.38004C20.9035 9.38066 20.9066 9.38189 20.909 9.38251L20.9472 9.36035C20.9472 9.36035 20.9429 9.37081 20.9355 9.38989C20.9355 9.39051 20.9355 9.39051 20.9355 9.39051C20.885 9.52408 20.7028 10.0867 20.8493 10.8314C20.9706 11.4482 21.3177 12.1905 22.1524 12.918H15.4364Z" fill="#FF4A73"/>
<path d="M10.1735 16.9198H9.25022C8.40081 16.9198 7.71143 16.231 7.71143 15.381V13.2267C7.71143 13.0568 7.8493 12.9189 8.01918 12.9189H8.94246C8.77258 12.9189 8.6347 13.0568 8.6347 13.2267V15.381C8.6347 16.231 9.32408 16.9198 10.1735 16.9198Z" fill="#73D7F9"/>
<path d="M22.1525 12.9189V15.381C22.1525 16.231 21.4631 16.9198 20.6137 16.9198H19.6904C20.5398 16.9198 21.2292 16.231 21.2292 15.381V12.9189H22.1525Z" fill="#30B6FF"/>
<path d="M18.6068 20.9328C18.4634 20.9869 18.3076 21.0165 18.1451 21.0165C17.4219 21.0165 16.8359 20.4299 16.8359 19.7067C16.8359 18.984 17.4219 18.3975 18.1451 18.3975C18.3076 18.3975 18.4634 18.427 18.6068 18.4812C18.1113 18.6683 17.7592 19.1465 17.7592 19.7067C17.7592 20.2674 18.1113 20.7457 18.6068 20.9328Z" fill="#A4A4A5"/>
<path d="M13.0833 20.9328C12.9399 20.9869 12.7842 21.0165 12.6217 21.0165C11.8985 21.0165 11.3125 20.4299 11.3125 19.7067C11.3125 18.984 11.8985 18.3975 12.6217 18.3975C12.7842 18.3975 12.9399 18.427 13.0833 18.4812C12.5879 18.6677 12.2358 19.1465 12.2358 19.7067C12.2358 20.2674 12.5879 20.7463 13.0833 20.9328Z" fill="#A4A4A5"/>
<path d="M20.909 9.38251C20.9066 9.38189 20.9035 9.38066 20.901 9.38004L15.9374 12.246L19.2496 8.3312C18.7726 7.76923 18.6538 7.20911 18.631 7.07185C18.6285 7.054 18.6273 7.04354 18.6267 7.04046C18.6267 7.03984 18.6267 7.03984 18.6267 7.03984L18.623 7.04169L15.6665 12.1621L16.6016 6.98075C15.9787 6.74809 15.6156 6.37509 15.4986 6.2409L15.4765 6.19043C15.4765 6.19043 15.4728 6.19474 15.4666 6.20274C15.4605 6.19474 15.4568 6.19043 15.4568 6.19043V6.21505C15.4512 6.22182 15.4444 6.22982 15.4364 6.23906V9.12645L14.0355 7.08847L14.0294 7.07739C13.6348 7.17957 13.1578 7.21896 12.5952 7.12848L15.33 9.49699C15.3601 9.52346 15.3847 9.55485 15.4026 9.58994C15.4241 9.63118 15.4358 9.67734 15.4358 9.72473C15.4361 9.72529 15.4363 9.72572 15.4364 9.72627V12.867L20.8493 10.8314C20.7028 10.0867 20.885 9.52408 20.9355 9.39051C20.9355 9.39051 20.9355 9.39051 20.9355 9.38989C20.9429 9.37081 20.9472 9.36035 20.9472 9.36035L20.909 9.38251Z" fill="#F973A3"/>
<path d="M22.3136 12.7455C20.6816 11.3235 21.0331 9.88042 21.1464 9.54219L21.4607 9.36074C21.5784 9.29279 21.6188 9.14217 21.5508 9.02442C21.4828 8.90667 21.3323 8.86629 21.2145 8.93431L20.8812 9.12672C19.3073 8.59097 18.9547 7.44192 18.8837 7.09896L19.065 6.78486C19.133 6.66711 19.0927 6.51655 18.9749 6.44854C18.8572 6.38053 18.7065 6.42084 18.6386 6.53865L18.4467 6.87103C16.8105 7.19566 15.9286 6.3676 15.708 6.12102C15.7065 6.1169 15.7041 6.11314 15.7024 6.10908V5.84484C15.7024 5.70887 15.5922 5.59863 15.4562 5.59863C15.3203 5.59863 15.21 5.70887 15.21 5.84484V6.13567C14.9797 6.38348 14.1601 7.11644 12.7003 6.90765L12.2014 6.47562C12.0985 6.38662 11.9431 6.39782 11.854 6.50055C11.765 6.60334 11.7762 6.75882 11.879 6.84789C12.3654 7.26915 14.7409 9.32639 15.21 9.7327V12.6862H11.7629L9.93479 10.7735C9.77113 10.5848 9.5344 10.4767 9.28395 10.4767H8.01906C7.71364 10.4767 7.46509 10.7253 7.46509 11.0307V11.5484C7.46509 11.6843 7.57533 11.7946 7.7113 11.7946C7.84727 11.7946 7.9575 11.6843 7.9575 11.5484V11.0307C7.9575 10.9968 7.98514 10.9692 8.01906 10.9692H9.28395C9.3924 10.9692 9.49482 11.0164 9.56493 11.0987C9.56801 11.1022 9.57115 11.1057 9.57435 11.1091L11.0818 12.6861H8.01881C7.71339 12.6861 7.46484 12.9347 7.46484 13.2401V15.3944C7.46484 16.3787 8.26557 17.1794 9.24985 17.1794H14.7081L13.5038 18.4396C13.2527 18.2659 12.9486 18.1638 12.6209 18.1638C11.7632 18.1638 11.0654 18.8616 11.0654 19.7193C11.0654 20.577 11.7633 21.2748 12.6209 21.2748C13.4786 21.2748 14.1764 20.577 14.1764 19.7193C14.1764 19.3666 14.0582 19.0411 13.8596 18.7798L15.3828 17.1858L16.9063 18.7797C16.7076 19.0409 16.5895 19.3665 16.5895 19.7193C16.5895 20.577 17.2872 21.2748 18.1449 21.2748C19.0027 21.2748 19.7004 20.577 19.7004 19.7193C19.7004 18.8616 19.0026 18.1638 18.1449 18.1638C17.8174 18.1638 17.5133 18.2659 17.2623 18.4395L16.0578 17.1794H20.6132C21.5974 17.1794 22.3982 16.3787 22.3982 15.3944V12.9323C22.3982 12.8661 22.3647 12.79 22.3136 12.7455ZM12.621 20.7825C12.0348 20.7825 11.5579 20.3056 11.5579 19.7194C11.5579 19.1333 12.0348 18.6564 12.621 18.6564C13.2071 18.6564 13.684 19.1333 13.684 19.7194C13.684 20.3056 13.2071 20.7825 12.621 20.7825ZM18.1449 18.6563C18.7311 18.6563 19.208 19.1332 19.208 19.7194C19.208 20.3055 18.7311 20.7824 18.1449 20.7824C17.5588 20.7824 17.0819 20.3055 17.0819 19.7194C17.0819 19.1332 17.5588 18.6563 18.1449 18.6563ZM18.5515 7.67434C18.7699 8.20289 19.2588 8.96016 20.3358 9.44162L16.1288 11.8705L18.5515 7.67434ZM15.7024 6.78012C16.3399 7.27093 17.1713 7.51776 18.1312 7.41743L15.7024 11.6243V6.78012ZM15.7024 12.6853L20.5694 9.87531C20.4833 10.5177 20.5502 11.5911 21.5482 12.6862H15.7024V12.6853ZM13.3113 7.437C14.1969 7.4146 14.825 7.08554 15.21 6.79458V9.08123L13.3113 7.437ZM9.24985 16.6871C8.53708 16.6871 7.95726 16.1072 7.95726 15.3945V13.2402C7.95726 13.2063 7.98489 13.1786 8.01881 13.1786H11.5525L14.906 16.6871H9.24985ZM21.9058 15.3945C21.9058 16.1072 21.3259 16.6871 20.6132 16.6871H15.5872L12.2336 13.1786H21.9058V15.3945Z" fill="#5F266D"/>
<path d="M19.0898 14.9778C18.8896 15.3244 18.6269 15.6664 18.8943 16.1294C19.1647 16.5976 19.6144 16.5358 19.9894 16.5358C20.6153 16.5358 21.0065 15.8588 20.6934 15.3164C20.4929 14.9691 20.3282 14.5713 19.7939 14.5713C19.5 14.5713 19.2367 14.7233 19.0898 14.9778ZM19.5162 15.224C19.6396 15.0104 19.9479 15.0099 20.0715 15.224L20.267 15.5626C20.3903 15.7762 20.2365 16.0434 19.9894 16.0434C19.5948 16.0434 19.4345 16.08 19.3207 15.8831C19.207 15.6862 19.319 15.5656 19.5162 15.224Z" fill="#5F266D"/>
<path d="M19.5322 14.2572C19.6906 14.1995 19.7497 13.9622 19.6641 13.7271C19.5786 13.492 19.3808 13.3482 19.2224 13.4059C19.064 13.4635 19.0049 13.7008 19.0905 13.9359C19.176 14.171 19.3738 14.3148 19.5322 14.2572Z" fill="#5F266D"/>
<path d="M20.5289 13.9355C20.6144 13.7004 20.5554 13.4631 20.3969 13.4054C20.2385 13.3478 20.0408 13.4916 19.9552 13.7267C19.8696 13.9618 19.9287 14.1991 20.0871 14.2567C20.2455 14.3144 20.4433 14.1706 20.5289 13.9355Z" fill="#5F266D"/>
<path d="M18.916 14.888C19.0745 14.8303 19.1336 14.593 19.0479 14.3579C18.9624 14.1228 18.7646 13.979 18.6062 14.0366C18.4478 14.0943 18.3887 14.3316 18.4743 14.5667C18.5598 14.8018 18.7576 14.9456 18.916 14.888Z" fill="#5F266D"/>
<path d="M20.7043 14.888C20.8628 14.9456 21.0605 14.8018 21.1461 14.5667C21.2317 14.3317 21.1726 14.0943 21.0142 14.0366C20.8558 13.979 20.658 14.1228 20.5724 14.3579C20.4869 14.593 20.5459 14.8303 20.7043 14.888Z" fill="#5F266D"/>
<path d="M9.9208 14.5713C9.62689 14.5713 9.3637 14.7233 9.21677 14.9778L9.02128 15.3164C8.70848 15.8583 9.09902 16.5358 9.72531 16.5358H10.1164C10.7421 16.5358 11.1336 15.8588 10.8204 15.3163C10.6198 14.9691 10.4551 14.5713 9.9208 14.5713ZM10.1163 16.0434C9.72137 16.0434 9.56128 16.08 9.44765 15.8831C9.41983 15.8349 9.36413 15.7072 9.44765 15.5626C9.64493 15.2209 9.69349 15.0636 9.9208 15.0636C10.1482 15.0636 10.1966 15.2208 10.3939 15.5625C10.5172 15.7762 10.3634 16.0434 10.1163 16.0434Z" fill="#5F266D"/>
<path d="M9.65726 14.2542C9.8157 14.1965 9.87479 13.9592 9.78923 13.7241C9.70368 13.4891 9.50588 13.3452 9.34743 13.4029C9.18899 13.4606 9.1299 13.6979 9.21546 13.933C9.30101 14.168 9.49882 14.3119 9.65726 14.2542Z" fill="#5F266D"/>
<path d="M10.6544 13.933C10.7399 13.698 10.6808 13.4607 10.5224 13.403C10.364 13.3453 10.1662 13.4892 10.0807 13.7243C9.99514 13.9593 10.0542 14.1966 10.2126 14.2543C10.371 14.3119 10.5688 14.1681 10.6544 13.933Z" fill="#5F266D"/>
<path d="M9.04107 14.888C9.19951 14.8303 9.2586 14.593 9.17298 14.3579C9.08742 14.1228 8.88959 13.979 8.73122 14.0366C8.57279 14.0943 8.5137 14.3316 8.59932 14.5667C8.68487 14.8018 8.88264 14.9456 9.04107 14.888Z" fill="#5F266D"/>
<path d="M11.1392 14.0366C10.9807 13.979 10.783 14.1228 10.6974 14.3579C10.6119 14.593 10.671 14.8303 10.8293 14.888C10.9878 14.9456 11.1855 14.8018 11.2711 14.5667C11.3566 14.3316 11.2976 14.0943 11.1392 14.0366Z" fill="#5F266D"/>
<path d="M17.1271 14.0754H17.3732C17.5092 14.0754 17.6194 13.9652 17.6194 13.8292C17.6194 13.6932 17.5092 13.583 17.3732 13.583H17.1271C16.9911 13.583 16.8809 13.6932 16.8809 13.8292C16.8809 13.9652 16.9911 14.0754 17.1271 14.0754Z" fill="#5F266D"/>
<path d="M14.7267 14.0754H16.2039C16.3399 14.0754 16.4501 13.9652 16.4501 13.8292C16.4501 13.6932 16.3399 13.583 16.2039 13.583H14.7267C14.5907 13.583 14.4805 13.6932 14.4805 13.8292C14.4805 13.9652 14.5907 14.0754 14.7267 14.0754Z" fill="#5F266D"/>
</svg>
