<svg xmlns="http://www.w3.org/2000/svg" width="342" height="180" viewBox="0 0 342 180" fill="none">
<path d="M276.134 55.0907C277.337 55.2666 279.047 55.6964 279.956 56.0676C282.322 57.0053 284.541 58.6757 286.017 60.6391C287.298 62.3387 287.953 63.8723 288.324 66.08C288.432 66.7051 288.598 67.3303 288.686 67.4573C288.862 67.7405 288.92 67.7405 290.778 67.4475C293.896 66.9493 298.696 67.0372 301.921 67.6429C305.665 68.3462 308.686 69.3328 311.99 70.9152C313.73 71.7553 314.522 72.2046 316.565 73.5136C317.601 74.1778 318.266 74.549 318.461 74.5587C318.745 74.5685 318.764 74.5392 319.116 73.5917C320.074 71.0813 320.661 70.4073 322.801 69.3816C324.639 68.5025 326.653 68.102 328.657 68.1997C331.462 68.3559 334.17 69.2449 336.36 70.7296C337.386 71.4329 338.999 72.9861 339.722 73.9727C341.091 75.8384 342 78.427 342 80.4783C342 82.1877 341.374 84.3856 340.524 85.6457C339.849 86.6518 338.999 87.6091 338.442 87.99C337.533 88.6054 335.402 89.2013 333.105 89.465C332.538 89.5334 331.306 89.592 330.358 89.5822C329.409 89.5822 328.579 89.6213 328.51 89.6604C328.393 89.7288 328.403 90.0316 328.539 91.487C328.637 92.4443 328.706 93.9095 328.706 94.7398C328.706 96.8302 328.344 99.4872 327.963 100.23C327.816 100.513 327.787 100.523 327.366 100.474C326.526 100.386 326.369 100.767 326.115 103.561C325.959 105.299 325.861 105.553 325.177 106.032C324.952 106.178 324.258 106.921 323.623 107.683C319.83 112.196 315.656 114.862 309.771 116.523C308.217 116.962 307.787 117.138 307.787 117.334C307.787 117.47 307.992 117.617 309.839 118.731C314.033 121.251 320.201 125.949 323.495 129.124C326.379 131.908 328.256 135.151 328.608 137.964C328.852 139.898 328.422 141.559 327.21 143.385C325.685 145.681 323.73 147.293 321.667 147.957C320.152 148.445 319.097 148.465 317.366 148.025C315.02 147.429 313.574 146.648 311.276 144.733C310.641 144.206 310.045 143.776 309.937 143.776C309.663 143.776 309.556 144.05 309.351 145.222C308.979 147.39 308.197 149.901 307.268 151.923L306.789 152.978L307.063 153.251C307.22 153.398 308.109 153.877 309.048 154.306C311.12 155.273 312.508 156.035 313.593 156.817C316.672 159.015 318.686 161.564 319.664 164.514C320.494 167.025 320.367 169.32 319.224 172.241C317.953 175.494 314.805 178.287 311.198 179.372C308.226 180.26 304.815 180.202 302.244 179.225C298.656 177.848 295.176 174.458 293.045 170.277C291.677 167.572 291.022 165.012 290.914 161.847C290.856 160.128 290.836 160.03 290.543 159.845C290.416 159.757 289.595 159.591 288.627 159.444C284.091 158.79 278.617 157.334 273.554 155.439C272.498 155.039 271.52 154.717 271.393 154.717C271.198 154.717 271.061 154.902 270.494 155.967C269.575 157.686 269.145 158.331 268.128 159.513C265.997 161.984 263.641 163.742 260.719 165.042C258.275 166.136 255.802 166.683 253.338 166.673C252.107 166.673 251.784 166.644 250.846 166.399C248.588 165.823 246.936 165.081 245.45 163.957C242.674 161.867 240.777 158.897 240.132 155.645C239.956 154.765 239.956 152.343 240.132 151.444C240.631 148.856 241.54 147.078 243.221 145.388C245.196 143.415 247.786 142.243 251.725 141.559C252.996 141.344 255.958 141.344 258.021 141.569C258.852 141.656 259.8 141.725 260.142 141.725H260.758L260.807 141.305C260.836 141.08 260.875 140.406 260.904 139.82C261.031 137.329 261.804 134.242 263.075 131.165C263.309 130.579 263.505 130.023 263.505 129.915C263.505 129.612 263.143 129.573 261.862 129.759C260.152 130.003 257.522 130.052 256.3 129.866C254.296 129.563 252.341 128.831 251.168 127.952C249.761 126.897 248.48 124.631 248.109 122.53C247.815 120.87 247.942 118.34 248.382 116.894C248.969 114.98 250.777 113.212 253.495 111.854C254.785 111.209 255.811 110.857 257.669 110.428C259.507 109.998 260.738 109.841 263.749 109.636C268.989 109.294 273.818 109.265 277.307 109.548C278.236 109.627 278.412 109.578 278.255 109.275C278.197 109.148 277.385 108.279 276.467 107.341C274.59 105.436 273.69 104.293 272.527 102.349C270.24 98.5397 269.125 95.2576 268.783 91.3405L268.695 90.2367L269.468 89.2599C270.758 87.6384 270.787 87.443 269.722 87.5407C269.096 87.5993 269.067 87.5895 268.959 87.3649C268.881 87.1793 268.891 86.9839 269.008 86.4955C269.252 85.4796 269.321 85.421 270.768 84.7861C271.559 84.4344 271.462 84.112 270.465 83.7409C270.21 83.6529 269.976 83.5455 269.937 83.5064C269.81 83.4087 270.347 81.8361 270.904 80.7225C271.188 80.1266 271.843 79.0326 272.341 78.2804C273.231 76.952 273.475 76.5515 273.475 76.4245C273.475 76.3561 273.27 76.278 271.726 75.7212C268.187 74.4708 266.437 72.8786 265.401 69.9775C264.795 68.2778 264.541 65.6892 264.815 64.0677C265 63.003 265.841 59.7697 266.154 58.9199C266.652 57.6012 268.822 56.1164 271.178 55.4912C272.879 55.0321 274.746 54.8856 276.134 55.0907Z" fill="#21349A"/>
<path d="M43.9415 3.93121C47.7674 4.81405 51.0229 6.253 54.2472 8.46757C57.2105 10.5093 59.2941 12.5426 61.5463 15.571C63.6894 18.4563 65.1111 21.1801 66.3129 24.7183C67.1935 27.3049 67.6795 29.4163 68.0878 32.4438C68.6469 36.666 68.8436 40.5824 68.6873 44.7357C68.6209 46.5891 67.8546 51.9996 67.4304 53.6488C66.6545 56.6818 65.9046 58.7733 64.7036 61.2169C63.476 63.7211 62.138 65.7517 60.4162 67.703C59.0067 69.3111 58.1987 70.0645 56.5626 71.3118C54.4881 72.8853 52.7586 73.8723 50.2451 74.8912C49.2363 75.2965 49.1263 75.3642 49.449 75.3527C49.6508 75.3524 51.3959 75.5418 53.3368 75.776C57.2817 76.2528 59.4243 76.6243 59.4618 76.822C59.4845 76.926 59.2839 76.9173 58.3823 76.7315C56.5768 76.378 50.9956 75.6529 49.9154 75.6357C48.9084 75.6192 48.1862 75.6686 48.1187 75.7605C48.0869 75.7929 48.1251 75.9173 48.1994 76.0466C48.3259 76.2654 48.4148 76.2866 50.2912 76.6589C53.2932 77.2563 54.8107 77.7729 56.1522 78.6418C56.8101 79.07 57.7749 79.9432 57.7543 80.0964C57.7324 80.2586 57.5529 80.161 57.2146 79.8126C55.9608 78.4967 53.8112 77.5647 50.7863 77.0009C50.1953 76.8937 49.4355 76.7453 49.0967 76.6721L48.4901 76.5445L48.8251 77.1218C50.1334 79.3257 51.8374 81.3169 52.4952 81.4056C52.6033 81.4202 52.73 81.5015 52.7833 81.5821C52.9487 81.8521 52.4917 82.1116 50.9156 82.6422C50.0987 82.9173 49.4578 83.1795 49.4776 83.2372C49.8674 84.565 50.0845 86.0163 50.0827 87.2546C50.0845 87.6494 49.9801 88.7637 49.8513 89.7188C49.4249 92.8815 49.426 94.9826 49.8596 97.142C50.7161 101.404 53.1662 105.074 58.0308 109.345C61.3598 112.28 63.2084 113.538 66.7699 115.294C70.9858 117.367 75.3104 119.042 86.3575 122.843C94.0639 125.497 96.1247 126.27 98.0483 127.245C99.0437 127.755 99.4147 127.998 99.7662 128.385C99.9335 128.573 99.9911 128.69 99.9195 128.745C99.8581 128.792 99.7795 128.763 99.6937 128.65C98.874 127.586 96.1185 126.453 85.2648 122.714C75.3653 119.315 71.3103 117.75 66.9178 115.625C63.3167 113.892 61.0958 112.4 57.8652 109.552C53.1105 105.351 50.6219 101.694 49.6866 97.5407C49.2001 95.365 49.1793 94.0227 49.5618 90.5055C49.7726 88.5339 49.8687 87.345 49.8437 86.782C49.7947 85.7846 49.5524 84.2473 49.3418 83.6318L49.1814 83.1881L47.5863 83.5877C45.7345 84.0536 43.4735 84.4919 42.1401 84.6516C41.0314 84.7773 39.9704 84.7535 39.9923 84.5913C39.9995 84.5373 40.1861 83.9019 40.4107 83.189C41.4678 79.7719 41.7452 78.2589 41.5033 77.263L41.3558 76.6559L39.5742 76.3973C37.2236 76.0712 35.9258 75.6944 33.5775 74.6713C26.8683 71.7667 20.2459 65.36 15.8978 57.5994C12.6739 51.8436 10.8785 45.4272 10.8122 39.455C10.7532 34.2452 11.5662 28.0796 12.8952 23.5983C16.2144 12.3853 23.1027 5.52507 32.8237 3.71653C36.3803 3.05848 40.5162 3.13908 43.9415 3.93121Z" fill="#21349A"/>
</svg>