<svg width="1411" height="640" viewBox="0 0 1411 640" fill="none" xmlns="http://www.w3.org/2000/svg">
<mask id="mask0_63_1066" style="mask-type:alpha" maskUnits="userSpaceOnUse" x="0" y="0" width="1440" height="640">
<rect width="1440" height="640" fill="#354FD8"/>
</mask>
<g mask="url(#mask0_63_1066)">
<g clip-path="url(#clip0_63_1066)">
<path d="M433.424 343.574C428.569 339.93 423.723 338.172 416.591 337.544C410.833 337.012 405.772 337.421 399.639 338.866C362.909 347.62 323.867 387.781 314.609 426.443C313.342 431.709 312.54 439.68 312.798 444.452C313.605 460.128 322.276 471.244 336.122 474.372C350.341 477.559 368.512 472.675 387.727 460.495C392.654 457.336 406.527 445.892 410.63 441.529C427.81 423.34 438.82 404.458 443.294 385.603C444.387 380.9 445.175 372.802 444.967 368.311C444.756 364.146 443.204 357.225 441.767 354.133C440.504 351.359 435.686 345.281 433.424 343.574Z" fill="#1F36AD"/>
<path d="M517.337 454.816C508.61 447.766 494.762 444.361 478.824 445.295C458.34 446.482 436.334 454.119 415.938 467.15C409.441 471.302 396.433 482.345 391.798 487.616C381.262 499.68 375.372 511.499 374.42 522.598C373.555 532.146 376.598 540.681 382.933 546.641C398.099 560.767 428.33 561.895 459.977 549.503C486.236 539.225 508.419 521.878 520.13 502.455C531.547 483.507 530.48 465.371 517.337 454.816Z" fill="#1F36AD"/>
<path d="M282.085 354.025C271.02 344.406 255.063 343.555 237.686 351.7C227.724 356.401 216.214 365.54 207.722 375.523C187.913 398.732 177.913 429.84 182.954 452.498C185.553 464.084 191.574 472.756 200.249 477.264C213.032 483.917 229.609 481.431 247.54 470.144C251.132 467.872 260.709 459.844 264.066 456.245C291.008 427.658 301.802 387.246 289 363.102C287.492 360.255 284.089 355.809 282.085 354.025Z" fill="#1F36AD"/>
<path d="M452.836 602.373C442.56 594.357 427.669 590.533 410.371 591.499C391.582 592.559 371.631 599.397 355.028 610.449C350.703 613.335 342.253 620.557 338.837 624.252C315.891 649.12 318.192 676.939 344.103 688.894C358.013 695.295 376.4 696.235 395.909 691.569C432.869 682.761 462.686 656.337 464.95 630.327C465.916 619.355 461.467 609.088 452.836 602.373Z" fill="#1F36AD"/>
<path d="M305.763 524.948C287.508 509.671 249.664 502.822 204.403 506.578C168.963 509.539 135.701 518.573 113.936 531.181C108.718 534.215 100.511 540.956 97.9825 544.276C94.0585 549.459 92.4263 554.015 92.0822 560.493C91.5602 571.277 94.3675 581.349 100.756 591.561C104.084 596.855 112.379 606.254 118.418 611.585C126.538 618.683 133.969 624.186 151.358 635.894C168.152 647.223 172.549 650.65 175.734 655.002C179.77 660.533 181.793 665.536 186.288 680.984C189.511 692.047 191.603 697.961 193.883 702.609C202.463 719.899 217.136 728.202 241.085 729.33C248.215 729.681 251.124 729.183 256.361 726.779C259.349 725.384 259.937 724.983 265.661 720.185C270.843 715.841 272.24 714.532 274.769 711.488C290.182 693.119 304.067 665.267 313.346 634.07C324.376 596.971 326.101 562.822 317.951 542.354C314.988 534.906 311.261 529.578 305.763 524.948Z" fill="#1F36AD"/>
</g>
<g clip-path="url(#clip1_63_1066)">
<path d="M768.424 -2.42622C763.568 -6.07007 758.723 -7.82842 751.591 -8.45614C745.833 -8.98807 740.771 -8.57923 734.639 -7.13389C697.909 1.61952 658.867 41.7812 649.609 80.4433C648.342 85.7092 647.54 93.6797 647.798 98.4518C648.605 114.128 657.275 125.244 671.122 128.372C685.341 131.559 703.512 126.675 722.727 114.495C727.653 111.336 741.527 99.8919 745.63 95.5289C762.81 77.3403 773.82 58.4578 778.294 39.6031C779.387 34.8997 780.175 26.8023 779.967 22.3112C779.756 18.1463 778.204 11.225 776.767 8.1334C775.504 5.35856 770.686 -0.71939 768.424 -2.42622Z" fill="#1F36AD"/>
<path d="M852.337 108.816C843.61 101.766 829.762 98.3608 813.824 99.2949C793.34 100.482 771.334 108.119 750.938 121.15C744.441 125.302 731.433 136.345 726.797 141.616C716.262 153.68 710.372 165.499 709.42 176.598C708.555 186.146 711.598 194.681 717.933 200.641C733.099 214.767 763.33 215.895 794.977 203.503C821.236 193.225 843.419 175.878 855.13 156.455C866.547 137.507 865.48 119.371 852.337 108.816Z" fill="#1F36AD"/>
<path d="M617.085 8.02451C606.02 -1.59359 590.063 -2.4453 572.686 5.69967C562.723 10.4013 551.214 19.5402 542.722 29.5226C522.913 52.7317 512.912 83.8402 517.954 106.498C520.553 118.084 526.574 126.756 535.249 131.264C548.032 137.917 564.609 135.431 582.539 124.144C586.132 121.872 595.709 113.844 599.066 110.245C626.007 81.6576 636.801 41.2461 624 17.1015C622.492 14.2549 619.089 9.80914 617.085 8.02451Z" fill="#1F36AD"/>
<path d="M787.836 256.373C777.56 248.357 762.669 244.533 745.371 245.499C726.582 246.559 706.631 253.397 690.028 264.449C685.703 267.335 677.252 274.557 673.836 278.252C650.891 303.12 653.192 330.939 679.103 342.894C693.013 349.295 711.4 350.235 730.908 345.569C767.869 336.761 797.685 310.337 799.95 284.327C800.915 273.355 796.467 263.088 787.836 256.373Z" fill="#1F36AD"/>
<path d="M640.763 178.948C622.507 163.671 584.664 156.822 539.403 160.578C503.962 163.539 470.701 172.573 448.936 185.181C443.718 188.215 435.511 194.956 432.982 198.276C429.058 203.459 427.426 208.015 427.082 214.493C426.56 225.277 429.367 235.349 435.756 245.561C439.084 250.855 447.379 260.254 453.418 265.585C461.538 272.683 468.969 278.186 486.358 289.894C503.151 301.223 507.549 304.65 510.734 309.002C514.77 314.533 516.793 319.536 521.288 334.984C524.51 346.047 526.603 351.961 528.883 356.609C537.463 373.899 552.136 382.202 576.085 383.33C583.215 383.681 586.124 383.183 591.361 380.779C594.349 379.384 594.937 378.983 600.661 374.185C605.843 369.841 607.24 368.532 609.769 365.488C625.182 347.119 639.067 319.267 648.346 288.07C659.376 250.971 661.1 216.822 652.951 196.354C649.988 188.906 646.261 183.578 640.763 178.948Z" fill="#1F36AD"/>
</g>
<g clip-path="url(#clip2_63_1066)">
<path d="M1245.42 62.5738C1240.57 58.9299 1235.72 57.1716 1228.59 56.5439C1222.83 56.0119 1217.77 56.4208 1211.64 57.8661C1174.91 66.6195 1135.87 106.781 1126.61 145.443C1125.34 150.709 1124.54 158.68 1124.8 163.452C1125.6 179.128 1134.28 190.244 1148.12 193.372C1162.34 196.559 1180.51 191.675 1199.73 179.495C1204.65 176.336 1218.53 164.892 1222.63 160.529C1239.81 142.34 1250.82 123.458 1255.29 104.603C1256.39 99.8997 1257.17 91.8023 1256.97 87.3112C1256.76 83.1463 1255.2 76.225 1253.77 73.1334C1252.5 70.3586 1247.69 64.2806 1245.42 62.5738Z" fill="#1F36AD"/>
<path d="M1329.34 173.816C1320.61 166.766 1306.76 163.361 1290.82 164.295C1270.34 165.482 1248.33 173.119 1227.94 186.15C1221.44 190.302 1208.43 201.345 1203.8 206.616C1193.26 218.68 1187.37 230.499 1186.42 241.598C1185.55 251.146 1188.6 259.681 1194.93 265.641C1210.1 279.767 1240.33 280.895 1271.98 268.503C1298.24 258.225 1320.42 240.878 1332.13 221.455C1343.55 202.507 1342.48 184.371 1329.34 173.816Z" fill="#1F36AD"/>
<path d="M1094.08 73.0245C1083.02 63.4064 1067.06 62.5547 1049.69 70.6997C1039.72 75.4013 1028.21 84.5402 1019.72 94.5226C999.913 117.732 989.912 148.84 994.954 171.498C997.553 183.084 1003.57 191.756 1012.25 196.264C1025.03 202.917 1041.61 200.431 1059.54 189.144C1063.13 186.872 1072.71 178.844 1076.07 175.245C1103.01 146.658 1113.8 106.246 1101 82.1015C1099.49 79.2549 1096.09 74.8091 1094.08 73.0245Z" fill="#1F36AD"/>
<path d="M1264.84 321.373C1254.56 313.357 1239.67 309.533 1222.37 310.499C1203.58 311.559 1183.63 318.397 1167.03 329.449C1162.7 332.335 1154.25 339.557 1150.84 343.252C1127.89 368.12 1130.19 395.939 1156.1 407.894C1170.01 414.295 1188.4 415.235 1207.91 410.569C1244.87 401.761 1274.69 375.337 1276.95 349.327C1277.92 338.355 1273.47 328.088 1264.84 321.373Z" fill="#1F36AD"/>
<path d="M1117.76 243.948C1099.51 228.671 1061.66 221.822 1016.4 225.578C980.962 228.539 947.701 237.573 925.936 250.181C920.718 253.215 912.511 259.956 909.982 263.276C906.058 268.459 904.426 273.015 904.082 279.493C903.56 290.277 906.367 300.349 912.756 310.561C916.084 315.855 924.379 325.254 930.418 330.585C938.538 337.683 945.969 343.186 963.358 354.894C980.151 366.223 984.549 369.65 987.734 374.002C991.77 379.533 993.793 384.536 998.288 399.984C1001.51 411.047 1003.6 416.961 1005.88 421.609C1014.46 438.899 1029.14 447.202 1053.08 448.33C1060.22 448.681 1063.12 448.183 1068.36 445.779C1071.35 444.384 1071.94 443.983 1077.66 439.185C1082.84 434.841 1084.24 433.532 1086.77 430.488C1102.18 412.119 1116.07 384.267 1125.35 353.07C1136.38 315.971 1138.1 281.822 1129.95 261.354C1126.99 253.906 1123.26 248.578 1117.76 243.948Z" fill="#1F36AD"/>
</g>
</g>
<defs>
<clipPath id="clip0_63_1066">
<rect width="453.124" height="453.124" fill="white" transform="translate(337.267 211) rotate(50.0302)"/>
</clipPath>
<clipPath id="clip1_63_1066">
<rect width="453.124" height="453.124" fill="white" transform="translate(672.267 -135) rotate(50.0302)"/>
</clipPath>
<clipPath id="clip2_63_1066">
<rect width="453.124" height="453.124" fill="white" transform="translate(1149.27 -70) rotate(50.0302)"/>
</clipPath>
</defs>
</svg>
