<svg width="97" height="97" viewBox="0 0 97 97" fill="none" xmlns="http://www.w3.org/2000/svg">
<g filter="url(#filter0_d_361_3931)">
<circle cx="48.5" cy="44.5" r="44.5" fill="white"/>
</g>
<path d="M78.5956 36.6844C78.8802 37.4769 78.9152 38.191 78.7071 39.162C78.5423 39.9469 78.2813 40.6012 77.8391 41.355C75.1782 45.8659 68.2595 49.4 62.7565 49.0475C62.0067 49.0003 60.9174 48.781 60.2955 48.5518C58.2506 47.8044 57.1314 46.2008 57.2824 44.2376C57.441 42.2227 58.8308 40.0137 61.2303 37.9644C61.8505 37.4404 63.9342 36.0691 64.6801 35.7035C67.793 34.1693 70.7458 33.4815 73.4278 33.6588C74.0959 33.7062 75.2014 33.9326 75.7882 34.1436C76.3316 34.3418 77.1857 34.8303 77.5368 35.147C77.8529 35.4279 78.4617 36.3148 78.5956 36.6844Z" fill="#F8CA74"/>
<path d="M67.2785 21.0162C67.8564 22.4611 67.7419 24.4357 66.9669 26.5102C65.9726 29.1768 64.0612 31.7818 61.5006 33.9528C60.6848 34.6443 58.6896 35.9174 57.8015 36.3165C55.7719 37.22 53.9645 37.5178 52.4545 37.1905C51.1536 36.9151 50.1466 36.163 49.6154 35.0797C48.3627 32.4924 49.4484 28.4391 52.384 24.7506C54.8193 21.6898 58.0249 19.4583 61.078 18.6996C64.056 17.9603 66.4164 18.8428 67.2785 21.0162Z" fill="#F8CA74"/>
<path d="M71.0266 56.3175C71.8494 58.1771 71.3103 60.327 69.5207 62.2976C68.4904 63.4261 66.8088 64.5782 65.1386 65.2961C61.2529 66.9735 56.7208 67.028 53.9235 65.4339C52.4939 64.6161 51.5904 63.4636 51.3474 62.1296C50.9877 60.1634 51.9946 58.0676 54.2234 56.1521C54.6713 55.7688 56.1267 54.8273 56.741 54.5294C61.631 52.1263 67.4286 52.3467 70.106 55.03C70.4217 55.3463 70.8719 55.979 71.0266 56.3175Z" fill="#F8CA74"/>
<path d="M45.0842 23.5372C45.7269 25.2268 45.6253 27.3569 44.7905 29.6103C43.8823 32.0575 42.1608 34.4226 40.0174 36.1718C39.4581 36.6271 38.1556 37.4522 37.5263 37.754C33.2925 39.7793 29.6991 38.3378 29.1731 34.4148C28.893 32.3094 29.5197 29.8338 30.9352 27.4386C33.6129 22.8993 38.3337 20.0268 41.8739 20.7894C43.3676 21.1096 44.5468 22.1188 45.0842 23.5372Z" fill="#F8CA74"/>
<path d="M49.3378 46.1952C50.6169 49.2392 49.9785 54.5353 47.6314 60.3812C45.7908 64.9579 43.2343 68.9976 40.6738 71.3675C40.0585 71.9351 38.8296 72.7476 38.2862 72.9471C37.4389 73.2554 36.7683 73.2857 35.8956 73.0666C34.4448 72.6952 33.2244 71.9115 32.1318 70.6475C31.5662 69.99 30.6592 68.5065 30.1993 67.4882C29.5903 66.1219 29.1643 64.912 28.323 62.1288C27.5075 59.4399 27.2329 58.7169 26.7862 58.1169C26.2179 57.3559 25.6374 56.8835 23.7735 55.6564C22.4386 54.7772 21.7403 54.2582 21.2173 53.7661C19.2761 51.9224 18.7751 49.6382 19.6041 46.4177C19.8489 45.4582 20.0337 45.093 20.5663 44.497C20.8734 44.158 20.9505 44.0964 21.8204 43.5337C22.6078 43.0243 22.8385 42.8927 23.3453 42.6817C26.4099 41.3894 30.669 40.6869 35.1834 40.7315C40.5515 40.7853 45.1485 41.952 47.5286 43.8685C48.3947 44.5655 48.9487 45.2773 49.3378 46.1952Z" fill="#F8CA74"/>
<path d="M25.1362 43.6968V53.5378H22.739V49.4865H19.0101V53.5378H16.6129V43.6968H19.0101V47.5519H22.739V43.6968H25.1362ZM30.4274 53.65C29.6611 53.65 28.9695 53.4864 28.3527 53.1593C27.7452 52.8322 27.2639 52.365 26.9088 51.7575C26.563 51.15 26.3901 50.4397 26.3901 49.6267C26.3901 48.8229 26.5677 48.1173 26.9228 47.5098C27.2779 46.893 27.7639 46.4211 28.3807 46.094C28.9975 45.7669 29.6891 45.6033 30.4555 45.6033C31.2218 45.6033 31.9134 45.7669 32.5302 46.094C33.147 46.4211 33.633 46.893 33.9882 47.5098C34.3433 48.1173 34.5209 48.8229 34.5209 49.6267C34.5209 50.4304 34.3386 51.1407 33.9741 51.7575C33.619 52.365 33.1284 52.8322 32.5022 53.1593C31.8854 53.4864 31.1938 53.65 30.4274 53.65ZM30.4274 51.5752C30.8854 51.5752 31.2732 51.407 31.591 51.0706C31.9181 50.7341 32.0816 50.2528 32.0816 49.6267C32.0816 49.0005 31.9228 48.5192 31.605 48.1827C31.2966 47.8463 30.9134 47.6781 30.4555 47.6781C29.9882 47.6781 29.6003 47.8463 29.2919 48.1827C28.9835 48.5098 28.8293 48.9911 28.8293 49.6267C28.8293 50.2528 28.9788 50.7341 29.2779 51.0706C29.5863 51.407 29.9695 51.5752 30.4274 51.5752ZM40.1524 51.5051V53.5378H38.9328C38.0636 53.5378 37.3861 53.3276 36.9001 52.907C36.4141 52.4771 36.1711 51.7808 36.1711 50.8182V47.7061H35.2179V45.7155H36.1711V43.8089H38.5683V45.7155H40.1384V47.7061H38.5683V50.8463C38.5683 51.0799 38.6244 51.2481 38.7365 51.3509C38.8487 51.4537 39.0356 51.5051 39.2973 51.5051H40.1524ZM48.8615 49.5005C48.8615 49.7248 48.8474 49.9584 48.8194 50.2014H43.3942C43.4316 50.6874 43.5858 51.0612 43.8568 51.3229C44.1372 51.5752 44.4783 51.7014 44.8802 51.7014C45.4783 51.7014 45.8942 51.4491 46.1278 50.9444H48.6792C48.5484 51.4584 48.3101 51.921 47.9643 52.3322C47.6278 52.7435 47.2026 53.0659 46.6886 53.2995C46.1746 53.5332 45.5998 53.65 44.9643 53.65C44.1979 53.65 43.5157 53.4864 42.9176 53.1593C42.3194 52.8322 41.8522 52.365 41.5157 51.7575C41.1793 51.15 41.011 50.4397 41.011 49.6267C41.011 48.8136 41.1746 48.1033 41.5017 47.4958C41.8381 46.8884 42.3054 46.4211 42.9035 46.094C43.5017 45.7669 44.1886 45.6033 44.9643 45.6033C45.7213 45.6033 46.3942 45.7622 46.983 46.0799C47.5717 46.3977 48.0297 46.851 48.3568 47.4398C48.6932 48.0285 48.8615 48.7154 48.8615 49.5005ZM46.4082 48.8696C46.4082 48.4584 46.268 48.1313 45.9876 47.8883C45.7073 47.6454 45.3568 47.5239 44.9362 47.5239C44.5344 47.5239 44.1933 47.6407 43.9129 47.8743C43.6419 48.108 43.4736 48.4397 43.4082 48.8696H46.4082ZM52.5233 43.1641V53.5378H50.1261V43.1641H52.5233Z" fill="#333333"/>
<path d="M64.9286 45.1828C64.9286 45.9771 64.723 46.7061 64.3118 47.3697C63.9006 48.0332 63.3025 48.5753 62.5174 48.9958C61.7324 49.4164 60.7978 49.664 59.7137 49.7388L59.1109 53.1173C58.8773 54.4163 58.2418 55.0659 57.2044 55.0659C56.6343 55.0659 56.1063 54.8976 55.6203 54.5612C55.1436 54.2248 54.7605 53.7107 54.4708 53.0192C54.181 52.3276 54.0362 51.4771 54.0362 50.4678C54.0362 48.5706 54.3399 46.9631 54.9474 45.6454C55.5642 44.3183 56.3866 43.3276 57.4147 42.6734C58.452 42.0099 59.5922 41.6781 60.8352 41.6781C61.7137 41.6781 62.4567 41.8323 63.0642 42.1407C63.681 42.4491 64.1436 42.8697 64.452 43.4024C64.7697 43.9258 64.9286 44.5192 64.9286 45.1828ZM59.966 48.2949C61.8819 48.0519 62.8399 47.0566 62.8399 45.3089C62.8399 44.6921 62.6342 44.1921 62.223 43.8089C61.8212 43.4164 61.195 43.2202 60.3445 43.2202C59.3819 43.2202 58.5408 43.5239 57.8212 44.1314C57.1109 44.7388 56.5595 45.5846 56.167 46.6687C55.7838 47.7435 55.5922 48.9725 55.5922 50.3556C55.5922 50.9351 55.6483 51.4491 55.7605 51.8977C55.882 52.3463 56.0315 52.6967 56.2091 52.9491C56.396 53.192 56.5735 53.3135 56.7418 53.3135C56.9754 53.3135 57.153 52.9911 57.2745 52.3463L57.7371 49.6967C57.3726 49.6407 57.2137 49.6173 57.2605 49.6267C56.9801 49.5799 56.7978 49.4958 56.7137 49.3743C56.6296 49.2435 56.5876 49.0799 56.5876 48.8837C56.5876 48.6781 56.6436 48.5145 56.7558 48.393C56.8773 48.2715 57.0408 48.2108 57.2464 48.2108C57.3399 48.2108 57.41 48.2154 57.4567 48.2248C57.681 48.2622 57.8539 48.2855 57.9754 48.2949C58.0969 47.5659 58.2698 46.5893 58.4941 45.365C58.5502 45.0472 58.6763 44.8229 58.8726 44.6921C59.0782 44.5519 59.3165 44.4818 59.5875 44.4818C59.8959 44.4818 60.1156 44.5426 60.2464 44.6641C60.3866 44.7762 60.4567 44.9585 60.4567 45.2108C60.4567 45.3603 60.4473 45.4818 60.4287 45.5753L59.966 48.2949ZM70.8989 50.4117C71.0204 50.4117 71.1139 50.4678 71.1793 50.5799C71.254 50.6921 71.2914 50.8463 71.2914 51.0425C71.2914 51.4164 71.2026 51.7061 71.0251 51.9117C70.6793 52.3322 70.1886 52.7201 69.5531 53.0752C68.927 53.4304 68.2541 53.6079 67.5344 53.6079C66.5531 53.6079 65.7915 53.3416 65.2494 52.8089C64.7074 52.2762 64.4363 51.5472 64.4363 50.622C64.4363 49.9771 64.5718 49.379 64.8429 48.8276C65.1139 48.2668 65.4877 47.8229 65.9644 47.4958C66.4503 47.1687 66.9971 47.0052 67.6045 47.0052C68.1466 47.0052 68.5812 47.1687 68.9083 47.4958C69.2354 47.8136 69.3989 48.2482 69.3989 48.7996C69.3989 49.4444 69.1653 50.0005 68.698 50.4678C68.24 50.9257 67.4597 51.2902 66.3569 51.5612C66.5905 51.9911 67.0344 52.2061 67.6886 52.2061C68.1092 52.2061 68.5858 52.0612 69.1185 51.7715C69.6606 51.4724 70.1279 51.0846 70.5204 50.608C70.6325 50.4771 70.7587 50.4117 70.8989 50.4117ZM67.3662 48.379C67.0204 48.379 66.726 48.5799 66.483 48.9818C66.2494 49.3837 66.1326 49.8696 66.1326 50.4397V50.4678C66.684 50.3369 67.1186 50.1407 67.4363 49.879C67.7541 49.6173 67.9129 49.3136 67.9129 48.9678C67.9129 48.7902 67.8615 48.65 67.7587 48.5472C67.6653 48.4351 67.5344 48.379 67.3662 48.379ZM72.4631 48.3369C72.4444 48.8042 72.435 49.1687 72.435 49.4304C72.435 50.1033 72.4677 50.6313 72.5332 51.0145C72.6079 51.3883 72.7247 51.6594 72.8836 51.8276C73.0518 51.9865 73.2808 52.0659 73.5705 52.0659C73.7201 52.0659 73.8976 52.0192 74.1032 51.9257C74.3089 51.8322 74.4958 51.7108 74.664 51.5612C74.7668 51.4678 74.8696 51.421 74.9724 51.421C75.0845 51.421 75.1733 51.4865 75.2388 51.6173C75.3135 51.7388 75.3509 51.8883 75.3509 52.0659C75.3509 52.2435 75.3135 52.4164 75.2388 52.5846C75.1733 52.7528 75.0705 52.893 74.9303 53.0051C74.4444 53.407 73.893 53.6079 73.2761 53.6079C72.3883 53.6079 71.7388 53.2388 71.3276 52.5005C70.9164 51.7528 70.7107 50.7809 70.7107 49.5846C70.7107 49.1734 70.7248 48.7575 70.7528 48.3369H70.2061C69.9257 48.3369 69.7341 48.2855 69.6313 48.1827C69.5379 48.0799 69.4911 47.9164 69.4911 47.6921C69.4911 47.1687 69.7014 46.907 70.122 46.907H70.921C71.0799 45.879 71.3229 44.9398 71.65 44.0893C71.9771 43.2388 72.3696 42.5613 72.8276 42.0566C73.2948 41.5519 73.7948 41.2996 74.3275 41.2996C74.7201 41.2996 75.0285 41.4725 75.2528 41.8183C75.4771 42.1641 75.5892 42.5987 75.5892 43.122C75.5892 44.5706 74.9817 45.8323 73.7668 46.907H75.3369C75.4864 46.907 75.5939 46.9398 75.6593 47.0052C75.7247 47.0706 75.7574 47.1921 75.7574 47.3697C75.7574 48.0145 75.2294 48.3369 74.1733 48.3369H72.4631ZM73.949 42.6454C73.8089 42.6454 73.65 42.823 73.4724 43.1781C73.3042 43.5239 73.1406 44.0099 72.9818 44.636C72.8322 45.2529 72.7061 45.9398 72.6033 46.6968C73.1547 46.2201 73.5659 45.6874 73.8369 45.0986C74.1173 44.5005 74.2574 43.9585 74.2574 43.4725C74.2574 42.9211 74.1546 42.6454 73.949 42.6454Z" fill="#354FD8"/>
<defs>
<filter id="filter0_d_361_3931" x="0" y="0" width="97" height="97" filterUnits="userSpaceOnUse" color-interpolation-filters="sRGB">
<feFlood flood-opacity="0" result="BackgroundImageFix"/>
<feColorMatrix in="SourceAlpha" type="matrix" values="0 0 0 0 0 0 0 0 0 0 0 0 0 0 0 0 0 0 127 0" result="hardAlpha"/>
<feOffset dy="4"/>
<feGaussianBlur stdDeviation="2"/>
<feComposite in2="hardAlpha" operator="out"/>
<feColorMatrix type="matrix" values="0 0 0 0 0 0 0 0 0 0 0 0 0 0 0 0 0 0 0.25 0"/>
<feBlend mode="normal" in2="BackgroundImageFix" result="effect1_dropShadow_361_3931"/>
<feBlend mode="normal" in="SourceGraphic" in2="effect1_dropShadow_361_3931" result="shape"/>
</filter>
</defs>
</svg>
