<svg width="11" height="10" viewBox="0 0 11 10" fill="none" xmlns="http://www.w3.org/2000/svg">
<g clip-path="url(#clip0_111_33)">
<path d="M9.79321 5.24887L9.29705 4.72745V1.94502C9.29693 1.84671 9.25788 1.75247 9.18847 1.68295C9.11905 1.61344 9.02494 1.57434 8.92677 1.57422H1.3732C1.27504 1.57434 1.18092 1.61344 1.11151 1.68295C1.0421 1.75247 1.00305 1.84671 1.00293 1.94502V8.47114C1.00305 8.56945 1.0421 8.66369 1.11151 8.73321C1.18092 8.80272 1.27504 8.84183 1.3732 8.84194H8.92677C9.02494 8.84183 9.11905 8.80272 9.18847 8.73321C9.25788 8.66369 9.29693 8.56945 9.29705 8.47114V6.16972L9.78218 5.70688C9.84421 5.64757 9.88021 5.56603 9.88228 5.48016C9.88435 5.3943 9.85231 5.31111 9.79321 5.24887Z" fill="#E6E7E8"/>
<path d="M8.63055 1.35156H1.07698C0.913383 1.35156 0.780762 1.48437 0.780762 1.6482V8.17432C0.780762 8.33815 0.913383 8.47097 1.07698 8.47097H8.63055C8.79415 8.47097 8.92677 8.33815 8.92677 8.17432V1.6482C8.92677 1.48437 8.79415 1.35156 8.63055 1.35156Z" fill="#D4FBFF"/>
<path d="M3.75441 3.27991H3.24945C3.22978 3.27991 3.21092 3.2721 3.19701 3.25819C3.18311 3.24428 3.17529 3.22542 3.17529 3.20575C3.17529 3.18608 3.18311 3.16722 3.19701 3.15331C3.21092 3.13941 3.22978 3.13159 3.24945 3.13159H3.75441C3.77408 3.13159 3.79294 3.13941 3.80685 3.15331C3.82076 3.16722 3.82857 3.18608 3.82857 3.20575C3.82857 3.22542 3.82076 3.24428 3.80685 3.25819C3.79294 3.2721 3.77408 3.27991 3.75441 3.27991Z" fill="#FA759E"/>
<path d="M2.80499 3.27991H1.55843C1.53879 3.27991 1.51995 3.2721 1.50607 3.25819C1.49218 3.24428 1.48438 3.22542 1.48438 3.20575C1.48438 3.18608 1.49218 3.16722 1.50607 3.15331C1.51995 3.13941 1.53879 3.13159 1.55843 3.13159H2.80499C2.82463 3.13159 2.84347 3.13941 2.85736 3.15331C2.87124 3.16722 2.87905 3.18608 2.87905 3.20575C2.87905 3.22542 2.87124 3.24428 2.85736 3.25819C2.84347 3.2721 2.82463 3.27991 2.80499 3.27991Z" fill="#FA759E"/>
<path d="M3.7535 5.87537H2.99007C2.97043 5.87537 2.95159 5.86756 2.93771 5.85365C2.92382 5.83974 2.91602 5.82088 2.91602 5.80121C2.91602 5.78154 2.92382 5.76268 2.93771 5.74877C2.95159 5.73486 2.97043 5.72705 2.99007 5.72705H3.7535C3.77314 5.72705 3.79198 5.73486 3.80586 5.74877C3.81975 5.76268 3.82755 5.78154 3.82755 5.80121C3.82755 5.82088 3.81975 5.83974 3.80586 5.85365C3.79198 5.86756 3.77314 5.87537 3.7535 5.87537Z" fill="#FA759E"/>
<path d="M2.69391 5.87537H1.55843C1.53879 5.87537 1.51995 5.86756 1.50607 5.85365C1.49218 5.83974 1.48438 5.82088 1.48438 5.80121C1.48438 5.78154 1.49218 5.76268 1.50607 5.74877C1.51995 5.73486 1.53879 5.72705 1.55843 5.72705H2.69391C2.71355 5.72705 2.73239 5.73486 2.74627 5.74877C2.76016 5.76268 2.76796 5.78154 2.76796 5.80121C2.76796 5.82088 2.76016 5.83974 2.74627 5.85365C2.73239 5.86756 2.71355 5.87537 2.69391 5.87537Z" fill="#FA759E"/>
<path d="M3.75365 7.43274H2.65609C2.63645 7.43274 2.61761 7.42493 2.60372 7.41102C2.58983 7.39712 2.58203 7.37825 2.58203 7.35858C2.58203 7.33892 2.58983 7.32005 2.60372 7.30614C2.61761 7.29224 2.63645 7.28442 2.65609 7.28442H3.75365C3.77329 7.28442 3.79213 7.29224 3.80601 7.30614C3.8199 7.32005 3.8277 7.33892 3.8277 7.35858C3.8277 7.37825 3.8199 7.39712 3.80601 7.41102C3.79213 7.42493 3.77329 7.43274 3.75365 7.43274Z" fill="#FA759E"/>
<path d="M2.12621 7.43274H1.55843C1.53879 7.43274 1.51995 7.42493 1.50607 7.41102C1.49218 7.39712 1.48438 7.37825 1.48438 7.35858C1.48438 7.33892 1.49218 7.32005 1.50607 7.30614C1.51995 7.29224 1.53879 7.28442 1.55843 7.28442H2.12621C2.14585 7.28442 2.16468 7.29224 2.17857 7.30614C2.19246 7.32005 2.20026 7.33892 2.20026 7.35858C2.20026 7.37825 2.19246 7.39712 2.17857 7.41102C2.16468 7.42493 2.14585 7.43274 2.12621 7.43274Z" fill="#FA759E"/>
<path d="M8.63055 8.24855H1.07698C0.998418 8.24855 0.923074 8.21729 0.867522 8.16166C0.81197 8.10603 0.780762 8.03058 0.780762 7.9519V8.17439C0.780762 8.25306 0.81197 8.32851 0.867522 8.38414C0.923074 8.43977 0.998418 8.47103 1.07698 8.47103H8.63055C8.70911 8.47103 8.78446 8.43977 8.84001 8.38414C8.89556 8.32851 8.92677 8.25306 8.92677 8.17439V7.9519C8.92677 8.03058 8.89556 8.10603 8.84001 8.16166C8.78446 8.21729 8.70911 8.24855 8.63055 8.24855Z" fill="white"/>
<path d="M8.63055 1.35156H1.07698C0.998418 1.35156 0.923074 1.38282 0.867522 1.43845C0.81197 1.49408 0.780762 1.56953 0.780762 1.6482V2.42689H8.92677V1.6482C8.92677 1.56953 8.89556 1.49408 8.84001 1.43845C8.78446 1.38282 8.70911 1.35156 8.63055 1.35156Z" fill="#0089EF"/>
<path d="M7.34741 1.72876C7.31317 1.72876 7.27971 1.73891 7.25124 1.75793C7.22278 1.77695 7.20059 1.80398 7.18749 1.83561C7.17439 1.86724 7.17096 1.90204 7.17764 1.93562C7.18432 1.96919 7.20081 2.00004 7.22501 2.02424C7.24922 2.04845 7.28006 2.06494 7.31364 2.07161C7.34722 2.07829 7.38202 2.07487 7.41365 2.06177C7.44527 2.04866 7.47231 2.02648 7.49133 1.99801C7.51035 1.96955 7.5205 1.93608 7.5205 1.90185C7.5205 1.85594 7.50226 1.81192 7.4698 1.77946C7.43734 1.747 7.39331 1.72876 7.34741 1.72876Z" fill="white"/>
<path d="M7.86547 1.72876C7.83124 1.72876 7.79777 1.73891 7.76931 1.75793C7.74084 1.77695 7.71866 1.80398 7.70556 1.83561C7.69246 1.86724 7.68903 1.90204 7.69571 1.93562C7.70239 1.96919 7.71887 2.00004 7.74308 2.02424C7.76729 2.04845 7.79813 2.06494 7.83171 2.07161C7.86528 2.07829 7.90008 2.07487 7.93171 2.06177C7.96334 2.04866 7.99037 2.02648 8.00939 1.99801C8.02841 1.96955 8.03856 1.93608 8.03856 1.90185C8.03856 1.85594 8.02033 1.81192 7.98787 1.77946C7.95541 1.747 7.91138 1.72876 7.86547 1.72876Z" fill="#D4FBFF"/>
<path d="M8.3841 1.72876C8.34986 1.72875 8.31639 1.73888 8.28792 1.75789C8.25944 1.77691 8.23725 1.80393 8.22413 1.83556C8.21102 1.86719 8.20758 1.90199 8.21425 1.93557C8.22092 1.96915 8.2374 2 8.26161 2.02422C8.28581 2.04843 8.31665 2.06492 8.35023 2.07161C8.38381 2.07829 8.41862 2.07487 8.45025 2.06177C8.48188 2.04867 8.50892 2.02649 8.52794 1.99802C8.54696 1.96956 8.55712 1.93609 8.55712 1.90185C8.55712 1.85596 8.53889 1.81194 8.50645 1.77948C8.474 1.74702 8.43 1.72878 8.3841 1.72876Z" fill="#FA759E"/>
<path d="M6.92509 7.75175L5.65771 8.02318L5.98955 6.76853L8.50001 4.37315C8.52371 4.35052 8.55164 4.33279 8.58219 4.32097C8.61274 4.30916 8.64532 4.30348 8.67806 4.30427C8.7108 4.30506 8.74306 4.31231 8.77301 4.32559C8.80295 4.33887 8.82999 4.35793 8.85258 4.38168L9.44391 5.00314C9.46651 5.0269 9.48421 5.05488 9.49601 5.0855C9.5078 5.11611 9.51346 5.14875 9.51266 5.18155C9.51185 5.21436 9.5046 5.24668 9.49132 5.27667C9.47803 5.30667 9.45898 5.33375 9.43524 5.35637L6.92509 7.75175Z" fill="#FFD7E5"/>
<path d="M6.92513 7.75175L5.98975 6.76853L8.5002 4.37315C8.5239 4.35052 8.55183 4.33279 8.58238 4.32097C8.61293 4.30916 8.64551 4.30348 8.67825 4.30427C8.71099 4.30506 8.74325 4.31231 8.7732 4.32559C8.80314 4.33887 8.83018 4.35793 8.85277 4.38168L9.4441 5.00314C9.46669 5.02691 9.48438 5.0549 9.49616 5.08552C9.50795 5.11614 9.51359 5.14878 9.51277 5.18158C9.51195 5.21439 9.50469 5.24671 9.49139 5.2767C9.4781 5.30669 9.45903 5.33376 9.43529 5.35637L6.92513 7.75175Z" fill="#6DC9F7"/>
<path d="M9.1962 5.58451L9.4351 5.35646C9.48298 5.31077 9.51077 5.2479 9.51237 5.18169C9.51396 5.11548 9.48923 5.05134 9.44362 5.00339L8.85229 4.38192C8.8297 4.35817 8.80266 4.33911 8.77272 4.32583C8.74277 4.31255 8.71051 4.30531 8.67777 4.30452C8.64503 4.30372 8.61245 4.3094 8.5819 4.32122C8.55135 4.33304 8.52342 4.35076 8.49972 4.37339L8.26074 4.60136L9.1962 5.58451Z" fill="#FA759E"/>
<path d="M6.71562 3.79896C6.73526 3.79896 6.7541 3.79114 6.76799 3.77723C6.78188 3.76333 6.78968 3.74446 6.78968 3.7248C6.78968 3.70513 6.78188 3.68626 6.76799 3.67236C6.7541 3.65845 6.73526 3.65063 6.71562 3.65063H4.47103C4.45139 3.65063 4.43255 3.65845 4.41866 3.67236C4.40477 3.68626 4.39697 3.70513 4.39697 3.7248C4.39697 3.74446 4.40477 3.76333 4.41866 3.77723C4.43255 3.79114 4.45139 3.79896 4.47103 3.79896H6.71562Z" fill="#3A2C60"/>
<path d="M3.94015 3.65063H2.0765C2.05686 3.65063 2.03802 3.65845 2.02413 3.67236C2.01024 3.68626 2.00244 3.70513 2.00244 3.7248C2.00244 3.74446 2.01024 3.76333 2.02413 3.77723C2.03802 3.79114 2.05686 3.79896 2.0765 3.79896H3.94015C3.9598 3.79896 3.97863 3.79114 3.99252 3.77723C4.00641 3.76333 4.01421 3.74446 4.01421 3.7248C4.01421 3.70513 4.00641 3.68626 3.99252 3.67236C3.97863 3.65845 3.9598 3.65063 3.94015 3.65063Z" fill="#3A2C60"/>
<path d="M3.3667 4.24384C3.3667 4.26351 3.3745 4.28237 3.38839 4.29628C3.40228 4.31019 3.42111 4.318 3.44075 4.318H7.45607C7.47571 4.318 7.49455 4.31019 7.50843 4.29628C7.52232 4.28237 7.53012 4.26351 7.53012 4.24384C7.53012 4.22417 7.52232 4.20531 7.50843 4.1914C7.49455 4.17749 7.47571 4.16968 7.45607 4.16968H3.44075C3.42111 4.16968 3.40228 4.17749 3.38839 4.1914C3.3745 4.20531 3.3667 4.22417 3.3667 4.24384Z" fill="#3A2C60"/>
<path d="M2.0765 4.318H2.98981C3.00945 4.318 3.02829 4.31019 3.04218 4.29628C3.05606 4.28237 3.06387 4.26351 3.06387 4.24384C3.06387 4.22417 3.05606 4.20531 3.04218 4.1914C3.02829 4.17749 3.00945 4.16968 2.98981 4.16968H2.0765C2.05686 4.16968 2.03802 4.17749 2.02413 4.1914C2.01024 4.20531 2.00244 4.22417 2.00244 4.24384C2.00244 4.26351 2.01024 4.28237 2.02413 4.29628C2.03802 4.31019 2.05686 4.318 2.0765 4.318Z" fill="#3A2C60"/>
<path d="M2.0765 4.83729H7.45597C7.47561 4.83729 7.49445 4.82947 7.50833 4.81556C7.52222 4.80166 7.53002 4.78279 7.53002 4.76313C7.53002 4.74346 7.52222 4.72459 7.50833 4.71069C7.49445 4.69678 7.47561 4.68896 7.45597 4.68896H2.0765C2.05686 4.68896 2.03802 4.69678 2.02413 4.71069C2.01024 4.72459 2.00244 4.74346 2.00244 4.76313C2.00244 4.78279 2.01024 4.80166 2.02413 4.81556C2.03802 4.82947 2.05686 4.83729 2.0765 4.83729Z" fill="#3A2C60"/>
<path d="M5.98421 5.20801C5.96457 5.20801 5.94573 5.21582 5.93185 5.22973C5.91796 5.24364 5.91016 5.2625 5.91016 5.28217C5.91016 5.30184 5.91796 5.3207 5.93185 5.33461C5.94573 5.34852 5.96457 5.35633 5.98421 5.35633H6.86361C6.88325 5.35633 6.90209 5.34852 6.91597 5.33461C6.92986 5.3207 6.93766 5.30184 6.93766 5.28217C6.93766 5.2625 6.92986 5.24364 6.91597 5.22973C6.90209 5.21582 6.88325 5.20801 6.86361 5.20801H5.98421Z" fill="#3A2C60"/>
<path d="M2.0765 5.35633H5.61275C5.63239 5.35633 5.65123 5.34852 5.66512 5.33461C5.67901 5.3207 5.68681 5.30184 5.68681 5.28217C5.68681 5.2625 5.67901 5.24364 5.66512 5.22973C5.65123 5.21582 5.63239 5.20801 5.61275 5.20801H2.0765C2.05686 5.20801 2.03802 5.21582 2.02413 5.22973C2.01024 5.24364 2.00244 5.2625 2.00244 5.28217C2.00244 5.30184 2.01024 5.3207 2.02413 5.33461C2.03802 5.34852 2.05686 5.35633 2.0765 5.35633Z" fill="#3A2C60"/>
<path d="M5.05111 6.24634C5.03146 6.24634 5.01263 6.25415 4.99874 6.26806C4.98485 6.28197 4.97705 6.30083 4.97705 6.3205C4.97705 6.34017 4.98485 6.35903 4.99874 6.37294C5.01263 6.38685 5.03146 6.39466 5.05111 6.39466H5.82683C5.84647 6.39466 5.8653 6.38685 5.87919 6.37294C5.89308 6.35903 5.90088 6.34017 5.90088 6.3205C5.90088 6.30083 5.89308 6.28197 5.87919 6.26806C5.8653 6.25415 5.84647 6.24634 5.82683 6.24634H5.05111Z" fill="#3A2C60"/>
<path d="M2.0765 6.39466H4.63812C4.65776 6.39466 4.6766 6.38685 4.69048 6.37294C4.70437 6.35903 4.71217 6.34017 4.71217 6.3205C4.71217 6.30083 4.70437 6.28197 4.69048 6.26806C4.6766 6.25415 4.65776 6.24634 4.63812 6.24634H2.0765C2.05686 6.24634 2.03802 6.25415 2.02413 6.26806C2.01024 6.28197 2.00244 6.30083 2.00244 6.3205C2.00244 6.34017 2.01024 6.35903 2.02413 6.37294C2.03802 6.38685 2.05686 6.39466 2.0765 6.39466Z" fill="#3A2C60"/>
<path d="M2.0765 6.9137H5.30839C5.32803 6.9137 5.34687 6.90589 5.36075 6.89198C5.37464 6.87807 5.38244 6.85921 5.38244 6.83954C5.38244 6.81987 5.37464 6.80101 5.36075 6.7871C5.34687 6.77319 5.32803 6.76538 5.30839 6.76538H2.0765C2.05686 6.76538 2.03802 6.77319 2.02413 6.7871C2.01024 6.80101 2.00244 6.81987 2.00244 6.83954C2.00244 6.85921 2.01024 6.87807 2.02413 6.89198C2.03802 6.90589 2.05686 6.9137 2.0765 6.9137Z" fill="#3A2C60"/>
<path d="M0.780703 4.50358C0.800372 4.50358 0.819235 4.49577 0.833143 4.48186C0.847051 4.46795 0.854864 4.44909 0.854864 4.42942V3.85468C0.854864 3.83501 0.847051 3.81615 0.833143 3.80224C0.819235 3.78833 0.800372 3.78052 0.780703 3.78052C0.761035 3.78052 0.742172 3.78833 0.728264 3.80224C0.714356 3.81615 0.706543 3.83501 0.706543 3.85468V4.42942C0.706543 4.44909 0.714356 4.46795 0.728264 4.48186C0.742172 4.49577 0.761035 4.50358 0.780703 4.50358Z" fill="#3A2C60"/>
<path d="M9.49712 4.95224L9.00096 4.43074V1.64839C9.00084 1.55008 8.96179 1.45584 8.89238 1.38632C8.82296 1.31681 8.72885 1.27771 8.63068 1.27759H1.07711C0.978946 1.27771 0.884834 1.31681 0.81542 1.38632C0.746005 1.45584 0.706957 1.55008 0.706839 1.64839V3.52094C0.706839 3.54061 0.714641 3.55947 0.728529 3.57338C0.742417 3.58729 0.761253 3.5951 0.780894 3.5951C0.800534 3.5951 0.81937 3.58729 0.833258 3.57338C0.847146 3.55947 0.854948 3.54061 0.854948 3.52094V2.50124H8.85285V4.28628C8.79175 4.24489 8.71837 4.22564 8.64485 4.2317C8.57133 4.23777 8.50209 4.2688 8.44858 4.31965L5.93813 6.71503C5.92824 6.72452 5.92114 6.73655 5.91762 6.74981L5.58578 8.00453C5.58289 8.01551 5.58255 8.027 5.5848 8.03813C5.58704 8.04925 5.59181 8.05972 5.59873 8.06871C5.60564 8.0777 5.61453 8.08498 5.6247 8.08999C5.63487 8.095 5.64606 8.09761 5.65739 8.0976C5.66259 8.09762 5.66778 8.09707 5.67287 8.09597L6.94017 7.8244C6.95353 7.82155 6.96584 7.81503 6.97571 7.80556L8.85255 6.01473V8.17451C8.85255 8.23351 8.82915 8.2901 8.78748 8.33183C8.74582 8.37355 8.68931 8.39699 8.63039 8.39699H1.07682C1.01789 8.39699 0.961386 8.37355 0.919723 8.33183C0.878059 8.2901 0.854652 8.23351 0.854652 8.17451V4.76313C0.854652 4.74346 0.84685 4.7246 0.832962 4.71069C0.819074 4.69678 0.800238 4.68897 0.780598 4.68897C0.760957 4.68897 0.742121 4.69678 0.728233 4.71069C0.714345 4.7246 0.706543 4.74346 0.706543 4.76313V8.17451C0.706661 8.27282 0.745709 8.36706 0.815123 8.43658C0.884538 8.50609 0.97865 8.54519 1.07682 8.54531H8.63039C8.72855 8.54519 8.82267 8.50609 8.89208 8.43658C8.9615 8.36706 9.00054 8.27282 9.00066 8.17451V5.87316L9.48587 5.41025C9.54789 5.35094 9.58391 5.26943 9.58602 5.18357C9.58813 5.09772 9.55616 5.01453 9.49712 4.95224ZM0.854874 2.35291V1.64839C0.854874 1.58938 0.878281 1.5328 0.919945 1.49107C0.961608 1.44935 1.01812 1.42591 1.07704 1.42591H8.63061C8.68953 1.42591 8.74604 1.44935 8.7877 1.49107C8.82937 1.5328 8.85277 1.58938 8.85277 1.64839V2.35291H0.854874ZM6.92735 7.64678L6.09439 6.7711L8.25834 4.70617L9.09138 5.58193L6.92735 7.64678ZM6.02715 6.91564L6.77999 7.70685L6.003 7.87342L5.82372 7.68505L6.02715 6.91564ZM9.38397 5.30279L9.19883 5.47967L8.36535 4.60391L8.55048 4.42711C8.58417 4.395 8.6292 4.37759 8.67569 4.37872C8.72218 4.37984 8.76633 4.39941 8.79842 4.43311L9.38974 5.05458C9.42178 5.0883 9.43916 5.13335 9.43808 5.17988C9.43699 5.22641 9.41754 5.27061 9.38397 5.30279Z" fill="#3A2C60"/>
</g>
<defs>
<clipPath id="clip0_111_33">
<rect width="9.47899" height="9.49254" fill="white" transform="translate(0.555176 0.313477)"/>
</clipPath>
</defs>
</svg>
