<svg width="242" height="268" viewBox="0 0 242 268" fill="none" xmlns="http://www.w3.org/2000/svg">
<path d="M78.3382 0.239649C74.5394 1.12679 71.6733 2.78734 68.4204 6.04019C65.7818 8.65612 63.8937 11.3175 62.074 14.9343C51.2235 36.6352 54.8858 72.4393 70.1037 92.9573C72.1737 95.7552 75.7678 99.4402 78.2245 101.283C86.277 107.356 95.3304 107.675 102.587 102.147C110.025 96.4603 115.12 85.4962 117.054 71.0062C117.532 67.2757 117.623 55.7201 117.168 51.8986C115.302 35.93 110.548 22.7139 103.11 12.7279C101.245 10.2484 97.5824 6.51788 95.2849 4.76634C93.1466 3.15129 89.0976 1.05855 86.9822 0.489868C85.0941 -0.0333178 80.1125 -0.169801 78.3382 0.239649Z" fill="#2D2D2D"/>
<path d="M167.758 4.83536C160.684 6.22294 153.291 11.6368 147.172 19.8713C139.301 30.4487 133.979 44.4383 131.977 59.8609C131.34 64.7743 131.408 75.7384 132.091 80.1969C133.683 90.3649 137.072 98.1444 142.145 103.194C146.49 107.562 151.949 109.586 157.499 108.927C170.715 107.289 183.75 92.8671 190.71 72.1671C196.488 54.993 197.102 36.9089 192.371 23.1241C187.753 9.68051 178.381 2.71987 167.758 4.83536Z" fill="#2D2D2D"/>
<path d="M21.0158 79.0818C11.7122 80.5604 4.70605 88.0669 1.54419 99.9865C-0.252843 106.833 -0.503062 116.273 0.907265 124.576C4.16012 143.911 15.3517 161.677 28.5906 168.547C35.3693 172.05 42.1252 172.664 47.9257 170.253C56.4787 166.704 62.0973 157.514 63.9398 144.025C64.3037 141.318 64.3037 133.288 63.917 130.149C60.9599 105.082 45.5145 83.0853 28.3404 79.423C26.3159 78.9908 22.7218 78.8316 21.0158 79.0818Z" fill="#2D2D2D"/>
<path d="M213.798 97.5073C205.609 99.2588 197.579 105.014 190.914 113.931C183.681 123.621 178.813 136.269 177.402 149.007C177.038 152.328 177.107 159.471 177.516 162.678C180.291 184.242 194.941 194.592 211.523 186.767C220.417 182.559 228.47 173.892 234.225 162.36C245.144 140.522 244.438 114.932 232.564 103.08C227.56 98.0759 220.668 96.0287 213.798 97.5073Z" fill="#2D2D2D"/>
<path d="M114.962 137.975C99.9031 140.659 80.9092 156.468 64.0763 180.307C50.9056 198.983 41.6248 219.091 38.8496 235.014C38.19 238.836 38.1217 245.66 38.7131 248.276C39.6458 252.348 41.2153 255.032 44.2635 257.875C49.3588 262.584 55.4778 265.359 63.1436 266.428C67.1244 266.974 75.1769 266.769 80.295 265.996C87.1419 264.927 92.9197 263.539 105.863 259.809C118.374 256.215 121.877 255.464 125.335 255.691C129.725 255.987 133.023 257.056 142.486 261.219C149.265 264.199 153.041 265.609 156.271 266.405C168.327 269.317 178.472 265.518 188.913 254.19C192.029 250.824 192.985 249.186 193.963 245.614C194.509 243.567 194.554 243.112 194.554 238.313C194.554 233.968 194.486 232.74 194.031 230.237C191.347 215.065 183.363 196.731 171.83 179.284C158.113 158.538 142.008 143.593 128.565 139.158C123.674 137.542 119.511 137.178 114.962 137.975Z" fill="#2D2D2D"/>
</svg>
