<svg xmlns="http://www.w3.org/2000/svg" width="311" height="155" viewBox="0 0 311 155" fill="none">
<path d="M56.1926 0.491653C55.6676 1.15399 55.6176 1.49744 55.1676 7.21321C54.7426 12.6837 54.3926 16.9767 53.6676 25.906C53.5426 27.5742 53.3176 30.4198 53.1676 32.2351C53.0176 34.0504 52.7926 36.9206 52.6676 38.6132C52.0926 45.7028 51.4926 53.1112 51.1676 57.257C51.0176 59.0723 50.7926 61.9424 50.6676 63.6351C50.2176 69.0565 49.9426 72.5154 49.6676 75.9007C49.3426 80.0465 48.7426 87.4549 48.1676 94.5445C48.0426 96.2371 47.8176 99.1073 47.6676 100.923C47.5176 102.738 47.2926 105.608 47.1676 107.301C46.7176 112.722 46.4426 116.181 46.1676 119.566C46.0176 121.382 45.7926 124.203 45.6676 125.822C45.5426 127.441 45.3426 129.747 45.2426 130.973C45.0926 133.132 45.0676 133.157 44.8926 131.955C44.7926 131.268 44.5926 130.017 44.4676 129.134C44.3176 128.25 43.9676 125.944 43.6676 123.982C43.3676 122.019 43.0426 119.812 42.9176 119.076C42.7926 118.34 42.4676 116.132 42.1676 114.169C41.8676 112.207 41.5426 109.999 41.4176 109.263C41.2926 108.527 40.9676 106.319 40.6676 104.357C40.3676 102.394 40.0426 100.187 39.9176 99.4507C39.5176 96.8749 39.1176 94.4218 38.8926 92.8763C38.7676 92.0423 38.5676 90.6685 38.4426 89.8099C38.3176 88.9759 38.0676 87.4549 37.9176 86.4492C37.7676 85.4434 37.5176 83.947 37.4176 83.1374C37.1676 81.4448 36.2426 75.4346 35.9176 73.4476C35.7926 72.7117 35.4676 70.5038 35.1676 68.5413C34.8676 66.5788 34.5426 64.371 34.4176 63.6351C34.2926 62.8992 34.0176 61.0593 33.7926 59.5874C33.2676 56.104 33.2176 55.9323 32.6426 55.319C32.0176 54.6812 30.4426 54.6321 29.6926 55.2209C29.3426 55.4907 28.9676 56.3248 28.6676 57.3796C27.1426 63.0709 24.3676 73.5212 23.7426 76.0234L23.3676 77.4952L6.7676 77.4217L-9.8324 77.3481V79.5804V81.7882H8.1176C17.9676 81.7882 26.1676 81.6901 26.2926 81.592C27.0926 81.0277 26.9676 81.4202 30.1926 69.1792C30.3426 68.664 30.4926 68.296 30.5676 68.3451C30.6176 68.4187 30.7926 69.2773 30.9176 70.2831C31.0426 71.2888 31.2676 72.8098 31.4176 73.6929C31.5676 74.576 31.7926 76.0479 31.9176 77.0046C32.5176 80.9542 32.8176 82.9412 33.4176 86.6945C33.5426 87.4304 33.8676 89.6382 34.1676 91.6007C34.4676 93.5632 34.7926 95.771 34.9176 96.507C35.0426 97.2429 35.3676 99.4507 35.6676 101.413C35.9676 103.376 36.2926 105.584 36.4176 106.319C36.5426 107.055 36.8676 109.263 37.1676 111.226C37.4676 113.188 37.7926 115.396 37.9176 116.132C38.3176 118.708 38.7176 121.161 38.9426 122.682C39.0676 123.54 39.2676 124.914 39.3926 125.748C39.6176 127.294 40.0176 129.747 40.4176 132.323C40.5426 133.059 40.8676 135.266 41.1676 137.229C41.4676 139.191 41.7926 141.399 41.9176 142.135C42.1176 143.337 42.8176 147.974 43.4176 152.07C43.5926 153.199 43.7926 153.665 44.2926 154.106C45.1176 154.793 46.3926 154.818 47.2176 154.155C47.9176 153.64 48.0426 152.806 48.6676 144.711C48.8176 142.822 49.0426 139.903 49.1676 138.21C49.3176 136.517 49.5426 133.77 49.6676 132.077C49.7926 130.385 50.0176 127.637 50.1676 125.944C50.2926 124.252 50.5176 121.382 50.6676 119.566C50.8176 117.751 51.0426 114.881 51.1676 113.188C51.3176 111.496 51.5426 108.797 51.6676 107.178C52.0926 101.781 52.4176 97.6354 52.6676 94.6671C52.7926 93.0481 53.0176 90.1779 53.1676 88.289C53.3176 86.4001 53.5426 83.6281 53.6676 82.1562C53.7926 80.6598 54.0176 77.8632 54.1676 75.9007C54.3176 73.9382 54.5426 71.1171 54.6676 69.6452C54.7926 68.1488 55.0176 65.4013 55.1676 63.5124C55.3176 61.6235 55.5426 58.7043 55.6926 57.0117C56.0676 52.2035 56.3676 48.3521 56.6676 44.6234C56.9426 41.0418 57.1926 38.2452 57.7176 32.2351C58.0676 28.2365 58.0926 28.2856 58.6676 34.8109C58.8176 36.5526 59.0426 39.1038 59.1676 40.4531C59.5176 44.1082 60.1176 50.4127 60.6676 56.5701C60.9926 59.9309 61.3426 63.8559 61.6676 67.3638C61.8176 68.8848 62.0426 71.2888 62.1676 72.7117C62.4676 75.8517 62.8426 80.0956 63.1676 83.3827C63.2926 84.732 63.5176 87.2587 63.6676 89.0249C64.3426 96.7523 64.4676 97.0712 66.4176 97.0467C68.0426 97.0221 68.8176 96.0899 71.7176 90.7421C73.0926 88.1909 74.7426 85.149 75.3926 83.996L76.5426 81.9109L109.118 81.8373L141.668 81.7882V79.6049V77.4462L140.593 76.4895C138.818 74.9195 136.818 73.2759 134.393 71.4115C131.768 69.3754 131.893 69.4735 126.043 65.107C119.043 59.8818 118.368 59.3667 116.668 57.9929C104.243 47.9842 99.6926 41.3607 98.1676 31.0821C97.4926 26.4702 98.2926 21.8338 100.443 17.7617C102.468 13.9102 105.968 10.3777 110.168 7.94916C115.343 4.93181 122.743 3.33728 128.618 3.99962C131.443 4.29399 135.643 5.17712 136.018 5.52055C136.168 5.64322 136.418 5.74135 136.618 5.74135C137.243 5.74135 141.218 7.72838 143.143 9.004C146.618 11.2854 149.143 14.131 151.668 18.5467C152.418 19.8713 153.143 20.9017 153.268 20.8771C153.368 20.8281 154.143 19.6506 154.993 18.2523C157.468 14.0084 159.843 11.359 163.218 9.10213C172.318 2.96931 184.568 2.15977 194.518 7.01697C201.668 10.5249 206.593 16.3879 208.043 23.1585C208.518 25.3909 208.518 30.0763 208.068 32.4804C206.043 42.759 200.068 49.9221 182.668 62.8501C176.918 67.1185 170.668 72.0002 166.593 75.3856L164.418 77.2254V79.5068V81.7882L196.118 81.8373L227.793 81.9109L228.943 83.996C229.593 85.149 231.243 88.1909 232.618 90.7421C235.518 96.0899 236.293 97.0221 237.918 97.0467C239.868 97.0712 239.993 96.7523 240.668 89.0249C240.818 87.2587 241.043 84.732 241.168 83.3827C241.418 80.8806 241.743 77.4217 242.168 72.7607C242.293 71.3134 242.518 68.8848 242.668 67.3638C242.793 65.8674 243.043 63.3898 243.168 61.9179C243.318 60.4215 243.543 57.9929 243.668 56.521C243.818 55.0246 244.018 52.6451 244.168 51.1732C244.493 47.6162 244.893 43.4213 245.168 40.4531C245.293 39.1038 245.518 36.5526 245.668 34.8109C246.243 28.2856 246.268 28.2365 246.618 32.2351C247.143 38.2452 247.393 41.0418 247.668 44.6234C247.818 46.5123 248.043 49.4315 248.193 51.1242C248.568 55.9323 248.868 59.7837 249.168 63.5124C249.318 65.4013 249.543 68.1488 249.668 69.6452C249.793 71.1171 250.018 73.9382 250.168 75.9007C250.318 77.8632 250.543 80.6598 250.668 82.1562C250.793 83.6281 251.018 86.4001 251.168 88.289C251.318 90.1779 251.543 93.0481 251.668 94.6671C251.793 96.2862 252.018 99.1073 252.168 100.923C252.693 107.472 252.918 110.294 253.168 113.237C253.293 114.905 253.518 117.751 253.668 119.566C253.968 123.393 254.293 127.367 254.668 132.077C255.193 138.627 255.418 141.326 255.668 144.711C256.293 152.806 256.418 153.64 257.118 154.155C257.943 154.818 259.218 154.793 260.043 154.082C260.543 153.665 260.743 153.199 260.918 152.07C261.518 147.974 262.218 143.337 262.418 142.135C262.543 141.399 262.868 139.191 263.168 137.229C263.468 135.266 263.793 133.059 263.918 132.323C264.318 129.747 264.718 127.294 264.943 125.748C265.068 124.914 265.268 123.54 265.393 122.682C265.618 121.161 266.018 118.708 266.418 116.132C266.543 115.396 266.868 113.188 267.168 111.226C267.468 109.263 267.793 107.055 267.918 106.319C268.043 105.584 268.368 103.376 268.668 101.413C268.968 99.4507 269.293 97.2429 269.418 96.507C269.543 95.771 269.868 93.5632 270.168 91.6007C270.468 89.6382 270.793 87.4304 270.918 86.6945C271.518 82.9412 271.818 80.9542 272.418 77.0046C272.543 76.0479 272.768 74.576 272.918 73.6929C273.068 72.8098 273.293 71.2888 273.418 70.2831C273.543 69.2773 273.718 68.4187 273.768 68.3451C273.843 68.296 273.993 68.664 274.143 69.1792C277.368 81.4202 277.243 81.0277 278.043 81.592C278.193 81.6901 285.468 81.7882 294.243 81.7882H310.168V79.5804V77.3481L295.568 77.4217L280.968 77.4952L280.593 76.0234C279.968 73.5212 277.193 63.0709 275.668 57.3796C275.368 56.3248 274.993 55.4907 274.643 55.2209C273.893 54.6321 272.318 54.6812 271.693 55.319C271.118 55.9323 271.068 56.104 270.543 59.5874C270.318 61.0593 270.043 62.8992 269.918 63.6351C269.793 64.371 269.468 66.5788 269.168 68.5413C268.868 70.5038 268.543 72.7117 268.418 73.4476C268.093 75.4346 267.168 81.4448 266.918 83.1374C266.818 83.947 266.568 85.4434 266.418 86.4492C266.268 87.4549 266.018 89.0004 265.893 89.8835C265.343 93.5632 264.993 95.771 264.418 99.4507C264.293 100.187 263.968 102.394 263.668 104.357C263.368 106.319 263.043 108.527 262.918 109.263C262.793 109.999 262.468 112.207 262.168 114.169C261.868 116.132 261.543 118.34 261.418 119.076C261.293 119.812 260.968 122.019 260.668 123.982C260.368 125.944 260.018 128.25 259.868 129.134C259.743 130.017 259.543 131.268 259.443 131.955C259.268 133.157 259.243 133.132 259.093 130.973C258.993 129.747 258.793 127.441 258.668 125.822C258.543 124.203 258.318 121.382 258.168 119.566C258.018 117.751 257.793 114.905 257.668 113.237C257.518 111.594 257.318 108.895 257.168 107.227C257.043 105.584 256.818 102.738 256.668 100.923C256.368 97.0957 256.043 93.1217 255.668 88.4117C255.293 83.7017 254.968 79.7276 254.668 75.9007C254.518 74.0854 254.293 71.2398 254.168 69.5716C254.018 67.9281 253.818 65.2296 253.668 63.5615C253.543 61.9179 253.318 59.0723 253.168 57.257C252.843 53.1112 252.243 45.7028 251.668 38.6132C251.543 36.9206 251.318 34.0504 251.168 32.2351C250.918 28.997 250.693 26.2004 250.168 19.9695C249.843 15.8727 249.493 11.5307 249.168 7.21321C248.718 1.49744 248.668 1.15399 248.143 0.491653C247.468 -0.366943 245.693 -0.416 244.943 0.369003C244.318 1.03134 244.218 1.4729 243.918 5.12807C243.768 6.74713 243.543 9.24931 243.418 10.6967C243.268 12.1685 243.068 14.5481 242.918 16.0445C242.793 17.5163 242.568 19.9449 242.418 21.4413C242.293 22.9132 242.068 25.3418 241.918 26.8382C241.793 28.3101 241.568 30.7387 241.418 32.2351C241.293 33.707 241.068 36.1356 240.918 37.632C240.793 39.1284 240.568 41.5324 240.418 43.0288C240.293 44.5007 240.068 46.9293 239.918 48.4257C239.793 49.9221 239.568 52.3262 239.418 53.8226C239.293 55.319 239.068 57.7476 238.918 59.2195C238.793 60.7159 238.568 63.1445 238.418 64.6163C238.293 66.1127 238.068 68.5413 237.918 70.0132C237.368 75.8517 237.168 78.1085 236.893 80.9296C236.743 82.5487 236.543 84.8056 236.468 85.9585L236.293 88.0437L235.143 85.9585C234.518 84.8056 233.393 82.7695 232.693 81.4202C231.968 80.071 231.193 78.6973 230.918 78.3538L230.443 77.7406L200.743 77.6179L171.043 77.4952L173.668 75.3856C175.118 74.2326 177.693 72.1965 179.418 70.8963C181.143 69.5962 182.718 68.3941 182.918 68.2224C183.118 68.0507 184.693 66.8732 186.418 65.5976C188.143 64.322 189.593 63.2181 189.668 63.1445C189.743 63.0709 190.293 62.6293 190.918 62.1632C191.543 61.6971 192.093 61.2556 192.168 61.182C192.243 61.1084 192.818 60.6423 193.468 60.1271C194.118 59.612 194.793 59.0723 194.968 58.9006C195.143 58.7288 196.018 57.9929 196.918 57.257C199.368 55.2209 203.793 50.7562 205.543 48.5484C210.843 41.8759 213.418 35.1052 213.418 27.8195C213.418 20.5827 210.743 14.499 205.193 9.17572C200.118 4.29399 194.243 1.42384 186.568 0.0991516C184.343 -0.268814 176.668 -0.219757 174.293 0.221817C166.593 1.57103 160.593 4.63744 155.468 9.83806C154.193 11.1382 153.068 12.0949 152.943 11.9723C152.843 11.8496 152.218 11.1137 151.568 10.3532C148.593 6.86978 143.143 3.41087 137.793 1.62009C133.768 0.270874 130.918 -0.146164 125.768 -0.146164C121.343 -0.146164 120.318 -0.0480347 116.968 0.736969C109.618 2.45415 102.743 6.69806 98.6426 11.9968C96.2176 15.1613 95.1176 17.222 94.0176 20.8281C93.3676 22.9132 93.3176 23.3057 93.3176 27.8195C93.3176 32.971 93.5176 34.4674 94.8176 38.2452C95.7176 40.9192 98.0176 45.3838 99.3426 47.0765C99.4676 47.1992 99.7426 47.6162 99.9676 47.9596C100.193 48.3031 100.543 48.7446 100.718 48.9409C100.893 49.1371 101.493 49.824 102.043 50.5109C103.343 52.0809 107.868 56.521 109.918 58.2382C110.818 58.9742 111.593 59.6365 111.668 59.7101C111.743 59.7837 112.693 60.5442 113.793 61.4027C114.893 62.2368 116.018 63.1445 116.318 63.3898C116.618 63.6106 118.693 65.1806 120.943 66.8242C123.193 68.4923 125.093 69.9151 125.168 70.0132C125.243 70.0868 125.693 70.4302 126.168 70.7492C126.643 71.0681 127.093 71.4115 127.168 71.4851C127.243 71.5587 128.243 72.3437 129.418 73.2023C130.593 74.0609 131.668 74.8949 131.818 75.0421C131.968 75.1648 132.668 75.729 133.368 76.2687C134.068 76.8084 134.643 77.3235 134.668 77.4217C134.668 77.5443 121.043 77.6179 104.418 77.6179H74.1426L73.5926 78.2066C73.2676 78.5501 72.4176 79.9484 71.6926 81.3466C70.9426 82.7449 69.8176 84.8056 69.1926 85.9585L68.0426 88.0437L67.8676 85.9585C67.7926 84.8056 67.5926 82.5487 67.4426 80.9296C67.1676 78.1085 66.9676 75.8517 66.4176 70.0132C66.2926 68.5413 66.0676 66.1127 65.9176 64.6163C65.7926 63.1445 65.5676 60.6913 65.4176 59.2195C65.2926 57.7231 65.0676 55.2945 64.9176 53.8226C64.7926 52.3262 64.5676 49.8976 64.4176 48.4257C64.2926 46.9293 64.0676 44.5007 63.9176 43.0288C63.7926 41.5324 63.5676 39.1038 63.4176 37.632C63.2926 36.1356 63.0676 33.707 62.9176 32.2351C62.7926 30.7387 62.5676 28.3101 62.4176 26.8382C62.2926 25.3418 62.0676 22.9132 61.9176 21.4413C61.7926 19.9449 61.5676 17.5163 61.4176 16.0445C61.2926 14.5481 61.0676 12.1685 60.9176 10.6967C60.7926 9.24931 60.5676 6.74713 60.4176 5.12807C60.1176 1.4729 60.0176 1.03134 59.3926 0.369003C58.6426 -0.416 56.8676 -0.366943 56.1926 0.491653Z" fill="#A16D07"/>
</svg>