<svg width="203" height="48" viewBox="0 0 203 48" fill="none" xmlns="http://www.w3.org/2000/svg">
<path d="M29.2538 8.304V42H21.0458V28.128H8.27775V42H0.0697501V8.304H8.27775V21.504H21.0458V8.304H29.2538ZM47.3711 42.384C44.7471 42.384 42.3791 41.824 40.2671 40.704C38.1871 39.584 36.5391 37.984 35.3231 35.904C34.1391 33.824 33.5471 31.392 33.5471 28.608C33.5471 25.856 34.1551 23.44 35.3711 21.36C36.5871 19.248 38.2511 17.632 40.3631 16.512C42.4751 15.392 44.8431 14.832 47.4671 14.832C50.0911 14.832 52.4591 15.392 54.5711 16.512C56.6831 17.632 58.3471 19.248 59.5631 21.36C60.7791 23.44 61.3871 25.856 61.3871 28.608C61.3871 31.36 60.7631 33.792 59.5151 35.904C58.2991 37.984 56.6191 39.584 54.4751 40.704C52.3631 41.824 49.9951 42.384 47.3711 42.384ZM47.3711 35.28C48.9391 35.28 50.2671 34.704 51.3551 33.552C52.4751 32.4 53.0351 30.752 53.0351 28.608C53.0351 26.464 52.4911 24.816 51.4031 23.664C50.3471 22.512 49.0351 21.936 47.4671 21.936C45.8671 21.936 44.5391 22.512 43.4831 23.664C42.4271 24.784 41.8991 26.432 41.8991 28.608C41.8991 30.752 42.4111 32.4 43.4351 33.552C44.4911 34.704 45.8031 35.28 47.3711 35.28ZM80.6696 35.04V42H76.4936C73.5176 42 71.1976 41.28 69.5336 39.84C67.8696 38.368 67.0376 35.984 67.0376 32.688V22.032H63.7736V15.216H67.0376V8.688H75.2456V15.216H80.6216V22.032H75.2456V32.784C75.2456 33.584 75.4376 34.16 75.8216 34.512C76.2056 34.864 76.8456 35.04 77.7416 35.04H80.6696ZM110.49 28.176C110.49 28.944 110.442 29.744 110.346 30.576H91.7696C91.8976 32.24 92.4256 33.52 93.3536 34.416C94.3136 35.28 95.4816 35.712 96.8576 35.712C98.9056 35.712 100.33 34.848 101.13 33.12H109.866C109.418 34.88 108.602 36.464 107.418 37.872C106.266 39.28 104.81 40.384 103.05 41.184C101.29 41.984 99.3216 42.384 97.1456 42.384C94.5216 42.384 92.1856 41.824 90.1376 40.704C88.0896 39.584 86.4896 37.984 85.3376 35.904C84.1856 33.824 83.6096 31.392 83.6096 28.608C83.6096 25.824 84.1696 23.392 85.2896 21.312C86.4416 19.232 88.0416 17.632 90.0896 16.512C92.1376 15.392 94.4896 14.832 97.1456 14.832C99.7376 14.832 102.042 15.376 104.058 16.464C106.074 17.552 107.642 19.104 108.762 21.12C109.914 23.136 110.49 25.488 110.49 28.176ZM102.09 26.016C102.09 24.608 101.61 23.488 100.65 22.656C99.6896 21.824 98.4896 21.408 97.0496 21.408C95.6736 21.408 94.5056 21.808 93.5456 22.608C92.6176 23.408 92.0416 24.544 91.8176 26.016H102.09ZM123.028 6.48V42H114.82V6.48H123.028Z" fill="#333333"/>
<path d="M165.504 13.392C165.504 16.112 164.8 18.608 163.392 20.88C161.984 23.152 159.936 25.008 157.248 26.448C154.56 27.888 151.36 28.736 147.648 28.992L145.584 40.56C144.784 45.008 142.608 47.232 139.056 47.232C137.104 47.232 135.296 46.656 133.632 45.504C132 44.352 130.688 42.592 129.696 40.224C128.704 37.856 128.208 34.944 128.208 31.488C128.208 24.992 129.248 19.488 131.328 14.976C133.44 10.432 136.256 7.04 139.776 4.8C143.328 2.528 147.232 1.392 151.488 1.392C154.496 1.392 157.04 1.92 159.12 2.976C161.232 4.032 162.816 5.472 163.872 7.296C164.96 9.088 165.504 11.12 165.504 13.392ZM148.512 24.048C155.072 23.216 158.352 19.808 158.352 13.824C158.352 11.712 157.648 10 156.24 8.688C154.864 7.344 152.72 6.672 149.808 6.672C146.512 6.672 143.632 7.712 141.168 9.792C138.736 11.872 136.848 14.768 135.504 18.48C134.192 22.16 133.536 26.368 133.536 31.104C133.536 33.088 133.728 34.848 134.112 36.384C134.528 37.92 135.04 39.12 135.648 39.984C136.288 40.816 136.896 41.232 137.472 41.232C138.272 41.232 138.88 40.128 139.296 37.92L140.88 28.848C139.632 28.656 139.088 28.576 139.248 28.608C138.288 28.448 137.664 28.16 137.376 27.744C137.088 27.296 136.944 26.736 136.944 26.064C136.944 25.36 137.136 24.8 137.52 24.384C137.936 23.968 138.496 23.76 139.2 23.76C139.52 23.76 139.76 23.776 139.92 23.808C140.688 23.936 141.28 24.016 141.696 24.048C142.112 21.552 142.704 18.208 143.472 14.016C143.664 12.928 144.096 12.16 144.768 11.712C145.472 11.232 146.288 10.992 147.216 10.992C148.272 10.992 149.024 11.2 149.472 11.616C149.952 12 150.192 12.624 150.192 13.488C150.192 14 150.16 14.416 150.096 14.736L148.512 24.048ZM185.946 31.296C186.362 31.296 186.682 31.488 186.906 31.872C187.162 32.256 187.29 32.784 187.29 33.456C187.29 34.736 186.986 35.728 186.378 36.432C185.194 37.872 183.514 39.2 181.338 40.416C179.194 41.632 176.89 42.24 174.426 42.24C171.066 42.24 168.458 41.328 166.602 39.504C164.746 37.68 163.818 35.184 163.818 32.016C163.818 29.808 164.282 27.76 165.21 25.872C166.138 23.952 167.418 22.432 169.05 21.312C170.714 20.192 172.586 19.632 174.666 19.632C176.522 19.632 178.01 20.192 179.13 21.312C180.25 22.4 180.81 23.888 180.81 25.776C180.81 27.984 180.01 29.888 178.41 31.488C176.842 33.056 174.17 34.304 170.394 35.232C171.194 36.704 172.714 37.44 174.954 37.44C176.394 37.44 178.026 36.944 179.85 35.952C181.706 34.928 183.306 33.6 184.65 31.968C185.034 31.52 185.466 31.296 185.946 31.296ZM173.85 24.336C172.666 24.336 171.658 25.024 170.826 26.4C170.026 27.776 169.626 29.44 169.626 31.392V31.488C171.514 31.04 173.002 30.368 174.09 29.472C175.178 28.576 175.722 27.536 175.722 26.352C175.722 25.744 175.546 25.264 175.194 24.912C174.874 24.528 174.426 24.336 173.85 24.336ZM191.302 24.192C191.238 25.792 191.206 27.04 191.206 27.936C191.206 30.24 191.318 32.048 191.542 33.36C191.798 34.64 192.198 35.568 192.742 36.144C193.318 36.688 194.102 36.96 195.094 36.96C195.606 36.96 196.214 36.8 196.918 36.48C197.622 36.16 198.262 35.744 198.838 35.232C199.19 34.912 199.542 34.752 199.894 34.752C200.278 34.752 200.582 34.976 200.806 35.424C201.062 35.84 201.19 36.352 201.19 36.96C201.19 37.568 201.062 38.16 200.806 38.736C200.582 39.312 200.23 39.792 199.75 40.176C198.086 41.552 196.198 42.24 194.086 42.24C191.046 42.24 188.822 40.976 187.414 38.448C186.006 35.888 185.302 32.56 185.302 28.464C185.302 27.056 185.35 25.632 185.446 24.192H183.574C182.614 24.192 181.958 24.016 181.606 23.664C181.286 23.312 181.126 22.752 181.126 21.984C181.126 20.192 181.846 19.296 183.286 19.296H186.022C186.566 15.776 187.398 12.56 188.518 9.648C189.638 6.736 190.982 4.416 192.55 2.688C194.15 0.959998 195.862 0.0959988 197.686 0.0959988C199.03 0.0959988 200.086 0.687999 200.854 1.872C201.622 3.056 202.006 4.544 202.006 6.336C202.006 11.296 199.926 15.616 195.766 19.296H201.142C201.654 19.296 202.022 19.408 202.246 19.632C202.47 19.856 202.582 20.272 202.582 20.88C202.582 23.088 200.774 24.192 197.158 24.192H191.302ZM196.39 4.704C195.91 4.704 195.366 5.312 194.758 6.528C194.182 7.712 193.622 9.376 193.078 11.52C192.566 13.632 192.134 15.984 191.782 18.576C193.67 16.944 195.078 15.12 196.006 13.104C196.966 11.056 197.446 9.2 197.446 7.536C197.446 5.648 197.094 4.704 196.39 4.704Z" fill="#354FD8"/>
</svg>
