<svg width="64" height="64" viewBox="0 0 64 64" fill="none" xmlns="http://www.w3.org/2000/svg">
<g filter="url(#filter0_d_251_1783)">
<circle cx="32" cy="29" r="29" fill="white"/>
</g>
<path d="M51.6127 23.9068C51.7982 24.4233 51.8211 24.8887 51.6854 25.5215C51.578 26.033 51.408 26.4593 51.1198 26.9506C49.3857 29.8903 44.8769 32.1934 41.2907 31.9637C40.802 31.933 40.0922 31.79 39.6868 31.6406C38.3542 31.1536 37.6249 30.1086 37.7233 28.8292C37.8267 27.5161 38.7324 26.0765 40.2961 24.741C40.7002 24.3995 42.0581 23.5059 42.5443 23.2676C44.5729 22.2678 46.4972 21.8196 48.245 21.9351C48.6804 21.966 49.4008 22.1135 49.7832 22.2511C50.1374 22.3802 50.6939 22.6986 50.9227 22.905C51.1288 23.088 51.5255 23.666 51.6127 23.9068Z" fill="#F8CA74"/>
<path d="M44.2377 13.6959C44.6143 14.6375 44.5397 15.9244 44.0346 17.2763C43.3866 19.0141 42.141 20.7117 40.4723 22.1265C39.9406 22.5772 38.6404 23.4069 38.0617 23.6669C36.739 24.2557 35.5612 24.4498 34.5771 24.2365C33.7293 24.0571 33.0731 23.5669 32.7269 22.8609C31.9105 21.1748 32.618 18.5334 34.5312 16.1296C36.1182 14.1349 38.2072 12.6807 40.1969 12.1863C42.1376 11.7045 43.6759 12.2796 44.2377 13.6959Z" fill="#F8CA74"/>
<path d="M46.6804 36.7014C47.2166 37.9132 46.8653 39.3143 45.699 40.5985C45.0276 41.3339 43.9317 42.0848 42.8433 42.5526C40.311 43.6457 37.3575 43.6812 35.5346 42.6424C34.6029 42.1094 34.0141 41.3584 33.8557 40.489C33.6214 39.2076 34.2775 37.8419 35.73 36.5936C36.0219 36.3438 36.9703 35.7302 37.3707 35.536C40.5574 33.97 44.3356 34.1136 46.0804 35.8623C46.2862 36.0684 46.5796 36.4808 46.6804 36.7014Z" fill="#F8CA74"/>
<path d="M29.7741 15.3388C30.1929 16.4399 30.1267 17.828 29.5827 19.2966C28.9909 20.8914 27.869 22.4327 26.4721 23.5726C26.1077 23.8693 25.2588 24.407 24.8487 24.6037C22.0896 25.9236 19.7478 24.9841 19.405 22.4276C19.2225 21.0555 19.6309 19.4422 20.5534 17.8813C22.2984 14.9231 25.3749 13.0511 27.682 13.5481C28.6554 13.7568 29.4238 14.4145 29.7741 15.3388Z" fill="#F8CA74"/>
<path d="M32.5461 30.1048C33.3796 32.0886 32.9636 35.5399 31.434 39.3496C30.2345 42.3322 28.5685 44.9648 26.8998 46.5092C26.4988 46.8791 25.698 47.4086 25.3439 47.5386C24.7917 47.7396 24.3547 47.7593 23.786 47.6165C22.8405 47.3744 22.0452 46.8637 21.3332 46.04C20.9645 45.6115 20.3734 44.6448 20.0737 43.9812C19.6769 43.0908 19.3993 42.3023 18.851 40.4885C18.3196 38.7362 18.1406 38.265 17.8495 37.874C17.4791 37.3781 17.1009 37.0702 15.8862 36.2706C15.0163 35.6976 14.5612 35.3593 14.2203 35.0387C12.9553 33.8371 12.6288 32.3486 13.169 30.2498C13.3286 29.6245 13.449 29.3865 13.7961 28.9981C13.9962 28.7772 14.0464 28.7371 14.6134 28.3704C15.1265 28.0384 15.2768 27.9526 15.6071 27.8151C17.6043 26.9729 20.3799 26.5151 23.3218 26.5442C26.8202 26.5792 29.8159 27.3396 31.367 28.5885C31.9314 29.0428 32.2925 29.5067 32.5461 30.1048Z" fill="#F8CA74"/>
<path d="M16.7237 28.7462V35.1595H15.1615V32.5193H12.7314V35.1595H11.1692V28.7462H12.7314V31.2585H15.1615V28.7462H16.7237ZM20.1719 35.2326C19.6725 35.2326 19.2218 35.126 18.8198 34.9128C18.4239 34.6997 18.1103 34.3951 17.8788 33.9992C17.6535 33.6034 17.5408 33.1405 17.5408 32.6106C17.5408 32.0868 17.6565 31.627 17.888 31.2311C18.1194 30.8292 18.4361 30.5216 18.8381 30.3084C19.2401 30.0953 19.6908 29.9887 20.1902 29.9887C20.6896 29.9887 21.1403 30.0953 21.5423 30.3084C21.9442 30.5216 22.2609 30.8292 22.4924 31.2311C22.7238 31.627 22.8395 32.0868 22.8395 32.6106C22.8395 33.1344 22.7208 33.5973 22.4832 33.9992C22.2518 34.3951 21.9321 34.6997 21.524 34.9128C21.122 35.126 20.6713 35.2326 20.1719 35.2326ZM20.1719 33.8805C20.4703 33.8805 20.7231 33.7709 20.9302 33.5516C21.1433 33.3323 21.2499 33.0187 21.2499 32.6106C21.2499 32.2026 21.1464 31.8889 20.9393 31.6696C20.7383 31.4504 20.4886 31.3408 20.1902 31.3408C19.8857 31.3408 19.6329 31.4504 19.4319 31.6696C19.2309 31.8828 19.1304 32.1965 19.1304 32.6106C19.1304 33.0187 19.2279 33.3323 19.4228 33.5516C19.6238 33.7709 19.8735 33.8805 20.1719 33.8805ZM26.5095 33.8348V35.1595H25.7147C25.1483 35.1595 24.7067 35.0224 24.39 34.7484C24.0733 34.4682 23.915 34.0145 23.915 33.3872V31.359H23.2937V30.0618H23.915V28.8193H25.4772V30.0618H26.5004V31.359H25.4772V33.4054C25.4772 33.5577 25.5137 33.6673 25.5868 33.7343C25.6599 33.8013 25.7817 33.8348 25.9522 33.8348H26.5095ZM32.1851 32.5284C32.1851 32.6746 32.1759 32.8268 32.1577 32.9852H28.6222C28.6465 33.3019 28.747 33.5455 28.9236 33.716C29.1063 33.8805 29.3286 33.9627 29.5905 33.9627C29.9803 33.9627 30.2514 33.7983 30.4036 33.4694H32.0663C31.9811 33.8044 31.8257 34.1058 31.6004 34.3738C31.3811 34.6418 31.104 34.8519 30.769 35.0042C30.4341 35.1564 30.0595 35.2326 29.6454 35.2326C29.1459 35.2326 28.7013 35.126 28.3115 34.9128C27.9217 34.6997 27.6172 34.3951 27.398 33.9992C27.1787 33.6034 27.0691 33.1405 27.0691 32.6106C27.0691 32.0807 27.1757 31.6179 27.3888 31.222C27.6081 30.8261 27.9126 30.5216 28.3024 30.3084C28.6922 30.0953 29.1398 29.9887 29.6454 29.9887C30.1387 29.9887 30.5772 30.0922 30.9609 30.2993C31.3446 30.5064 31.643 30.8017 31.8562 31.1854C32.0755 31.5691 32.1851 32.0168 32.1851 32.5284ZM30.5863 32.1173C30.5863 31.8493 30.495 31.6361 30.3123 31.4778C30.1295 31.3194 29.9012 31.2403 29.6271 31.2403C29.3652 31.2403 29.1429 31.3164 28.9602 31.4687C28.7836 31.6209 28.6739 31.8371 28.6313 32.1173H30.5863ZM34.5714 28.3991V35.1595H33.0092V28.3991H34.5714Z" fill="#333333"/>
<path d="M42.6558 29.7146C42.6558 30.2323 42.5218 30.7073 42.2539 31.1398C41.9859 31.5722 41.5961 31.9254 41.0845 32.1995C40.5729 32.4736 39.9638 32.635 39.2573 32.6837L38.8645 34.8854C38.7122 35.732 38.2981 36.1553 37.622 36.1553C37.2505 36.1553 36.9064 36.0456 36.5897 35.8264C36.2791 35.6071 36.0294 35.2722 35.8406 34.8215C35.6518 34.3708 35.5574 33.8165 35.5574 33.1588C35.5574 31.9224 35.7553 30.8748 36.1512 30.0161C36.5532 29.1512 37.0891 28.5056 37.7591 28.0793C38.4351 27.6469 39.1782 27.4307 39.9882 27.4307C40.5607 27.4307 41.0449 27.5312 41.4408 27.7321C41.8427 27.9331 42.1442 28.2072 42.3452 28.5544C42.5523 28.8954 42.6558 29.2822 42.6558 29.7146ZM39.4218 31.7427C40.6703 31.5844 41.2946 30.9357 41.2946 29.7968C41.2946 29.3948 41.1606 29.069 40.8926 28.8193C40.6307 28.5635 40.2227 28.4356 39.6684 28.4356C39.0411 28.4356 38.493 28.6335 38.024 29.0294C37.5611 29.4253 37.2018 29.9765 36.946 30.683C36.6963 31.3834 36.5714 32.1843 36.5714 33.0857C36.5714 33.4633 36.608 33.7983 36.6811 34.0906C36.7602 34.3829 36.8577 34.6113 36.9734 34.7758C37.0952 34.9341 37.2109 35.0133 37.3206 35.0133C37.4728 35.0133 37.5885 34.8032 37.6677 34.3829L37.9692 32.6563C37.7317 32.6198 37.6281 32.6045 37.6586 32.6106C37.4759 32.5802 37.3571 32.5254 37.3023 32.4462C37.2475 32.3609 37.2201 32.2543 37.2201 32.1264C37.2201 31.9924 37.2566 31.8859 37.3297 31.8067C37.4089 31.7275 37.5155 31.6879 37.6495 31.6879C37.7104 31.6879 37.756 31.691 37.7865 31.697C37.9327 31.7214 38.0453 31.7366 38.1245 31.7427C38.2037 31.2677 38.3164 30.6312 38.4625 29.8334C38.4991 29.6263 38.5813 29.4801 38.7092 29.3948C38.8432 29.3035 38.9985 29.2578 39.1751 29.2578C39.3761 29.2578 39.5192 29.2974 39.6045 29.3766C39.6959 29.4497 39.7415 29.5684 39.7415 29.7329C39.7415 29.8303 39.7354 29.9095 39.7233 29.9704L39.4218 31.7427ZM46.5466 33.1222C46.6257 33.1222 46.6866 33.1588 46.7293 33.2318C46.778 33.3049 46.8024 33.4054 46.8024 33.5333C46.8024 33.7769 46.7445 33.9658 46.6288 34.0997C46.4034 34.3738 46.0837 34.6266 45.6695 34.858C45.2615 35.0894 44.823 35.2052 44.354 35.2052C43.7145 35.2052 43.2181 35.0316 42.8649 34.6844C42.5116 34.3373 42.335 33.8622 42.335 33.2593C42.335 32.839 42.4233 32.4492 42.5999 32.0899C42.7766 31.7245 43.0202 31.4352 43.3308 31.222C43.6475 31.0088 44.0038 30.9022 44.3997 30.9022C44.7529 30.9022 45.0361 31.0088 45.2493 31.222C45.4625 31.4291 45.569 31.7123 45.569 32.0716C45.569 32.4919 45.4168 32.8542 45.1123 33.1588C44.8138 33.4572 44.3053 33.6947 43.5866 33.8713C43.7389 34.1515 44.0282 34.2916 44.4545 34.2916C44.7286 34.2916 45.0392 34.1972 45.3863 34.0084C45.7396 33.8135 46.0441 33.5607 46.2999 33.2501C46.373 33.1649 46.4552 33.1222 46.5466 33.1222ZM44.2444 31.7975C44.019 31.7975 43.8272 31.9285 43.6688 32.1904C43.5166 32.4523 43.4404 32.769 43.4404 33.1405V33.1588C43.7998 33.0735 44.083 32.9456 44.29 32.7751C44.4971 32.6045 44.6007 32.4066 44.6007 32.1812C44.6007 32.0655 44.5672 31.9742 44.5002 31.9072C44.4393 31.8341 44.354 31.7975 44.2444 31.7975ZM47.5659 31.7701C47.5537 32.0747 47.5476 32.3122 47.5476 32.4827C47.5476 32.9212 47.569 33.2653 47.6116 33.5151C47.6603 33.7587 47.7364 33.9353 47.84 34.0449C47.9496 34.1485 48.0988 34.2002 48.2876 34.2002C48.3851 34.2002 48.5008 34.1698 48.6348 34.1089C48.7688 34.048 48.8906 33.9688 49.0002 33.8713C49.0672 33.8104 49.1342 33.78 49.2012 33.78C49.2743 33.78 49.3321 33.8226 49.3748 33.9079C49.4235 33.9871 49.4479 34.0845 49.4479 34.2002C49.4479 34.316 49.4235 34.4286 49.3748 34.5383C49.3321 34.6479 49.2652 34.7392 49.1738 34.8123C48.8571 35.0742 48.4978 35.2052 48.0958 35.2052C47.5172 35.2052 47.0939 34.9646 46.8259 34.4834C46.5579 33.9962 46.4239 33.3628 46.4239 32.5832C46.4239 32.3152 46.4331 32.0442 46.4514 31.7701H46.0951C45.9123 31.7701 45.7875 31.7366 45.7205 31.6696C45.6596 31.6026 45.6291 31.4961 45.6291 31.3499C45.6291 31.0088 45.7662 30.8383 46.0402 30.8383H46.561C46.6645 30.1683 46.8229 29.5562 47.036 29.002C47.2492 28.4478 47.505 28.0062 47.8034 27.6773C48.108 27.3484 48.4338 27.184 48.781 27.184C49.0368 27.184 49.2377 27.2967 49.3839 27.522C49.5301 27.7474 49.6032 28.0306 49.6032 28.3716C49.6032 29.3157 49.2073 30.1379 48.4155 30.8383H49.4387C49.5362 30.8383 49.6062 30.8596 49.6489 30.9022C49.6915 30.9449 49.7128 31.0241 49.7128 31.1398C49.7128 31.56 49.3687 31.7701 48.6805 31.7701H47.5659ZM48.5343 28.061C48.4429 28.061 48.3394 28.1768 48.2237 28.4082C48.1141 28.6335 48.0075 28.9502 47.9039 29.3583C47.8065 29.7603 47.7243 30.2079 47.6573 30.7013C48.0166 30.3906 48.2846 30.0435 48.4612 29.6598C48.6439 29.27 48.7353 28.9167 48.7353 28.6C48.7353 28.2407 48.6683 28.061 48.5343 28.061Z" fill="#354FD8"/>
<defs>
<filter id="filter0_d_251_1783" x="0.393258" y="0" width="63.2135" height="63.2135" filterUnits="userSpaceOnUse" color-interpolation-filters="sRGB">
<feFlood flood-opacity="0" result="BackgroundImageFix"/>
<feColorMatrix in="SourceAlpha" type="matrix" values="0 0 0 0 0 0 0 0 0 0 0 0 0 0 0 0 0 0 127 0" result="hardAlpha"/>
<feOffset dy="2.60674"/>
<feGaussianBlur stdDeviation="1.30337"/>
<feComposite in2="hardAlpha" operator="out"/>
<feColorMatrix type="matrix" values="0 0 0 0 0 0 0 0 0 0 0 0 0 0 0 0 0 0 0.25 0"/>
<feBlend mode="normal" in2="BackgroundImageFix" result="effect1_dropShadow_251_1783"/>
<feBlend mode="normal" in="SourceGraphic" in2="effect1_dropShadow_251_1783" result="shape"/>
</filter>
</defs>
</svg>
