<svg width="69" height="68" viewBox="0 0 69 68" fill="none" xmlns="http://www.w3.org/2000/svg">
<path d="M60.4075 26.5278C60.6618 27.236 60.6932 27.8742 60.5071 28.7419C60.3599 29.4434 60.1266 30.0281 59.7315 30.7018C57.3535 34.733 51.1705 37.8912 46.2527 37.5762C45.5827 37.5341 44.6092 37.3381 44.0534 37.1332C42.2259 36.4653 41.2258 35.0323 41.3608 33.2778C41.5025 31.4772 42.7445 29.5031 44.8888 27.6717C45.443 27.2034 47.3052 25.9779 47.9718 25.6512C50.7537 24.2802 53.3924 23.6655 55.7892 23.824C56.3863 23.8663 57.3742 24.0686 57.8987 24.2572C58.3843 24.4343 59.1475 24.8709 59.4613 25.1539C59.7438 25.4049 60.2879 26.1975 60.4075 26.5278Z" fill="#F8CA74"/>
<path d="M50.294 12.5257C50.8105 13.8169 50.7082 15.5816 50.0156 17.4355C49.127 19.8186 47.4188 22.1465 45.1305 24.0867C44.4014 24.7046 42.6184 25.8424 41.8248 26.199C40.011 27.0064 38.3958 27.2726 37.0464 26.9801C35.8838 26.734 34.9839 26.0619 34.5092 25.0937C33.3897 22.7815 34.3599 19.1593 36.9834 15.863C39.1597 13.1277 42.0244 11.1334 44.7529 10.4554C47.4142 9.79479 49.5236 10.5834 50.294 12.5257Z" fill="#F8CA74"/>
<path d="M53.6438 44.0732C54.3791 45.735 53.8973 47.6563 52.298 49.4174C51.3773 50.4258 49.8745 51.4555 48.3819 52.097C44.9094 53.596 40.8593 53.6447 38.3594 52.2202C37.0818 51.4893 36.2744 50.4594 36.0572 49.2672C35.7358 47.5101 36.6356 45.6371 38.6274 43.9253C39.0277 43.5828 40.3283 42.7414 40.8773 42.4752C45.2473 40.3276 50.4284 40.5246 52.8211 42.9226C53.1032 43.2052 53.5056 43.7706 53.6438 44.0732Z" fill="#F8CA74"/>
<path d="M30.46 14.7787C31.0343 16.2886 30.9435 18.1922 30.1975 20.206C29.3859 22.3929 27.8474 24.5066 25.9319 26.0697C25.4322 26.4766 24.2681 27.2139 23.7057 27.4837C19.9221 29.2936 16.7109 28.0053 16.2408 24.4995C15.9905 22.618 16.5505 20.4057 17.8155 18.2652C20.2085 14.2086 24.4273 11.6415 27.591 12.323C28.9259 12.6092 29.9797 13.5111 30.46 14.7787Z" fill="#F8CA74"/>
<path d="M34.2612 35.0273C35.4042 37.7476 34.8337 42.4805 32.7362 47.7048C31.0913 51.7948 28.8067 55.4049 26.5184 57.5228C25.9686 58.0301 24.8704 58.7561 24.3847 58.9344C23.6275 59.21 23.0283 59.237 22.2484 59.0412C20.9518 58.7093 19.8612 58.009 18.8848 56.8793C18.3793 56.2918 17.5688 54.9661 17.1578 54.056C16.6135 52.835 16.2329 51.7538 15.481 49.2665C14.7523 46.8635 14.5068 46.2175 14.1077 45.6813C13.5998 45.0012 13.081 44.579 11.4153 43.4824C10.2224 42.6967 9.59833 42.2329 9.13093 41.7931C7.39613 40.1455 6.94843 38.1042 7.68928 35.2261C7.90804 34.3686 8.07322 34.0423 8.54918 33.5097C8.82357 33.2067 8.89249 33.1517 9.6699 32.6488C10.3736 32.1936 10.5797 32.0759 11.0327 31.8874C13.7714 30.7325 17.5776 30.1047 21.6119 30.1446C26.4092 30.1926 30.5173 31.2353 32.6443 32.948C33.4184 33.5709 33.9135 34.207 34.2612 35.0273Z" fill="#F8CA74"/>
<path d="M12.8232 32.7086V41.5032H10.6809V37.8826H7.34852V41.5032H5.20625V32.7086H7.34852V36.1538H10.6809V32.7086H12.8232ZM17.5518 41.6034C16.8669 41.6034 16.2489 41.4572 15.6977 41.1649C15.1548 40.8726 14.7247 40.455 14.4073 39.9121C14.0983 39.3692 13.9438 38.7345 13.9438 38.0079C13.9438 37.2896 14.1025 36.659 14.4198 36.1162C14.7372 35.5649 15.1715 35.1432 15.7227 34.8509C16.274 34.5585 16.892 34.4124 17.5769 34.4124C18.2617 34.4124 18.8798 34.5585 19.431 34.8509C19.9822 35.1432 20.4165 35.5649 20.7339 36.1162C21.0513 36.659 21.2099 37.2896 21.2099 38.0079C21.2099 38.7261 21.0471 39.3609 20.7214 39.9121C20.404 40.455 19.9655 40.8726 19.4059 41.1649C18.8547 41.4572 18.2367 41.6034 17.5518 41.6034ZM17.5518 39.7493C17.961 39.7493 18.3076 39.5989 18.5916 39.2983C18.8839 38.9976 19.0301 38.5675 19.0301 38.0079C19.0301 37.4483 18.8881 37.0182 18.6041 36.7175C18.3285 36.4168 17.9861 36.2665 17.5769 36.2665C17.1593 36.2665 16.8127 36.4168 16.537 36.7175C16.2614 37.0098 16.1236 37.4399 16.1236 38.0079C16.1236 38.5675 16.2572 38.9976 16.5245 39.2983C16.8001 39.5989 17.1426 39.7493 17.5518 39.7493ZM26.2426 39.6866V41.5032H25.1527C24.376 41.5032 23.7705 41.3152 23.3362 40.9394C22.9019 40.5552 22.6847 39.933 22.6847 39.0727V36.2916H21.8328V34.5126H22.6847V32.8088H24.827V34.5126H26.2301V36.2916H24.827V39.0978C24.827 39.3066 24.8771 39.4569 24.9773 39.5488C25.0775 39.6407 25.2446 39.6866 25.4784 39.6866H26.2426ZM34.0256 37.8951C34.0256 38.0956 34.013 38.3044 33.988 38.5215H29.1397C29.1731 38.9558 29.3109 39.2899 29.5531 39.5238C29.8037 39.7493 30.1085 39.862 30.4677 39.862C31.0022 39.862 31.3738 39.6365 31.5826 39.1855H33.8627C33.7458 39.6449 33.5328 40.0583 33.2238 40.4258C32.9231 40.7932 32.5431 41.0814 32.0838 41.2902C31.6244 41.499 31.1108 41.6034 30.5428 41.6034C29.858 41.6034 29.2483 41.4572 28.7138 41.1649C28.1792 40.8726 27.7616 40.455 27.461 39.9121C27.1603 39.3692 27.01 38.7345 27.01 38.0079C27.01 37.2813 27.1561 36.6465 27.4484 36.1036C27.7491 35.5608 28.1667 35.1432 28.7012 34.8509C29.2357 34.5585 29.8496 34.4124 30.5428 34.4124C31.2193 34.4124 31.8207 34.5544 32.3468 34.8383C32.873 35.1223 33.2823 35.5274 33.5746 36.0535C33.8752 36.5797 34.0256 37.1936 34.0256 37.8951ZM31.8332 37.3314C31.8332 36.9639 31.7079 36.6716 31.4574 36.4544C31.2068 36.2373 30.8936 36.1287 30.5178 36.1287C30.1586 36.1287 29.8538 36.2331 29.6032 36.4419C29.361 36.6507 29.2107 36.9472 29.1522 37.3314H31.8332ZM37.298 32.2325V41.5032H35.1557V32.2325H37.298Z" fill="#333333"/>
<path d="M48.3842 34.0365C48.3842 34.7465 48.2005 35.3979 47.833 35.9909C47.4655 36.5839 46.931 37.0683 46.2294 37.4441C45.5278 37.82 44.6926 38.0413 43.7238 38.1081L43.1851 41.1273C42.9763 42.2882 42.4084 42.8687 41.4813 42.8687C40.9719 42.8687 40.5 42.7184 40.0657 42.4177C39.6397 42.117 39.2973 41.6577 39.0384 41.0396C38.7795 40.4216 38.65 39.6616 38.65 38.7596C38.65 37.0641 38.9215 35.6276 39.4643 34.45C40.0156 33.264 40.7505 32.3787 41.6693 31.794C42.5963 31.2011 43.6152 30.9046 44.7261 30.9046C45.5111 30.9046 46.1751 31.0424 46.718 31.318C47.2692 31.5936 47.6826 31.9694 47.9583 32.4455C48.2422 32.9132 48.3842 33.4436 48.3842 34.0365ZM43.9493 36.8177C45.6615 36.6006 46.5175 35.7111 46.5175 34.1493C46.5175 33.5981 46.3338 33.1512 45.9663 32.8088C45.6072 32.458 45.0476 32.2826 44.2876 32.2826C43.4273 32.2826 42.6757 32.5541 42.0326 33.0969C41.3978 33.6398 40.9051 34.3957 40.5543 35.3645C40.2118 36.325 40.0406 37.4232 40.0406 38.6593C40.0406 39.1771 40.0907 39.6365 40.191 40.0374C40.2995 40.4383 40.4332 40.7515 40.5919 40.977C40.7589 41.1941 40.9176 41.3027 41.0679 41.3027C41.2767 41.3027 41.4354 41.0146 41.544 40.4383L41.9574 38.0705C41.6317 38.0204 41.4897 37.9995 41.5314 38.0079C41.2809 37.9661 41.118 37.891 41.0429 37.7824C40.9677 37.6654 40.9301 37.5193 40.9301 37.3439C40.9301 37.1602 40.9802 37.014 41.0804 36.9054C41.189 36.7968 41.3352 36.7426 41.5189 36.7426C41.6024 36.7426 41.6651 36.7467 41.7068 36.7551C41.9073 36.7885 42.0618 36.8094 42.1704 36.8177C42.2789 36.1663 42.4335 35.2935 42.6339 34.1994C42.684 33.9154 42.7968 33.715 42.9722 33.5981C43.1559 33.4728 43.3689 33.4101 43.6111 33.4101C43.8867 33.4101 44.083 33.4644 44.1999 33.573C44.3252 33.6732 44.3878 33.8361 44.3878 34.0616C44.3878 34.1952 44.3795 34.3038 44.3627 34.3873L43.9493 36.8177ZM53.7196 38.7094C53.8282 38.7094 53.9117 38.7596 53.9702 38.8598C54.037 38.96 54.0704 39.0978 54.0704 39.2732C54.0704 39.6073 53.991 39.8662 53.8324 40.0499C53.5233 40.4258 53.0849 40.7724 52.5169 41.0897C51.9574 41.4071 51.356 41.5658 50.7129 41.5658C49.836 41.5658 49.1553 41.3278 48.6709 40.8517C48.1865 40.3756 47.9443 39.7242 47.9443 38.8974C47.9443 38.3211 48.0654 37.7866 48.3076 37.2938C48.5498 36.7927 48.8838 36.396 49.3098 36.1036C49.7441 35.8113 50.2327 35.6652 50.7756 35.6652C51.26 35.6652 51.6483 35.8113 51.9406 36.1036C52.233 36.3876 52.3791 36.776 52.3791 37.2687C52.3791 37.845 52.1703 38.342 51.7527 38.7596C51.3435 39.1688 50.6461 39.4945 49.6606 39.7367C49.8694 40.1209 50.2661 40.313 50.8507 40.313C51.2266 40.313 51.6525 40.1836 52.1286 39.9246C52.613 39.6574 53.0306 39.3108 53.3814 38.8848C53.4816 38.7679 53.5943 38.7094 53.7196 38.7094ZM50.5626 36.8929C50.2536 36.8929 49.9905 37.0725 49.7733 37.4316C49.5645 37.7907 49.4601 38.225 49.4601 38.7345V38.7596C49.9529 38.6426 50.3413 38.4672 50.6252 38.2334C50.9092 37.9995 51.0512 37.7281 51.0512 37.4191C51.0512 37.2604 51.0052 37.1351 50.9134 37.0432C50.8298 36.943 50.7129 36.8929 50.5626 36.8929ZM55.1174 36.8553C55.1007 37.2729 55.0924 37.5986 55.0924 37.8325C55.0924 38.4338 55.1216 38.9057 55.1801 39.2481C55.2469 39.5822 55.3513 39.8244 55.4933 39.9748C55.6436 40.1167 55.8482 40.1877 56.1072 40.1877C56.2408 40.1877 56.3995 40.146 56.5832 40.0625C56.767 39.9789 56.934 39.8704 57.0843 39.7367C57.1762 39.6532 57.2681 39.6114 57.3599 39.6114C57.4602 39.6114 57.5395 39.6699 57.598 39.7868C57.6648 39.8954 57.6982 40.029 57.6982 40.1877C57.6982 40.3464 57.6648 40.5009 57.598 40.6513C57.5395 40.8016 57.4476 40.9269 57.3224 41.0271C56.8881 41.3862 56.3953 41.5658 55.8441 41.5658C55.0506 41.5658 54.4702 41.2359 54.1027 40.5761C53.7352 39.9079 53.5515 39.0393 53.5515 37.9703C53.5515 37.6028 53.564 37.2311 53.589 36.8553H53.1005C52.8499 36.8553 52.6787 36.8094 52.5868 36.7175C52.5033 36.6256 52.4615 36.4795 52.4615 36.279C52.4615 35.8113 52.6495 35.5775 53.0253 35.5775H53.7394C53.8814 34.6588 54.0985 33.8194 54.3908 33.0594C54.6831 32.2993 55.0339 31.6938 55.4432 31.2428C55.8608 30.7918 56.3076 30.5663 56.7837 30.5663C57.1344 30.5663 57.4101 30.7208 57.6105 31.0298C57.8109 31.3389 57.9112 31.7272 57.9112 32.1949C57.9112 33.4895 57.3683 34.617 56.2825 35.5775H57.6857C57.8193 35.5775 57.9153 35.6067 57.9738 35.6652C58.0323 35.7236 58.0615 35.8322 58.0615 35.9909C58.0615 36.5672 57.5896 36.8553 56.6458 36.8553H55.1174ZM56.4454 31.769C56.3201 31.769 56.1781 31.9277 56.0195 32.2451C55.8691 32.5541 55.723 32.9884 55.581 33.548C55.4473 34.0992 55.3346 34.713 55.2427 35.3895C55.7355 34.9636 56.103 34.4875 56.3452 33.9614C56.5957 33.4268 56.721 32.9424 56.721 32.5081C56.721 32.0154 56.6291 31.769 56.4454 31.769Z" fill="#354FD8"/>
</svg>
