<svg width="688" height="863" viewBox="0 0 688 863" fill="none" xmlns="http://www.w3.org/2000/svg">
<path d="M580.798 121.146C569.775 119.612 557.03 126.969 548.779 139.662C542.223 149.719 541.138 163.59 546.384 170.135C549.284 173.802 554.608 176.097 559.79 176.017C565.052 175.908 572.465 173.178 577.182 169.582C591.465 158.658 597.939 142.297 592.815 130.136C590.566 124.796 586.752 121.954 580.798 121.146Z" fill="#C8C7C7"/>
<path d="M614.02 167.965C604.126 166.697 591.93 170.485 583.054 177.609C578.943 180.895 576.565 184.003 574.108 189.25C572.031 193.687 571.813 194.574 571.916 198.58C572.04 206.487 574.724 210.052 583.067 213.365C587.28 215.074 588.568 215.281 593.725 215.255C598.561 215.211 600.767 214.726 606.352 212.658C613.342 210.126 617.575 207.425 623.389 201.77C627.013 198.256 630.338 191.436 630.878 186.478C631.346 181.816 629.156 175.646 626.045 173.134C622.905 170.542 618.122 168.501 614.02 167.965Z" fill="#C8C7C7"/>
<path d="M516.945 122.844C510.381 122.212 502.028 126.81 495.468 134.622C492.617 138.036 488.452 146.508 487.599 150.725C485.99 158.811 487.94 169.156 491.948 173.275C496.039 177.499 503.681 178.505 510.209 175.691C517.741 172.423 523.938 166.091 527.864 157.705C534.577 143.368 532.148 128.973 522.305 124.497C520.682 123.737 518.258 122.998 516.945 122.844Z" fill="#C8C7C7"/>
<path d="M521.016 188.534C513.018 186.174 502.293 185.836 490.555 187.662C477.484 189.656 463.88 194.763 460.035 199.031C454.061 205.732 453.674 214.588 459.061 221.397C461.879 224.959 465.783 228.172 473.15 233.007C480.708 237.996 484.526 240.971 487.823 244.494C493.157 250.289 495.025 254.33 498.548 267.655C500.032 273.362 501.89 279.113 502.672 280.403C506.979 287.828 514.996 291.977 521.278 289.971C528.964 287.502 536.486 277.634 542.186 262.361C548.439 245.765 550.371 236.709 550.208 225.222C550.096 216.727 547.947 210.048 543.328 203.993C538.237 197.256 528.959 190.868 521.016 188.534Z" fill="#C8C7C7"/>
<path d="M597.128 227.006C590.735 225.728 584.177 226.351 576.844 229.052C567.763 232.386 563.02 236.036 559.678 242.188C556.694 247.717 556.217 250.989 557.593 255.657C558.441 258.495 559.36 259.914 561.36 261.84C571.767 271.594 591.335 270.796 604.795 260.08C609.011 256.711 609.296 256.383 611.627 251.406C613.856 246.645 614.023 245.865 613.803 242.531C613.643 240.477 612.935 237.903 612.208 236.639C609.392 232.088 603.55 228.364 597.128 227.006Z" fill="#C8C7C7"/>
<path d="M504.456 368.305C499.401 367.126 496.362 367.418 490.697 369.515C484.978 371.586 478.787 376.075 474.118 381.54C470.381 385.859 465.745 395.759 465.252 400.475C464.442 407.418 465.787 413.984 468.652 417.304C471.409 420.574 476.513 422.633 481.536 422.611C498.317 422.553 516.501 403.297 516.422 385.715C516.438 375.96 512.415 370.185 504.456 368.305Z" fill="#C8C7C7"/>
<path d="M539.179 415.3C526.451 411.913 508.633 418.412 499.756 429.624C496.34 433.961 493.853 440.119 493.757 444.691C493.617 449.638 495.913 454.737 499.482 457.397C511.038 466.106 531.277 462.324 544.881 448.905C551.06 442.894 553.994 434.373 552.419 427.172C551.328 422.176 545.528 416.954 539.179 415.3Z" fill="#C8C7C7"/>
<path d="M440.487 369.686C428.396 368.181 413.757 380.851 409.952 396.021C407.848 404.6 409.107 414.028 413.164 419.028C414.764 420.964 415.716 421.608 418.793 422.785C423.273 424.486 426.694 424.505 431.243 422.678C438.865 419.782 444.632 414.369 448.987 406.052C453.397 397.761 454.652 389.444 452.732 381.29C451.562 376.322 445.178 370.233 440.487 369.686Z" fill="#C8C7C7"/>
<path d="M261.091 318.937C253.604 317.74 246.204 319.881 239.156 325.354C227.101 334.617 220.867 347.793 222.76 360.09C223.698 366.4 225.773 369.152 231.4 371.787C235.079 373.509 236.287 373.745 239.438 373.637C256.068 372.915 273.858 353.937 273.873 336.86C273.86 327.026 269.007 320.202 261.091 318.937Z" fill="#C8C7C7"/>
<path d="M294.768 365.771C282.414 363.417 266.087 369.69 257.535 380.066C253.856 384.543 252.13 388.089 251.392 392.624C250.675 396.972 251.313 400.964 253.3 404.467C254.672 406.89 255.354 407.407 259.606 409.596C263.263 411.506 265.257 412.176 268.53 412.653C279.286 414.193 291.941 409.564 301.465 400.634C304.648 397.639 305.552 396.413 307.502 392.247C310.343 386.321 310.907 382.298 309.527 377.497C308.97 375.587 307.653 373.189 306.662 372.065C304.189 369.457 298.661 366.473 294.768 365.771Z" fill="#C8C7C7"/>
<path d="M196.672 320.436C187.059 319.695 175.442 328.306 169.818 340.316C165.842 348.81 165.149 357.192 167.828 364.713C169.587 369.692 172.088 372.38 176.618 373.973C180.774 375.523 184.668 375.236 189.85 373.044C197.172 369.943 203.16 363.776 207.187 355.174C211.113 346.788 211.968 338.482 209.671 331.272C207.95 325.651 202.135 320.883 196.672 320.436Z" fill="#C8C7C7"/>
<path d="M439.883 434.374C428.053 431.605 409.396 433.556 394.492 439.044C385.253 442.436 382.233 444.518 379.604 449.289C376.207 455.416 376.33 461.212 379.943 466.597C382.915 470.957 386.523 474.098 395.249 479.832C411.883 490.654 415.54 495.664 420.511 514.35C423.41 525.205 424.32 527.347 427.131 530.641C435.066 539.897 444.937 539.242 453.755 528.86C457.023 524.981 461.472 516.181 464.92 506.845C470.565 491.547 472.37 482.762 472.193 471.73C472.025 461.098 467.696 451.749 459.654 444.554C455.605 440.944 445.341 435.676 439.883 434.374Z" fill="#C8C7C7"/>
<path d="M518.203 473.484C509.197 472.433 500.764 473.96 493.173 478.057C478.598 485.942 474.195 500.701 483.979 509.107C491.931 515.93 503.377 517.266 515.688 512.806C520.772 510.965 523.091 509.676 526.757 506.775C531.262 503.212 531.443 502.967 533.618 498.181C537.084 490.635 536.571 485.25 531.987 480.531C529.298 477.821 521.688 473.929 518.203 473.484Z" fill="#C8C7C7"/>
<path d="M195.259 384.877C189.324 383.748 175.065 384.195 166.474 385.779C158.175 387.303 145.491 391.852 141.608 394.651C134.344 400.023 132.444 410.28 137.314 417.771C139.622 421.293 143.747 424.741 153.158 431.126C169.993 442.504 172.958 446.596 177.789 465.018C181.578 479.325 184.005 483.298 191.064 486.537C202.367 491.697 213.133 482.227 221.61 459.613C233.842 427.149 232.231 408.19 216.12 394.842C210.658 390.306 201.973 386.174 195.259 384.877Z" fill="#C8C7C7"/>
<path d="M278.204 425.098C268.731 422.509 257.346 424.566 247.721 430.613C243.249 433.401 240.21 436.793 238.082 441.337C233.878 450.318 236.362 457.55 245.479 462.873C254.732 468.327 270.143 466.968 281.156 459.789C291.012 453.389 295.232 443.954 292.052 435.671C290.333 431.172 284.608 426.777 278.204 425.098Z" fill="#C8C7C7"/>
<path d="M200.966 586.683C193.793 586.227 187.229 588.694 180.163 594.488C167.836 604.614 162.192 618.923 165.714 631.125C166.27 633.035 167.588 635.433 168.579 636.556C179.6 648.378 202.922 638.718 212.738 618.315C216.313 610.821 217.075 605.109 215.398 598.123C213.876 591.936 207.819 587.121 200.966 586.683Z" fill="#C8C7C7"/>
<path d="M140.465 588.83C136.811 588.043 134.601 588.393 130.214 590.297C122.469 593.597 116.189 599.825 112.263 608.21C108.359 616.408 107.548 624.339 109.769 631.711C111.404 637.094 113.418 639.554 117.638 641.53C132.945 648.565 153.88 628.223 153.2 606.995C153.141 604.725 152.795 601.661 152.382 600.148C151.212 595.181 145.65 589.873 140.465 588.83Z" fill="#C8C7C7"/>
<path d="M234.589 633.493C226.661 632.815 217.607 635.106 209.842 639.716C192.287 650.163 187.779 670.215 201.202 677.753C213.16 684.473 231.26 680.613 243.834 668.69C252.624 660.34 255.061 648.091 249.416 640.567C247.369 637.893 238.901 633.863 234.589 633.493Z" fill="#C8C7C7"/>
<path d="M141.69 653.979C133.644 651.861 123.565 651.693 111.372 653.504C103.013 654.735 87.0909 660.142 83.5037 663.014C80.5704 665.334 77.3697 670.762 76.9504 674.193C75.8237 683.362 80.0571 688.972 95.609 699.287C111.759 710.015 115.193 714.657 120.103 733.05C123.059 744.064 123.804 745.996 126.675 749.583C129.63 753.275 135.671 756.433 139.406 756.203C150.241 755.603 159.915 742.126 167.684 716.938C172.67 700.936 173.241 688.869 169.58 678.514C167.419 672.423 163.701 667.121 158.459 662.82C155.1 659.993 145.589 654.947 141.69 653.979Z" fill="#C8C7C7"/>
<path d="M217.643 692.508C208.731 690.974 198.158 693.411 189.378 699.062C180.728 704.577 176.351 715.192 179.568 722.832C182.81 730.419 194.565 735.46 206.346 734.248C214.687 733.339 225.083 728.18 230.067 722.466C236.868 714.702 237.307 704.749 231.01 698.898C228.079 696.141 222.074 693.329 217.643 692.508Z" fill="#C8C7C7"/>
</svg>
