<svg width="1440" height="1459" viewBox="0 0 1440 1459" fill="none" xmlns="http://www.w3.org/2000/svg">
<path d="M142.688 374.88C159.952 364.873 186.092 368.462 208.382 383.951C226.073 396.212 237.264 418.507 232.984 432.926C230.65 440.977 223.364 448.39 214.706 451.765C205.896 455.146 191.741 455.63 181.475 452.853C150.366 444.383 128.545 421.599 128.821 397.94C128.94 387.551 133.35 380.252 142.688 374.88Z" fill="#C8C7C7"/>
<path d="M119.218 475.1C134.787 466.298 157.599 464.334 177.157 470.154C186.207 472.827 192.259 476.377 199.891 483.427C206.342 489.387 207.304 490.713 209.844 497.434C214.99 510.646 212.947 518.382 201.337 529.529C195.499 535.218 193.5 536.434 184.92 539.881C176.861 543.08 172.871 543.769 162.198 544.116C148.879 544.643 140.022 543.023 126.542 537.569C118.147 534.187 108.01 525.114 103.757 517.248C99.8249 509.824 99.2848 498.098 102.75 491.821C106.21 485.393 112.769 478.766 119.218 475.1Z" fill="#C8C7C7"/>
<path d="M249.855 334.482C260.324 328.989 277.305 330.97 293.484 339.5C300.529 343.239 313.178 354.486 317.449 360.911C325.593 373.247 329.357 391.743 325.491 401.295C321.558 411.077 309.55 417.919 296.806 417.665C282.089 417.339 267.513 411.018 255.319 399.753C234.471 380.493 228.76 354.948 242.073 340.854C244.253 338.494 247.778 335.625 249.855 334.482Z" fill="#C8C7C7"/>
<path d="M287.556 446.303C299.238 436.973 316.816 429.152 337.541 424.239C360.591 418.703 386.636 417.975 395.909 422.458C410.363 429.541 416.998 443.983 412.664 458.935C410.396 466.756 406.089 474.733 397.129 487.746C387.958 501.145 383.633 508.669 380.542 516.75C375.608 529.982 375.242 537.955 378.41 562.463C379.811 572.943 380.617 583.75 380.192 586.419C378.067 601.663 367.565 613.978 355.777 614.9C341.344 616.002 322.175 604.709 302.375 583.209C280.76 559.887 271.424 546.158 263.919 526.976C258.355 512.795 257.403 500.251 260.974 487.073C264.867 472.442 275.947 455.555 287.556 446.303Z" fill="#C8C7C7"/>
<path d="M187.224 561.695C196.974 555.245 208.284 551.842 222.287 551.363C239.62 550.752 249.965 553.602 259.679 561.555C268.376 568.714 271.382 573.825 272.257 582.507C272.769 587.792 272.205 590.771 270.187 595.323C259.51 618.56 226.481 630.479 196.88 621.797C187.6 619.057 186.904 618.706 179.666 612.019C172.743 605.623 171.939 604.442 170.046 598.757C168.921 595.239 168.354 590.486 168.706 587.895C170.302 578.434 177.481 568.296 187.224 561.695Z" fill="#C8C7C7"/>
<path d="M436.726 733.573C444.32 728.194 449.563 726.623 460.388 726.27C471.285 725.838 484.603 729.101 496.055 735.014C505.182 739.655 519.58 752.956 523.59 760.452C529.634 771.431 531.845 783.243 529.335 790.695C526.971 797.989 519.891 804.863 511.535 808.226C483.634 819.487 440.41 799.824 428.641 770.578C422.012 754.393 424.784 742.081 436.726 733.573Z" fill="#C8C7C7"/>
<path d="M410.882 835.101C429.722 820.864 463.704 819.594 486.032 832.202C494.639 837.091 502.936 845.631 506.19 853.157C509.77 861.277 509.409 871.296 505.283 878.13C491.992 900.409 455.828 907.829 424.159 894.757C409.831 888.958 399.193 876.797 396.934 863.774C395.364 854.741 401.459 842.145 410.882 835.101Z" fill="#C8C7C7"/>
<path d="M543.868 692.571C562.925 681.887 595.806 693.016 612.391 715.628C621.691 728.449 625.982 744.954 622.63 756.001C621.284 760.299 620.139 762.011 615.827 766.048C609.541 771.905 603.873 774.252 595.083 774.297C580.468 774.648 567.23 769.564 554.369 758.703C541.436 747.922 533.723 734.963 531.392 720.124C529.973 711.085 536.451 696.654 543.868 692.571Z" fill="#C8C7C7"/>
<path d="M807.375 486.889C818.996 479.835 832.733 478.382 848.139 482.698C874.423 489.919 893.691 507.575 898.871 529.274C901.585 540.385 900.002 546.359 892.443 554.541C887.501 559.891 885.654 561.101 880.35 563.054C852.249 573.111 809.867 553.642 798.285 525.298C791.65 508.962 795.089 494.349 807.375 486.889Z" fill="#C8C7C7"/>
<path d="M783.161 587.443C802.078 575.173 833.433 574.538 854.653 585.976C863.793 590.92 869.058 595.639 873.354 602.669C877.486 609.403 879.13 616.462 878.2 623.624C877.563 628.576 876.781 629.895 871.203 636.407C866.424 642.054 863.565 644.517 858.455 647.523C841.638 657.36 817.495 658.24 795.637 649.859C788.325 647.041 785.995 645.617 779.937 640.021C771.21 632.105 767.55 625.807 766.591 616.901C766.223 613.353 766.788 608.48 767.673 605.944C770.012 599.939 777.172 591.242 783.161 587.443Z" fill="#C8C7C7"/>
<path d="M915.348 445.778C930.807 438.041 955.922 444.475 973.388 460.61C985.739 472.02 992.563 485.469 993.205 499.769C993.655 509.226 991.322 515.382 984.878 521.094C979.027 526.48 972.367 528.638 962.281 528.507C948.024 528.314 933.908 522.127 921.399 510.571C909.205 499.305 902.164 486.092 901.098 472.567C900.151 462.069 906.58 450.218 915.348 445.778Z" fill="#C8C7C7"/>
<path d="M588.655 799.564C606.423 786.961 638.719 777.572 667.179 776.597C684.815 775.974 691.238 777.387 698.833 783.529C708.619 791.403 712.338 801.11 709.985 812.496C708.001 821.746 704.136 829.403 693.529 844.83C673.236 874.057 670.556 884.85 674.949 919.239C677.484 939.224 677.421 943.395 674.985 950.768C668.075 971.507 651.242 977.1 629.573 965.83C621.523 961.601 608.179 950.002 596.137 936.836C576.409 915.258 567.467 901.893 560.294 883.455C553.376 865.69 554.237 847.238 562.719 829.848C566.997 821.114 580.474 805.421 588.655 799.564Z" fill="#C8C7C7"/>
<path d="M485.089 917.509C499.332 909.669 514.365 906.496 529.742 908.161C559.278 911.388 576.578 932.911 566.023 953.491C557.438 970.202 539.338 980.166 515.878 981.095C506.192 981.478 501.47 980.907 493.419 978.573C483.528 975.706 483.062 975.421 476.211 968.946C465.348 958.765 462.555 949.477 466.973 938.539C469.603 932.22 479.603 920.606 485.089 917.509Z" fill="#C8C7C7"/>
<path d="M961.309 551.815C970.399 545.922 994.376 537.014 1009.71 533.83C1024.52 530.742 1048.66 529.711 1057 531.73C1072.7 535.732 1082.8 551.477 1079.78 567.21C1078.33 574.619 1073.82 583.136 1062.51 600.107C1042.26 630.393 1040.11 639.194 1044.56 673.05C1047.95 699.369 1046.61 707.608 1037.08 717.762C1021.81 733.981 997.52 725.544 968.141 693.736C925.86 648.114 915.702 615.545 933.418 582.479C939.416 571.251 951.039 558.512 961.309 551.815Z" fill="#C8C7C7"/>
<path d="M850.815 674.733C864.792 664.023 885.087 659.733 905.161 663.259C914.471 664.861 921.814 668.436 928.422 674.541C941.482 686.606 942.251 700.294 930.718 715.304C919.046 730.622 892.538 738.796 869.395 734.331C848.698 730.375 835.306 717.565 834.979 701.661C834.789 693.028 841.32 681.855 850.815 674.733Z" fill="#C8C7C7"/>
<path d="M1088.42 890.741C1100.02 885.127 1112.59 884.781 1128.25 889.619C1155.56 898.087 1174.62 918.025 1177.03 940.668C1177.4 944.216 1176.83 949.089 1175.95 951.625C1165.65 978.713 1120.39 978.459 1090.29 951.227C1079.28 941.203 1074.15 932.235 1072.2 919.503C1070.54 908.199 1077.34 896.106 1088.42 890.741Z" fill="#C8C7C7"/>
<path d="M1190.33 853.356C1195.86 849.575 1199.77 848.662 1208.34 848.853C1223.43 849.09 1238.07 855.18 1250.27 866.445C1262.3 877.414 1269.01 890.033 1270.32 903.777C1271.24 913.821 1269.56 919.269 1263.9 925.405C1243.24 947.445 1194.71 927.841 1181.48 892.135C1180.04 888.326 1178.54 883.004 1178.2 880.213C1176.78 871.174 1182.42 858.596 1190.33 853.356Z" fill="#C8C7C7"/>
<path d="M1064.28 991.216C1076.98 984.725 1093.57 982.401 1109.58 984.799C1145.8 990.262 1166.85 1020.5 1149.67 1042.1C1134.36 1061.36 1101.7 1067.2 1072.75 1055.91C1052.51 1048 1040.17 1029.31 1044.45 1013C1046.04 1007.17 1057.37 994.749 1064.28 991.216Z" fill="#C8C7C7"/>
<path d="M1232.39 962.352C1244.31 953.391 1260.93 946.29 1282.4 941.044C1297.12 937.43 1327.21 935.632 1335.11 937.972C1341.55 939.839 1350.54 946.684 1353.56 952.097C1361.63 966.558 1358.4 978.737 1339.56 1006.39C1320.01 1035.13 1317.45 1045.16 1321.75 1079.03C1324.29 1099.31 1324.36 1103.02 1322.02 1110.92C1319.62 1119.05 1311.72 1128.39 1305.37 1130.53C1286.97 1136.87 1261.79 1121.04 1231.84 1084.48C1212.73 1061.29 1203.62 1041.64 1202.69 1021.97C1202.15 1010.39 1204.74 999.071 1210.53 988.382C1214.19 981.415 1226.57 966.6 1232.39 962.352Z" fill="#C8C7C7"/>
<path d="M1132.36 1077.73C1146.12 1069.15 1165.32 1066.04 1183.72 1069.48C1201.82 1072.78 1216.27 1087.45 1216.1 1102.31C1215.85 1117.1 1199.75 1133.43 1179.37 1139.39C1164.9 1143.52 1144.15 1141.99 1132.01 1135.88C1115.46 1127.59 1107.99 1111.36 1114.49 1097.39C1117.49 1090.83 1125.56 1082.09 1132.36 1077.73Z" fill="#C8C7C7"/>
</svg>
